<svg id="Layer_4" data-name="Layer 4" xmlns="http://www.w3.org/2000/svg" viewBox="0 0 256.167 228.947"><defs><style>.cls-1{fill:#f5f5f5;}.cls-2{fill:#e0e0e0;}.cls-3{fill:#fff;}.cls-4{fill:#c6c6c6;}.cls-5{fill:#ffcebd;}.cls-6{fill:#263238;}.cls-7{fill:#e8505b;}.cls-8,.cls-9{fill:#191c3c;}.cls-9{opacity:0.3;}.cls-10{fill:#384347;}.cls-11{opacity:0.14;}.cls-12{opacity:0.27;}.cls-13{fill:#bfbfbf;}.cls-14{fill:#999;}.cls-15{fill:#192226;}.cls-16{fill:#cecece;}.cls-17{opacity:0.29;}.cls-18{fill:#272834;}.cls-19{fill:#3a3c4e;}.cls-20{opacity:0.2;}</style></defs><title>details-1</title><path class="cls-1" d="M69.559,20.121C41.014,37.873,9.318,69.392,1.936,103.168-15.307,182.054,86.6,230.05,150.508,228.927c40.614-.713,82.588-22.424,98.481-59.806,10.341-24.324,8.766-52.554,0-77.49C221.073,12.2,144.5-26.483,69.559,20.121Z"/><ellipse class="cls-2" cx="159.306" cy="201.087" rx="75.629" ry="6.603"/><rect class="cls-3" x="65.266" y="12.765" width="104.728" height="56.442"/><rect class="cls-4" x="62.719" y="66.009" width="109.822" height="4.756"/><polygon class="cls-2" points="82.925 55.984 82.447 55.353 96.088 45.012 106.532 51.242 126.239 31.329 134.995 42.038 153.087 28.839 153.55 29.481 134.852 43.116 126.183 32.512 106.659 52.24 96.14 45.967 82.925 55.984"/><rect class="cls-2" x="81.885" y="19.949" width="0.792" height="40.649"/><rect class="cls-2" x="75.171" y="55.645" width="89.26" height="0.792"/><circle class="cls-4" cx="153.82" cy="28.768" r="1.82"/><circle class="cls-4" cx="126.153" cy="32.031" r="1.82"/><circle class="cls-4" cx="96.07" cy="45.698" r="1.82"/><circle class="cls-4" cx="106.57" cy="51.39" r="1.82"/><circle class="cls-4" cx="134.763" cy="42.267" r="1.82"/><polygon class="cls-5" points="210.176 51.802 229.935 46.846 225.948 37.992 226.043 30.018 219.701 16.472 213.96 27.579 211.883 40.229 210.176 51.802"/><path class="cls-5" d="M188.7,58.075h-0.515L173.928,39.085l-1.562-4.178a2.767,2.767,0,0,0-2.592-1.8H167.4l-1.031.6-10.823-.6h0a2.138,2.138,0,0,0,2.06,2.136l5.5,0.2,0.161,4.022a3.731,3.731,0,0,0,2.325,3.308l3.7,1.5,1.46,1.316,13.821,22.714a1.659,1.659,0,0,0,1.961.7l5.177-1.8-2.233-9.106Z"/><rect class="cls-5" x="188.533" y="187.62" width="8.886" height="6.942" transform="translate(385.951 382.182) rotate(180)"/><path class="cls-6" d="M200.869,94.008L188.533,148.62v40.959h8.886s7.359-28.417,3.61-40.219L215.746,115.3Z"/><polygon class="cls-7" points="199.733 189.579 199.733 199.946 170.668 199.946 170.668 196.336 178.999 194.67 185.2 187.543 186.496 187.543 188.533 190.875 197.419 191.153 198.715 189.579 199.733 189.579"/><rect class="cls-8" x="184.251" y="188.632" width="1.109" height="2.434" transform="translate(-80.126 192.523) rotate(-46.349)"/><rect class="cls-8" x="182.788" y="190.479" width="1.112" height="1.81" transform="translate(-80.094 162.343) rotate(-39.938)"/><polygon class="cls-8" points="182.07 193.591 182.835 192.786 181.67 191.676 180.905 192.481 182.07 193.591"/><rect class="cls-5" x="218.037" y="189.579" width="6.595" height="6.942" transform="translate(442.67 386.1) rotate(180)"/><polygon class="cls-9" points="199.883 98.373 204.103 98.637 215.746 115.297 209.571 129.589 206.166 113.48 198.805 103.145 199.883 98.373"/><path class="cls-6" d="M228.52,100.024l-0.555,47.069c5,10.275-3.332,42.487-3.332,42.487h-7.22l-0.972-38-8.053-38.1-10.969-15.4Z"/><polygon class="cls-7" points="207.878 199.79 219.391 199.79 226.021 196.706 225.558 191.153 224.633 192.541 222.966 192.634 220.93 189.579 215.376 189.579 207.878 199.79"/><polygon class="cls-8" points="226.021 196.706 226.021 198.835 219.912 202.26 207.878 202.26 207.878 199.79 219.391 199.79 226.021 196.706"/><rect class="cls-8" x="214.288" y="191.523" width="3.749" height="1.111"/><rect class="cls-8" x="213.49" y="193.467" width="3.749" height="1.111"/><rect class="cls-8" x="212.24" y="195.411" width="3.749" height="1.111"/><rect class="cls-8" x="170.668" y="199.79" width="29.065" height="2.471" transform="translate(370.4 402.05) rotate(180)"/><path class="cls-7" d="M211.883,40.229l-12.994,7.52a3.96,3.96,0,0,0-.667.486l-9.689,8.747,1.944,12.469,24.5-14.563Z"/><polygon class="cls-7" points="235.034 53.721 229.935 101.388 194.919 101.388 204.222 45.735 211.883 40.229 216.179 47.711 225.948 37.992 235.034 53.721"/><path class="cls-10" d="M221.71,23.564a7.622,7.622,0,0,1,.558,3.18,24.529,24.529,0,0,0,.572,5.238,14.027,14.027,0,0,0,1.047,2.384,0.808,0.808,0,0,0,.263.341,0.63,0.63,0,0,0,.328.076,2.027,2.027,0,0,0,1.753-1.46,9.034,9.034,0,0,0,.3-2.407c0.094-1.329.858-2.651,1.043-4,0.065-.474.057-0.954,0.1-1.43a27.329,27.329,0,0,1,.78-3.341c0.5-2.211-.41-4.086-1.478-5.986-0.537-.955-1.036-1.983-1.665-2.883-0.8-1.143-1.957-1.119-3.05-1.822-0.845-.544-1.411-1.582-2.4-1.759-1.225-.22-2.467,1.028-3.616.549-1.194-.5-2.291-1.153-3.6-0.417a4.064,4.064,0,0,1-1.353.693,4.521,4.521,0,0,1-1.04-.1,5.046,5.046,0,0,0-2.008.344,2.128,2.128,0,0,0-1.527,1.077,10.076,10.076,0,0,1-.212,1.135,1.494,1.494,0,0,1-1.229.676,3.711,3.711,0,0,0-1.424.292c-0.682.389-.876,2.4-0.558,3.043a2.155,2.155,0,0,0,2.089.967c0.812-.04,1.6-0.318,2.409-0.37a2.211,2.211,0,0,1,2.124.906,2.854,2.854,0,0,1,.242.708l0.987,3.989a6.864,6.864,0,0,0,1.58,3.443,3.78,3.78,0,0,0,3.691.795,4.558,4.558,0,0,0,2.769-2.653,5.126,5.126,0,0,1,.675-1.459,1.056,1.056,0,0,1,1.424-.269A2.071,2.071,0,0,1,221.71,23.564Z"/><path class="cls-5" d="M205.575,18.1v6.387l0.833,0.833a9.3,9.3,0,0,0-1.666,5.137h1.666v3.159a4.894,4.894,0,0,0,4.894,4.894h0.625a6.838,6.838,0,0,0,6.838-6.838V28.935s2.638-1.25,2.638-3.61c0,0,.417-3.61-1.8-3.471,0,0-2.916-.139-3.055,2.221l-3.182.278V22.565a2.39,2.39,0,0,0-2.234-2.385h0l-0.138-3.742S207.242,15.744,205.575,18.1Z"/><path class="cls-10" d="M206.687,35.12c0.487-.271.694,0.462,0.739,0.8a0.871,0.871,0,0,0,.476.81,0.858,0.858,0,0,0,.418-0.035,2.391,2.391,0,0,0,1.084-.5,1.772,1.772,0,0,0,.979-1.5,1.683,1.683,0,0,0-.917-1.678,3.8,3.8,0,0,0-1.844-.177c-0.474.039-1.153,0.278-1.492-.2a1.01,1.01,0,0,1,0-.878,1.43,1.43,0,0,1,.21-0.464c0.3-.389,1.724-0.264,2.211-0.293a9.693,9.693,0,0,1,1.714-.056,2.129,2.129,0,0,1,1.416.714,2.675,2.675,0,0,0,.888,1.048,1.144,1.144,0,0,0,.571.033,1.533,1.533,0,0,0,1.107-.624,2.341,2.341,0,0,0-.053-1.848c-0.385-1.365-.22-2.792-0.591-4.124-0.2-.729-0.582-2.513.026-3.137h3.24c-0.339,1.5-.72,4.18-0.128,5.6,1.034,2.487,3.1,6.033.675,8.367a7.686,7.686,0,0,1-2.32,1.364,6.021,6.021,0,0,1-1.639.539c-0.659.083-1.327-.053-1.991-0.023a10.681,10.681,0,0,1-2.489.18,4.554,4.554,0,0,1-1.5-.7,0.863,0.863,0,0,1-.265-0.219,2.388,2.388,0,0,1-.168-0.47,1.856,1.856,0,0,0-.191-0.31,2.5,2.5,0,0,1-.411-1.511A0.787,0.787,0,0,1,206.687,35.12Z"/><g class="cls-11"><path class="cls-8" d="M200.034,162.508a3.106,3.106,0,0,0,.76-1.678c0-.335-1.077-2.145-0.96-2.287a1.07,1.07,0,0,1,.782-0.384,1.814,1.814,0,0,0-.861-0.872,0.743,0.743,0,0,1-.275-1.059,2.825,2.825,0,0,1,1.4-.276c-0.095-1.129-.4-2.275-0.607-3.391a6.92,6.92,0,0,0-1.094-2.871c-0.555-.738-1.548-0.844-1.927-1.7a0.414,0.414,0,0,1-.047-0.238,0.473,0.473,0,0,1,.492-0.27,20.206,20.206,0,0,0,2.5-.149c0.464-.084,1.618-0.755,1.827-0.354,0.179,0.344-.822,1.989-0.992,2.382,1.2,3.787,1.172,7.969.99,11.9-0.109,2.372-.328,4.738-0.611,7.1-0.25,2.089-.3,4.635-1,6.592a5.975,5.975,0,0,0-.485-2.783,12.526,12.526,0,0,0-1.643-2.47,1.624,1.624,0,0,1-.279-0.439,1.439,1.439,0,0,1-.067-0.463,6.749,6.749,0,0,1,.071-1.154c0.95,0.526,1.879.926,2.853,1.349-0.152-1.309-.289-2.964-1.18-4.013a1.475,1.475,0,0,1-.512-0.908,1.126,1.126,0,0,1,.128-0.425A7.48,7.48,0,0,1,200.034,162.508Zm9.321-32.419c0.317-.733-1.479-0.078-1.583,0a3.72,3.72,0,0,0-1.252,1.752,30.463,30.463,0,0,0-.724,3.314,8.949,8.949,0,0,1-2.366,4.181,0.885,0.885,0,0,1,.687,1.142,3.543,3.543,0,0,1-.839,1.273c-0.577.705-.827,2.006-1.445,2.585a3.148,3.148,0,0,1-1.111.42,21.541,21.541,0,0,1,1.572,1.681Z"/></g><g class="cls-12"><path class="cls-13" d="M230.868,92.659l-0.189,1.766a0.579,0.579,0,0,1-.119-0.6A10.491,10.491,0,0,0,230.868,92.659Z"/><path class="cls-13" d="M231.022,72.13c1.061-.269-1.018-1.129-1.789-2.011-0.109-.289,2.3-0.343,2.541-0.494-0.145-1.057,0-2.011-.141-3.068-0.556-.29-2.6-0.516-2.072-0.694,2.635-.886.472-12.352-0.3-14.06a48.514,48.514,0,0,1,3.052,4.976,33.177,33.177,0,0,1,1.718,6.3l-0.314,2.936c-0.128.026-.258,0.045-0.385,0.073a3.584,3.584,0,0,1,.343.316l-0.735,6.876c-0.208.025-.047,0.64-0.255,0.665a0.8,0.8,0,0,1,.152.3l-1.725,16.122c-1.179,6.809-1.345-4.381-1.179-6.312,0.336-3.925,2.383-8.519-.373-9.164C228.934,74.74,230.443,72.2,231.022,72.13Z"/></g><polygon class="cls-5" points="244.21 69.45 244.904 77.39 237.823 110.715 238.656 115.019 237.823 120.712 235.773 122.517 232.963 123.35 229.935 124.46 228.659 124.46 225.948 123.35 227.687 121.128 228.381 117.591 227.271 119.462 225.164 120.017 227.826 113.48 232.187 108.96 235.034 80.096 233.935 69.45 244.21 69.45"/><polygon class="cls-9" points="244.404 71.671 234.164 71.671 233.935 69.45 244.21 69.45 244.404 71.671"/><path class="cls-7" d="M225.948,37.992l15.866,9.053a5.888,5.888,0,0,1,2.963,4.839L245.6,69.45H232.963L232.187,57.4Z"/><rect class="cls-5" x="143.69" y="180.15" width="7.55" height="12.658" transform="translate(-88.957 161.479) rotate(-45.628)"/><rect class="cls-5" x="100.841" y="181.236" width="7.55" height="12.658" transform="translate(59.636 -22.44) rotate(17.062)"/><polygon class="cls-10" points="61.321 151.705 54.395 201.147 56.833 201.212 69.751 150.153 61.466 150.153 61.321 151.705"/><polygon class="cls-10" points="112.533 151.705 119.459 201.147 117.021 201.212 104.103 150.153 112.388 150.153 112.533 151.705"/><path class="cls-14" d="M60.373,144.413h53.034a4.794,4.794,0,0,1,4.794,4.794v2.5a0,0,0,0,1,0,0H55.579a0,0,0,0,1,0,0v-2.5A4.794,4.794,0,0,1,60.373,144.413Z"/><polygon class="cls-15" points="58.174 132.712 105.07 154.295 145.294 190.511 152.815 183.03 118.202 144.413 83.349 119.631 58.174 132.712"/><path class="cls-6" d="M55.361,122.138v8.83a13.844,13.844,0,0,0,13.844,13.844h43.713c-7.849,9.484-12.346,40.064-12.346,40.064l9.845,2.689L127.8,143.076a12.546,12.546,0,0,0-11.723-17.014H84.788l0.224-3.924H55.361Z"/><path class="cls-3" d="M74.09,79.764L82.248,81.3a16.178,16.178,0,0,1,11.517,8.754l6.676,13.566-6.683,15.029-0.68,6.757s-32.389,14.354-40.341,7.849l-0.369-34.54L64.594,80.838Z"/><path class="cls-5" d="M62.754,69.762S65.341,81.384,64.8,88.143h9.484S73.3,76.607,75.26,74.708Z"/><path class="cls-5" d="M79.411,60.171a17.616,17.616,0,0,0-1.867-6.06l-0.354.172a8.633,8.633,0,0,0-8.135-1.875,11.546,11.546,0,0,0-6.669,5.3,13.869,13.869,0,0,0-1.035,11.948A13.548,13.548,0,0,0,70.218,77.7c1.593,0.439,3.45.525,4.747-.5a6.517,6.517,0,0,0,1.284-1.53,12.789,12.789,0,0,0,2.242-4.589,29.268,29.268,0,0,0,.163-4.064C78.769,64.72,79.541,62.468,79.411,60.171Z"/><path class="cls-10" d="M75.347,51.32a26.731,26.731,0,0,0-3.509-2.561,13,13,0,0,0-3.2-1.1c-2.783-.64-4.66-0.459-6.786,1.609a8.916,8.916,0,0,0-2.736,5.973,5.686,5.686,0,0,1-.148,1.519,5.49,5.49,0,0,1-.947,1.521,10.168,10.168,0,0,0-1.179,9.373,6.792,6.792,0,0,0,2.58,3.647c1.035,0.594,3.721,1.045,4.229,2.294a12.851,12.851,0,0,1-.887-6.013,3.232,3.232,0,0,1,.434-1.515,1.322,1.322,0,0,1,1.359-.617,2.9,2.9,0,0,1,.944.619,3.2,3.2,0,0,0,1.9.651,1.328,1.328,0,0,0,.768-0.185,1.414,1.414,0,0,0,.5-0.931,10.941,10.941,0,0,0-.807-5.354c-0.474-1.379-.565-3.182,1.271-3.066,1.649,0.1,3.337,1.115,5.1,1.212a14.726,14.726,0,0,0,10.051-3.158A20.923,20.923,0,0,1,75.347,51.32Z"/><polygon class="cls-16" points="71.336 88.143 74.09 79.11 75.718 79.417 77.441 93.92 71.336 88.143"/><path class="cls-5" d="M64.463,79.764l-8.676,1.642a12.881,12.881,0,0,0-9.479,7.664l-9.69,23.049a4.954,4.954,0,0,0,4.566,6.873l34.657-1.731,1.6-4.907-3.815,1.3-21.693-1.838a2.287,2.287,0,0,1-1.659-3.62L64.8,88.143S67.4,80.978,64.463,79.764Z"/><path class="cls-3" d="M64.463,79.764l-8.676,1.642a12.881,12.881,0,0,0-9.479,7.664L39.614,103.3c5.232-.545,10.659,4.9,14.389,1.962L64.8,88.143S67.4,80.978,64.463,79.764Z"/><polygon class="cls-16" points="64.386 79.2 71.336 88.143 66.431 94.574 61.98 79.764 64.386 79.2"/><path class="cls-3" d="M97.781,190.269l-2.414,6.115v4.828h29.609v-1.336a2.587,2.587,0,0,0-1.988-2.517l-4.771-1.136-9.977-5.954h-1.77l-0.8,1.77h-5.149l-0.483-1.77H97.781Z"/><path class="cls-6" d="M95.368,198.637v2.575h29.609v-1.336a2.579,2.579,0,0,0-.317-1.239H95.368Z"/><path class="cls-3" d="M146.863,192.671l3.459,5.59,3.87,2.886,17.7-23.736-1.071-.8a2.587,2.587,0,0,0-3.206.089l-3.763,3.145-10.737,4.439-1.058,1.419,0.938,1.7-3.078,4.128-1.708-.671Z"/><path class="cls-6" d="M152.128,199.608l2.064,1.539,17.7-23.736-1.071-.8a2.579,2.579,0,0,0-1.183-.487Z"/><polygon class="cls-10" points="33.105 121.881 18.355 205.356 20.914 205.356 41.844 122.816 33.105 121.881"/><polygon class="cls-10" points="171.64 121.881 186.39 205.356 183.831 205.356 162.901 122.816 171.64 121.881"/><rect class="cls-14" x="7.796" y="118.17" width="184.615" height="5.933" rx="1.294" ry="1.294"/><rect class="cls-10" x="51.601" y="115.871" width="21.202" height="2.781"/><path class="cls-10" d="M109.03,118.652H65.388L75.674,92.023a1.66,1.66,0,0,1,1.548-1.062h40.084a1.66,1.66,0,0,1,1.548,2.258Z"/><circle class="cls-14" cx="92.557" cy="104.806" r="2.721"/><g id="_Group_" data-name="&lt;Group&gt;"><g id="_Group_2" data-name="&lt;Group&gt;"><g id="_Group_3" data-name="&lt;Group&gt;"><g id="_Group_4" data-name="&lt;Group&gt;"><path id="_Path_" data-name="&lt;Path&gt;" class="cls-7" d="M124.342,112.161h-2.3a3.791,3.791,0,1,1,0-7.582h1.477v1.607h-1.477a2.185,2.185,0,1,0,0,4.369h2.3v1.606Z"/></g></g></g><g id="_Group_5" data-name="&lt;Group&gt;"><g id="_Group_6" data-name="&lt;Group&gt;"><path id="_Path_2" data-name="&lt;Path&gt;" class="cls-7" d="M136.8,103.318H122.829v4.249a12.045,12.045,0,0,0,3.181,8.155h0v2.121h7.614v-2.121h0a12.046,12.046,0,0,0,3.181-8.155v-4.249Z"/></g></g><g id="_Group_7" data-name="&lt;Group&gt;" class="cls-17"><g id="_Group_8" data-name="&lt;Group&gt;"><path id="_Path_3" data-name="&lt;Path&gt;" class="cls-3" d="M133.93,103.318v4.249a12.045,12.045,0,0,1-3.181,8.155h0v2.121h1.643v-2.121h0a12.046,12.046,0,0,0,3.181-8.155v-4.249H133.93Z"/></g></g></g><g id="_Group_9" data-name="&lt;Group&gt;"><g id="_Group_10" data-name="&lt;Group&gt;"><g id="_Group_11" data-name="&lt;Group&gt;"><polygon id="_Path_4" data-name="&lt;Path&gt;" class="cls-18" points="166.05 118.408 168.497 118.408 166.05 107.954 157.017 118.408 166.05 118.408"/></g></g><g id="_Group_12" data-name="&lt;Group&gt;"><g id="_Group_13" data-name="&lt;Group&gt;"><polygon id="_Path_5" data-name="&lt;Path&gt;" class="cls-19" points="163.296 118.408 149.236 118.408 155.241 98.957 169.301 98.957 163.296 118.408"/></g></g><g id="_Group_14" data-name="&lt;Group&gt;"><g id="_Group_15" data-name="&lt;Group&gt;"><polygon id="_Path_6" data-name="&lt;Path&gt;" class="cls-10" points="161.795 118.408 147.735 118.408 153.74 98.957 167.8 98.957 161.795 118.408"/></g></g><g id="_Group_16" data-name="&lt;Group&gt;"><g id="_Group_17" data-name="&lt;Group&gt;"><polygon id="_Path_7" data-name="&lt;Path&gt;" class="cls-7" points="160.739 115.858 150.366 115.858 154.796 101.506 165.17 101.506 160.739 115.858"/></g></g><g id="_Group_18" data-name="&lt;Group&gt;" class="cls-20"><g id="_Group_19" data-name="&lt;Group&gt;"><polygon id="_Path_8" data-name="&lt;Path&gt;" class="cls-3" points="151.116 115.483 155.43 101.506 154.796 101.506 150.366 115.858 160.739 115.858 160.855 115.483 151.116 115.483"/></g></g></g></svg>