<svg xmlns="http://www.w3.org/2000/svg" viewBox="0 0 256.167 228.947"><defs><style>.cls-1{isolation:isolate;}.cls-2{fill:#f5f5f5;}.cls-3{fill:#e0e0e0;}.cls-4{fill:#fff;}.cls-5{fill:#c6c6c6;}.cls-6{fill:#ffabb9;}.cls-7{fill:#ffcebd;}.cls-8{fill:#e8505b;}.cls-9,.cls-98{fill:#191c3c;}.cls-10{fill:#263238;}.cls-11{fill:#384347;}.cls-12{fill:#231f20;opacity:0.15;}.cls-13{mix-blend-mode:multiply;}.cls-14,.cls-15,.cls-16,.cls-17,.cls-18,.cls-19,.cls-20,.cls-21,.cls-22,.cls-23,.cls-24,.cls-25,.cls-26,.cls-27,.cls-28,.cls-29,.cls-30,.cls-31,.cls-32,.cls-33,.cls-34,.cls-35,.cls-36,.cls-37,.cls-38,.cls-39,.cls-40,.cls-41,.cls-42,.cls-43,.cls-44,.cls-45,.cls-46,.cls-47,.cls-48,.cls-49,.cls-50,.cls-51,.cls-52,.cls-53,.cls-54,.cls-55{fill:#cecece;}.cls-14,.cls-56{opacity:0;}.cls-15,.cls-57{opacity:0.024;}.cls-16,.cls-58{opacity:0.049;}.cls-17,.cls-59{opacity:0.073;}.cls-18,.cls-60{opacity:0.098;}.cls-19,.cls-61{opacity:0.122;}.cls-20,.cls-62{opacity:0.146;}.cls-21,.cls-63{opacity:0.171;}.cls-22,.cls-64{opacity:0.195;}.cls-23,.cls-65{opacity:0.22;}.cls-24,.cls-66{opacity:0.244;}.cls-25,.cls-67{opacity:0.268;}.cls-26,.cls-68{opacity:0.293;}.cls-27,.cls-69{opacity:0.317;}.cls-28,.cls-70{opacity:0.341;}.cls-29,.cls-71{opacity:0.366;}.cls-30,.cls-72{opacity:0.39;}.cls-31,.cls-73{opacity:0.415;}.cls-32,.cls-74{opacity:0.439;}.cls-33,.cls-75{opacity:0.463;}.cls-34,.cls-76{opacity:0.488;}.cls-35,.cls-77{opacity:0.512;}.cls-36,.cls-78{opacity:0.537;}.cls-37,.cls-79{opacity:0.561;}.cls-38,.cls-80{opacity:0.585;}.cls-39,.cls-81{opacity:0.61;}.cls-40,.cls-82{opacity:0.634;}.cls-41,.cls-83{opacity:0.659;}.cls-42,.cls-84{opacity:0.683;}.cls-43,.cls-85{opacity:0.707;}.cls-44,.cls-86{opacity:0.732;}.cls-45,.cls-87{opacity:0.756;}.cls-46,.cls-88{opacity:0.78;}.cls-47,.cls-89{opacity:0.805;}.cls-48,.cls-90{opacity:0.829;}.cls-49,.cls-91{opacity:0.854;}.cls-50,.cls-92{opacity:0.878;}.cls-51,.cls-93{opacity:0.902;}.cls-52,.cls-94{opacity:0.927;}.cls-53,.cls-95{opacity:0.951;}.cls-54,.cls-96{opacity:0.976;}.cls-97{fill:#4d5068;}.cls-98{opacity:0.3;}.cls-99{opacity:0.35;}.cls-100{fill:#e0e3fd;}.cls-101{fill:#f48794;}</style></defs><title>details-3</title><g class="cls-1"><g id="Layer_4" data-name="Layer 4"><path class="cls-2" d="M69.559,20.121C41.014,37.873,9.318,69.392,1.936,103.168-15.307,182.054,86.6,230.05,150.508,228.927c40.614-.713,82.588-22.424,98.481-59.806,10.341-24.324,8.766-52.554,0-77.49C221.073,12.2,144.5-26.483,69.559,20.121Z"/></g><g id="Layer_5" data-name="Layer 5"><ellipse class="cls-3" cx="192.784" cy="203.779" rx="34.804" ry="4.91"/><rect class="cls-4" x="101.069" y="160.357" width="86.357" height="28.158" rx="4.055" ry="4.055"/><path class="cls-5" d="M183.372,160.357H105.124a4.055,4.055,0,0,0-4.055,4.055v2.6h86.357v-2.6A4.055,4.055,0,0,0,183.372,160.357Z"/><circle class="cls-3" cx="113.841" cy="178.111" r="6.596"/><rect class="cls-2" x="123.991" y="172.058" width="56.173" height="1.777"/><rect class="cls-2" x="123.991" y="177.231" width="56.173" height="1.777"/><rect class="cls-6" x="123.991" y="182.404" width="21.065" height="1.777"/><circle class="cls-4" cx="108.088" cy="163.686" r="0.844"/><circle class="cls-4" cx="111.752" cy="163.686" r="0.844"/><circle class="cls-4" cx="115.417" cy="163.686" r="0.844"/><rect class="cls-7" x="174.911" y="188.203" width="5.445" height="8.289" transform="translate(355.266 384.696) rotate(180)"/><path class="cls-8" d="M181.09,194.358a34,34,0,0,0,1.253,6.4,3.658,3.658,0,0,1,.428,1.065v3.055H169.891v-1.623a3.474,3.474,0,0,1,.687-2.067c1.1-1.483,4.354-4.549,3.843-6.832h6.668Z"/><path class="cls-9" d="M181.059,194.357h0.03l-0.015.083C181.07,194.414,181.063,194.384,181.059,194.357Z"/><path class="cls-9" d="M182.77,202.677v2.2H169.891v-1.623a3.432,3.432,0,0,1,.051-0.58H182.77Z"/><rect class="cls-9" x="175.339" y="196.095" width="3.548" height="0.795" rx="0.271" ry="0.271" transform="translate(354.226 392.985) rotate(180)"/><rect class="cls-9" x="174.911" y="197.869" width="3.548" height="0.795" rx="0.271" ry="0.271" transform="translate(353.37 396.534) rotate(180)"/><rect class="cls-7" x="210.329" y="188.203" width="5.445" height="8.289" transform="translate(426.103 384.696) rotate(180)"/><path class="cls-10" d="M200.909,117.713c-1.516,3.75-10.733,36.315-10.733,36.315l-8.308,39.014h-8.113l4.186-44.273L181,101.759l17.587,2.093,3.181,8.709Z"/><polygon class="cls-10" points="219.34 110.614 218.832 149.896 216.901 193.042 209.173 193.042 206.06 158.643 198.587 118.138 198.587 103.852 217.867 105.623 219.34 110.614"/><path class="cls-7" d="M199.674,54.32h11.591V39.053H198.587C201.526,42.868,199.674,54.32,199.674,54.32Z"/><path class="cls-4" d="M217.867,108.843c-0.377,9.042-29.623-5.53-36-2.147L189.6,53.513s7.079-2.816,10.078-.615c4.132,3.032,11.591,0,11.591,0l5.205,2.066S218.188,101.115,217.867,108.843Z"/><path class="cls-8" d="M200.2,44.756s2.1,35.1-15.263,57.325c0,0-5.307,13.119-9.6,13.763,0,0-4.482-11.377.992-20.364,3.362-5.52,9.856-17.614,10.241-24.066l1.1-18.516Z"/><path class="cls-8" d="M211.266,44.756s-5.073,23-5.205,34.749c-0.107,9.552,14.728,41.409,14.728,41.409s9.158-9.557,4.328-20.6c-3.184-7.282-6.737-13.04-6.284-17.823l-0.12-32.87Z"/><path class="cls-7" d="M194.569,36.158a19.9,19.9,0,0,1,.847-4.544,3.683,3.683,0,0,0-1.329-.285,0.6,0.6,0,0,1-.376-1c1.41-1.57,3.993-4.137,4.423-5.078a7.467,7.467,0,0,1,.84-1.56,11.8,11.8,0,0,0,.661-1.159,2.067,2.067,0,0,1,1.414-1.112,4.793,4.793,0,0,1,1.734.195,32.374,32.374,0,0,1,6.955,2.171,13.509,13.509,0,0,1,2.422,1.407,7.339,7.339,0,0,1,2.393,3.293c0.8,2.217.481,4.669,0.018,6.98a6.017,6.017,0,0,1-.5,1.643,5.233,5.233,0,0,1-2.01,1.9c-1.38.847-2.816,1.6-4.263,2.328a15.742,15.742,0,0,1-2.671,1.14,15.337,15.337,0,0,1-4.664.374,7.39,7.39,0,0,1-3.547-.7,4.693,4.693,0,0,1-2.011-2.636A9.025,9.025,0,0,1,194.569,36.158Z"/><path class="cls-11" d="M198.162,14.772c2.212,1.872,5.183,2.56,8.059,2.916s5.821,0.449,8.566,1.38c1.7,0.577,4.351,1.646,5.169,3.393,1.145,2.445.96,6.072,0.333,8.617a12.827,12.827,0,0,1-2.675,5.263,14.557,14.557,0,0,1-5.082,3.407c-0.162.08-.323,0.161-0.482,0.247a2.468,2.468,0,0,1-.5.292c-0.324.066-.4-0.491-0.394-0.742a2.843,2.843,0,0,1,.445-1.392,8.392,8.392,0,0,1,.826-1.01c0.795-.99.745-2.2,0.845-3.4a4.306,4.306,0,0,0-.11-1.736,1.632,1.632,0,0,0-1.212-1.142,2.172,2.172,0,0,0-1.648.686,8.826,8.826,0,0,0-2.182,2.886q-0.048-1.528-.1-3.056a7.471,7.471,0,0,0-.263-2.085c-0.286-.878-0.905-1.738-0.685-2.635a9.414,9.414,0,0,0,.419-1.193,1.589,1.589,0,0,0-.924-1.464,5.886,5.886,0,0,0-1.769-.469c-0.946-.168-1.836-0.48-2.756-0.733a5.8,5.8,0,0,1-2.391-1.145,4.613,4.613,0,0,1-1.325-2.416,12.528,12.528,0,0,1-.235-2.783A13.6,13.6,0,0,1,198.162,14.772Z"/><path class="cls-7" d="M232.946,69.776l6.227,16.064a5.672,5.672,0,0,1-.439,5.006l-19.8,25.2-3.513-5.273,12.695-20.088a6.006,6.006,0,0,0-.135-5.477l-6.15-10.819S229.3,77.164,232.946,69.776Z"/><path class="cls-7" d="M215.427,110.775l-2.267.4-1.567,1.442a1.413,1.413,0,0,0-.108,1.968l0.465,0.533-0.7,1.122a1.3,1.3,0,0,0,.094,1.505l2.189,2.688a1.3,1.3,0,0,0,1.688.282l2.373-1.473a2.219,2.219,0,0,0,1.008-1.461l0.339-1.738Z"/><path class="cls-8" d="M216.508,194.358a7.687,7.687,0,0,0,1.9,6.4,1.619,1.619,0,0,1,.428,1.065v3.055H206.6v-1.623a3.474,3.474,0,0,1,.687-2.067c1.1-1.483,3.066-4.549,2.555-6.832h6.668Z"/><path class="cls-9" d="M216.477,194.357h0.03s-0.009.052-.015,0.083C216.488,194.414,216.481,194.384,216.477,194.357Z"/><path class="cls-9" d="M218.832,202.677v2.2H206.6v-1.623a3.432,3.432,0,0,1,.051-0.58h12.184Z"/><rect class="cls-9" x="210.757" y="196.095" width="3.548" height="0.795" rx="0.271" ry="0.271" transform="translate(425.062 392.985) rotate(180)"/><rect class="cls-9" x="210.329" y="197.869" width="3.548" height="0.795" rx="0.271" ry="0.271" transform="translate(424.206 396.534) rotate(180)"/><path class="cls-8" d="M211.266,44.756l8.075,5.271,3.6,1.712a10.108,10.108,0,0,1,5.076,5.459l6.487,14.76c-7.009,1.36-7.3,7.692-12.293,6.511L215.04,61.4,211.266,52.9V44.756Z"/><path class="cls-8" d="M200.2,44.756l-8.094,3.474L187.6,49.408a9.58,9.58,0,0,0-6.307,5.321L173.755,69.7c4.83,0,9.849,6.47,10.625,5.222l9.257-16.233Z"/><path class="cls-12" d="M197.642,41.265A2.273,2.273,0,0,1,198.764,39h0a1.216,1.216,0,0,0,.538-0.641l0.714-1.974a3.312,3.312,0,0,0,.162-1.614l-0.227-1.53a1.276,1.276,0,0,0-1.787-.976l-2.6,1.175-1.606,1.575-0.011.023a10.547,10.547,0,0,0,.343,4.114A5.236,5.236,0,0,0,196.53,42.1a4.93,4.93,0,0,0,1.283.487Z"/><path class="cls-7" d="M174.644,70.315L192.231,42.05V37.325a2.2,2.2,0,0,1,.661-1.573l1.982-1.943,2.334-1.053a1.144,1.144,0,0,1,1.6.875l0.2,1.371a2.968,2.968,0,0,1-.145,1.446l-0.64,1.769a1.091,1.091,0,0,1-.482.574h0a2.038,2.038,0,0,0-1.006,2.028l0.172,1.331,3.1,0.612-3.886,2.991L183.463,74.94a4.992,4.992,0,0,1-6.7,2.533h0A4.993,4.993,0,0,1,174.644,70.315Z"/><rect id="_Rectangle_" data-name="&lt;Rectangle&gt;" class="cls-4" x="52.234" y="53.068" width="76.607" height="92.263" rx="2.858" ry="2.858"/><path id="_Path_" data-name="&lt;Path&gt;" class="cls-5" d="M128.841,62.815V55.722a2.654,2.654,0,0,0-2.654-2.654h-71.3a2.654,2.654,0,0,0-2.654,2.654v7.093h76.607Z"/><circle id="_Path_2" data-name="&lt;Path&gt;" class="cls-4" cx="58.039" cy="57.942" r="0.836"/><circle id="_Path_3" data-name="&lt;Path&gt;" class="cls-4" cx="61.79" cy="57.942" r="0.836"/><circle id="_Path_4" data-name="&lt;Path&gt;" class="cls-4" cx="65.54" cy="57.942" r="0.836"/><circle class="cls-3" cx="67.48" cy="107.562" r="6.833"/><circle class="cls-3" cx="67.48" cy="126.213" r="6.833"/><rect class="cls-2" x="82.289" y="103.146" width="38.012" height="1.417"/><rect class="cls-2" x="82.289" y="108.729" width="21" height="1.417"/><rect class="cls-2" x="82.289" y="121.979" width="38.012" height="1.417"/><rect class="cls-2" x="82.289" y="127.562" width="21" height="1.417"/><g class="cls-13"><path class="cls-14" d="M126.295,52.995H108.118V86.416a4.938,4.938,0,0,0,4.938,4.938h15.786V55.541A2.547,2.547,0,0,0,126.295,52.995Z"/><path class="cls-15" d="M126.312,52.995H108.258V86.331a4.9,4.9,0,0,0,4.9,4.9h15.679V55.524A2.529,2.529,0,0,0,126.312,52.995Z"/><path class="cls-16" d="M126.329,52.995H108.4V86.247a4.871,4.871,0,0,0,4.871,4.871h15.572V55.507A2.512,2.512,0,0,0,126.329,52.995Z"/><path class="cls-17" d="M126.347,52.995H108.539V86.162A4.838,4.838,0,0,0,113.377,91h15.465V55.49A2.5,2.5,0,0,0,126.347,52.995Z"/><path class="cls-18" d="M126.364,52.995H108.679V86.077a4.8,4.8,0,0,0,4.8,4.8h15.358V55.472A2.478,2.478,0,0,0,126.364,52.995Z"/><path class="cls-19" d="M126.381,52.995H108.82v33a4.771,4.771,0,0,0,4.771,4.771h15.251V55.455A2.46,2.46,0,0,0,126.381,52.995Z"/><path class="cls-20" d="M126.4,52.995H108.96V85.908a4.737,4.737,0,0,0,4.737,4.737h15.144V55.438A2.443,2.443,0,0,0,126.4,52.995Z"/><path class="cls-21" d="M126.416,52.995H109.1V85.823a4.7,4.7,0,0,0,4.7,4.7h15.037V55.421A2.426,2.426,0,0,0,126.416,52.995Z"/><path class="cls-22" d="M126.433,52.995H109.241V85.738a4.67,4.67,0,0,0,4.67,4.67h14.93V55.4A2.409,2.409,0,0,0,126.433,52.995Z"/><path class="cls-23" d="M126.45,52.995H109.381V85.653a4.637,4.637,0,0,0,4.637,4.637h14.823v-34.9A2.391,2.391,0,0,0,126.45,52.995Z"/><path class="cls-24" d="M126.467,52.995H109.522V85.569a4.6,4.6,0,0,0,4.6,4.6h14.716v-34.8A2.374,2.374,0,0,0,126.467,52.995Z"/><path class="cls-25" d="M126.485,52.995H109.662V85.484a4.57,4.57,0,0,0,4.57,4.57h14.609v-34.7A2.357,2.357,0,0,0,126.485,52.995Z"/><path class="cls-26" d="M126.5,52.995H109.8V85.4a4.536,4.536,0,0,0,4.536,4.536h14.5v-34.6A2.34,2.34,0,0,0,126.5,52.995Z"/><path class="cls-27" d="M126.519,52.995H109.943v32.32a4.5,4.5,0,0,0,4.5,4.5h14.4v-34.5A2.322,2.322,0,0,0,126.519,52.995Z"/><path class="cls-28" d="M126.536,52.995H110.083V85.23a4.47,4.47,0,0,0,4.47,4.47h14.288V55.3A2.305,2.305,0,0,0,126.536,52.995Z"/><path class="cls-29" d="M126.554,52.995h-16.33v32.15a4.436,4.436,0,0,0,4.436,4.436h14.181v-34.3A2.288,2.288,0,0,0,126.554,52.995Z"/><path class="cls-30" d="M126.571,52.995H110.364V85.06a4.4,4.4,0,0,0,4.4,4.4h14.075v-34.2A2.271,2.271,0,0,0,126.571,52.995Z"/><path class="cls-31" d="M126.588,52.995H110.5V84.976a4.369,4.369,0,0,0,4.369,4.369h13.968v-34.1A2.253,2.253,0,0,0,126.588,52.995Z"/><path class="cls-32" d="M126.605,52.995h-15.96v31.9a4.336,4.336,0,0,0,4.336,4.336h13.861v-34A2.236,2.236,0,0,0,126.605,52.995Z"/><path class="cls-33" d="M126.623,52.995H110.785V84.806a4.3,4.3,0,0,0,4.3,4.3h13.754V55.214A2.219,2.219,0,0,0,126.623,52.995Z"/><path class="cls-34" d="M126.64,52.995H110.926V84.722a4.269,4.269,0,0,0,4.269,4.269h13.647V55.2A2.2,2.2,0,0,0,126.64,52.995Z"/><path class="cls-35" d="M126.657,52.995H111.066V84.637a4.235,4.235,0,0,0,4.235,4.235h13.54V55.179A2.184,2.184,0,0,0,126.657,52.995Z"/><path class="cls-36" d="M126.674,52.995H111.207V84.552a4.2,4.2,0,0,0,4.2,4.2h13.433V55.162A2.167,2.167,0,0,0,126.674,52.995Z"/><path class="cls-37" d="M126.692,52.995H111.347V84.467a4.168,4.168,0,0,0,4.168,4.168h13.326V55.145A2.15,2.15,0,0,0,126.692,52.995Z"/><path class="cls-38" d="M126.709,52.995H111.487V84.383a4.135,4.135,0,0,0,4.135,4.135h13.219V55.127A2.132,2.132,0,0,0,126.709,52.995Z"/><path class="cls-39" d="M126.726,52.995h-15.1V84.3a4.1,4.1,0,0,0,4.1,4.1h13.112V55.11A2.115,2.115,0,0,0,126.726,52.995Z"/><path class="cls-40" d="M126.743,52.995H111.768V84.213a4.068,4.068,0,0,0,4.068,4.068h13.005V55.093A2.1,2.1,0,0,0,126.743,52.995Z"/><path class="cls-41" d="M126.761,52.995H111.908V84.128a4.035,4.035,0,0,0,4.035,4.035h12.9V55.076A2.081,2.081,0,0,0,126.761,52.995Z"/><path class="cls-42" d="M126.778,52.995H112.049V84.044a4,4,0,0,0,4,4h12.791V55.058A2.063,2.063,0,0,0,126.778,52.995Z"/><path class="cls-43" d="M126.8,52.995H112.189V83.959a3.968,3.968,0,0,0,3.968,3.968h12.684V55.041A2.046,2.046,0,0,0,126.8,52.995Z"/><path class="cls-44" d="M126.812,52.995H112.33v30.88a3.934,3.934,0,0,0,3.934,3.934h12.577V55.024A2.029,2.029,0,0,0,126.812,52.995Z"/><path class="cls-45" d="M126.83,52.995H112.47V83.79a3.9,3.9,0,0,0,3.9,3.9h12.47V55.007A2.012,2.012,0,0,0,126.83,52.995Z"/><path class="cls-46" d="M126.847,52.995H112.61V83.7a3.867,3.867,0,0,0,3.867,3.867h12.363V54.989A1.994,1.994,0,0,0,126.847,52.995Z"/><path class="cls-47" d="M126.864,52.995H112.751V83.62a3.834,3.834,0,0,0,3.834,3.834h12.257V54.972A1.977,1.977,0,0,0,126.864,52.995Z"/><path class="cls-48" d="M126.881,52.995h-13.99V83.535a3.8,3.8,0,0,0,3.8,3.8h12.15V54.955A1.96,1.96,0,0,0,126.881,52.995Z"/><path class="cls-49" d="M126.9,52.995H113.032V83.451a3.767,3.767,0,0,0,3.767,3.767h12.043V54.938A1.943,1.943,0,0,0,126.9,52.995Z"/><path class="cls-50" d="M126.916,52.995H113.172V83.366a3.734,3.734,0,0,0,3.734,3.734h11.936V54.92A1.925,1.925,0,0,0,126.916,52.995Z"/><path class="cls-51" d="M126.933,52.995H113.312V83.281a3.7,3.7,0,0,0,3.7,3.7h11.829V54.9A1.908,1.908,0,0,0,126.933,52.995Z"/><path class="cls-52" d="M126.95,52.995h-13.5V83.2a3.667,3.667,0,0,0,3.667,3.667h11.722V54.886A1.891,1.891,0,0,0,126.95,52.995Z"/><path class="cls-53" d="M126.968,52.995H113.593V83.112a3.633,3.633,0,0,0,3.633,3.633h11.615V54.869A1.874,1.874,0,0,0,126.968,52.995Z"/><path class="cls-54" d="M126.985,52.995H113.734V83.027a3.6,3.6,0,0,0,3.6,3.6h11.508V54.851A1.856,1.856,0,0,0,126.985,52.995Z"/><path class="cls-55" d="M127,52.995H113.874V82.942a3.566,3.566,0,0,0,3.566,3.566h11.4V54.834A1.839,1.839,0,0,0,127,52.995Z"/></g><rect class="cls-4" x="113.24" y="39.296" width="55.3" height="48.256" rx="5.147" ry="5.147"/><path class="cls-8" d="M163.935,39.3h-46.09a4.6,4.6,0,0,0-4.6,4.6v5.243h55.3V43.9A4.6,4.6,0,0,0,163.935,39.3Z"/><circle class="cls-4" cx="119.458" cy="44.22" r="0.844"/><circle class="cls-4" cx="123.123" cy="44.22" r="0.844"/><circle class="cls-4" cx="123.123" cy="44.22" r="0.844"/><circle class="cls-4" cx="126.787" cy="44.22" r="0.844"/><circle class="cls-3" cx="123.966" cy="62.053" r="6.596"/><rect class="cls-2" x="134.116" y="58.499" width="30.204" height="1.777"/><rect class="cls-2" x="134.116" y="63.672" width="30.204" height="1.777"/><rect class="cls-6" x="134.116" y="68.846" width="11.326" height="1.777"/><path class="cls-14" d="M78.74,71.277H52.234v30.512H78.74a3.55,3.55,0,0,0,3.55-3.55V74.826A3.55,3.55,0,0,0,78.74,71.277Z"/><path class="cls-15" d="M78.6,71.277H52.234v30.353H78.6A3.531,3.531,0,0,0,82.132,98.1V74.808A3.531,3.531,0,0,0,78.6,71.277Z"/><path class="cls-16" d="M78.463,71.277H52.234V101.47H78.463a3.513,3.513,0,0,0,3.513-3.513V74.789A3.513,3.513,0,0,0,78.463,71.277Z"/><path class="cls-17" d="M78.324,71.277H52.234V101.31h26.09a3.494,3.494,0,0,0,3.494-3.494V74.771A3.494,3.494,0,0,0,78.324,71.277Z"/><path class="cls-18" d="M78.186,71.277H52.234v29.874H78.186a3.476,3.476,0,0,0,3.476-3.476V74.752A3.476,3.476,0,0,0,78.186,71.277Z"/><path class="cls-19" d="M78.047,71.277H52.234v29.715H78.047A3.457,3.457,0,0,0,81.5,97.534v-22.8A3.457,3.457,0,0,0,78.047,71.277Z"/><path class="cls-20" d="M77.909,71.277H52.234v29.556H77.909a3.438,3.438,0,0,0,3.438-3.439V74.715A3.438,3.438,0,0,0,77.909,71.277Z"/><path class="cls-21" d="M77.77,71.277H52.234v29.4H77.77a3.42,3.42,0,0,0,3.42-3.42V74.7A3.42,3.42,0,0,0,77.77,71.277Z"/><path class="cls-22" d="M77.632,71.277h-25.4v29.237h25.4a3.4,3.4,0,0,0,3.4-3.4V74.678A3.4,3.4,0,0,0,77.632,71.277Z"/><path class="cls-23" d="M77.494,71.277H52.234v29.077H77.494a3.383,3.383,0,0,0,3.383-3.383V74.659A3.383,3.383,0,0,0,77.494,71.277Z"/><path class="cls-24" d="M77.355,71.277H52.234v28.918H77.355a3.364,3.364,0,0,0,3.364-3.364V74.641A3.364,3.364,0,0,0,77.355,71.277Z"/><path class="cls-25" d="M77.217,71.277H52.234v28.759H77.217a3.346,3.346,0,0,0,3.346-3.346V74.622A3.346,3.346,0,0,0,77.217,71.277Z"/><path class="cls-26" d="M77.078,71.277H52.234v28.6H77.078a3.327,3.327,0,0,0,3.327-3.327V74.6A3.327,3.327,0,0,0,77.078,71.277Z"/><path class="cls-27" d="M76.94,71.277H52.234v28.44H76.94a3.309,3.309,0,0,0,3.309-3.309V74.585A3.309,3.309,0,0,0,76.94,71.277Z"/><path class="cls-28" d="M76.8,71.277H52.234v28.28H76.8a3.29,3.29,0,0,0,3.29-3.29v-21.7A3.29,3.29,0,0,0,76.8,71.277Z"/><path class="cls-29" d="M76.663,71.277H52.234V99.4H76.663a3.272,3.272,0,0,0,3.272-3.272V74.548A3.272,3.272,0,0,0,76.663,71.277Z"/><path class="cls-30" d="M76.524,71.277H52.234V99.238h24.29a3.253,3.253,0,0,0,3.253-3.253V74.53A3.253,3.253,0,0,0,76.524,71.277Z"/><path class="cls-31" d="M76.386,71.277H52.234v27.8H76.386a3.235,3.235,0,0,0,3.234-3.235V74.511A3.235,3.235,0,0,0,76.386,71.277Z"/><path class="cls-32" d="M76.247,71.277H52.234V98.92H76.247A3.216,3.216,0,0,0,79.464,95.7V74.493A3.216,3.216,0,0,0,76.247,71.277Z"/><path class="cls-33" d="M76.109,71.277H52.234V98.76H76.109a3.2,3.2,0,0,0,3.2-3.2V74.474A3.2,3.2,0,0,0,76.109,71.277Z"/><path class="cls-34" d="M75.971,71.277H52.234V98.6H75.971a3.179,3.179,0,0,0,3.179-3.179V74.456A3.179,3.179,0,0,0,75.971,71.277Z"/><path class="cls-35" d="M75.832,71.277h-23.6V98.441h23.6a3.16,3.16,0,0,0,3.16-3.16V74.437A3.16,3.16,0,0,0,75.832,71.277Z"/><path class="cls-36" d="M75.694,71.277H52.234V98.282H75.694a3.142,3.142,0,0,0,3.142-3.142V74.418A3.142,3.142,0,0,0,75.694,71.277Z"/><path class="cls-37" d="M75.555,71.277H52.234V98.123H75.555A3.123,3.123,0,0,0,78.679,95V74.4A3.123,3.123,0,0,0,75.555,71.277Z"/><path class="cls-38" d="M75.417,71.277H52.234V97.963H75.417a3.1,3.1,0,0,0,3.1-3.1V74.381A3.1,3.1,0,0,0,75.417,71.277Z"/><path class="cls-39" d="M75.278,71.277H52.234V97.8H75.278a3.086,3.086,0,0,0,3.086-3.086V74.363A3.086,3.086,0,0,0,75.278,71.277Z"/><path class="cls-40" d="M75.14,71.277H52.234V97.644H75.14a3.068,3.068,0,0,0,3.068-3.068V74.344A3.068,3.068,0,0,0,75.14,71.277Z"/><path class="cls-41" d="M75,71.277H52.234V97.485H75a3.049,3.049,0,0,0,3.049-3.049V74.326A3.049,3.049,0,0,0,75,71.277Z"/><path class="cls-42" d="M74.863,71.277H52.234V97.326H74.863A3.031,3.031,0,0,0,77.894,94.3V74.307A3.031,3.031,0,0,0,74.863,71.277Z"/><path class="cls-43" d="M74.724,71.277H52.234v25.89h22.49a3.012,3.012,0,0,0,3.012-3.012V74.289A3.012,3.012,0,0,0,74.724,71.277Z"/><path class="cls-44" d="M74.586,71.277H52.234v25.73H74.586a2.994,2.994,0,0,0,2.994-2.993V74.27A2.994,2.994,0,0,0,74.586,71.277Z"/><path class="cls-45" d="M74.448,71.277H52.234V96.848H74.448a2.975,2.975,0,0,0,2.975-2.975V74.252A2.975,2.975,0,0,0,74.448,71.277Z"/><path class="cls-46" d="M74.309,71.277H52.234V96.688H74.309a2.957,2.957,0,0,0,2.956-2.956v-19.5A2.956,2.956,0,0,0,74.309,71.277Z"/><path class="cls-47" d="M74.171,71.277H52.234V96.529H74.171a2.938,2.938,0,0,0,2.938-2.938V74.214A2.938,2.938,0,0,0,74.171,71.277Z"/><path class="cls-48" d="M74.032,71.277h-21.8V96.369h21.8a2.919,2.919,0,0,0,2.919-2.919V74.2A2.919,2.919,0,0,0,74.032,71.277Z"/><path class="cls-49" d="M73.894,71.277H52.234V96.21H73.894a2.9,2.9,0,0,0,2.9-2.9V74.177A2.9,2.9,0,0,0,73.894,71.277Z"/><path class="cls-50" d="M73.755,71.277H52.234V96.051H73.755a2.882,2.882,0,0,0,2.882-2.882V74.159A2.882,2.882,0,0,0,73.755,71.277Z"/><path class="cls-51" d="M73.617,71.277H52.234V95.891H73.617a2.864,2.864,0,0,0,2.864-2.864V74.14A2.864,2.864,0,0,0,73.617,71.277Z"/><path class="cls-52" d="M73.478,71.277H52.234V95.732H73.478a2.845,2.845,0,0,0,2.845-2.845V74.122A2.845,2.845,0,0,0,73.478,71.277Z"/><path class="cls-53" d="M73.34,71.277H52.234v24.3H73.34a2.827,2.827,0,0,0,2.827-2.827V74.1A2.827,2.827,0,0,0,73.34,71.277Z"/><path class="cls-54" d="M73.2,71.277H52.234V95.413H73.2A2.808,2.808,0,0,0,76.01,92.6V74.085A2.808,2.808,0,0,0,73.2,71.277Z"/><path class="cls-55" d="M73.063,71.277H52.234V95.254H73.063a2.79,2.79,0,0,0,2.79-2.79v-18.4A2.79,2.79,0,0,0,73.063,71.277Z"/><rect class="cls-4" x="26.917" y="66.784" width="50.635" height="29.763" rx="3.463" ry="3.463"/><circle id="_Path_5" data-name="&lt;Path&gt;" class="cls-8" cx="40.018" cy="81.666" r="8.194"/><path id="_Path_6" data-name="&lt;Path&gt;" class="cls-4" d="M43.039,82.128l-5.273,3.044a0.534,0.534,0,0,1-.8-0.462V78.622a0.534,0.534,0,0,1,.8-0.462L43.039,81.2A0.534,0.534,0,0,1,43.039,82.128Z"/><rect class="cls-2" x="51.209" y="75.087" width="22.464" height="2"/><rect class="cls-2" x="51.209" y="80.666" width="22.464" height="2"/><rect class="cls-6" x="51.209" y="86.245" width="11.232" height="2"/><g class="cls-56"><path class="cls-55" d="M128.841,100.646H110.979a2.188,2.188,0,0,0-2.188,2.188V123.8a2.188,2.188,0,0,0,2.188,2.188h17.862V100.646Z"/></g><g class="cls-57"><path class="cls-55" d="M128.841,100.646H111.1a2.173,2.173,0,0,0-2.173,2.173v20.826a2.173,2.173,0,0,0,2.173,2.173h17.743V100.646Z"/></g><g class="cls-58"><path class="cls-55" d="M128.841,100.646H111.218a2.159,2.159,0,0,0-2.159,2.159v20.686a2.158,2.158,0,0,0,2.159,2.159h17.624v-25Z"/></g><g class="cls-59"><path class="cls-55" d="M128.841,100.646h-17.5a2.144,2.144,0,0,0-2.144,2.144v20.546a2.144,2.144,0,0,0,2.144,2.144h17.5V100.646Z"/></g><g class="cls-60"><path class="cls-55" d="M128.841,100.646H111.456a2.129,2.129,0,0,0-2.13,2.13v20.406a2.129,2.129,0,0,0,2.13,2.129h17.385V100.646Z"/></g><g class="cls-61"><path class="cls-55" d="M128.841,100.646H111.575a2.115,2.115,0,0,0-2.115,2.115v20.267a2.115,2.115,0,0,0,2.115,2.115h17.266v-24.5Z"/></g><g class="cls-62"><path class="cls-55" d="M128.841,100.646H111.694a2.1,2.1,0,0,0-2.1,2.1v20.127a2.1,2.1,0,0,0,2.1,2.1h17.147V100.646Z"/></g><g class="cls-63"><path class="cls-55" d="M128.841,100.646H111.814a2.086,2.086,0,0,0-2.086,2.086v19.987a2.086,2.086,0,0,0,2.086,2.085h17.028V100.646Z"/></g><g class="cls-64"><path class="cls-55" d="M128.841,100.646H111.933a2.071,2.071,0,0,0-2.071,2.071v19.847a2.071,2.071,0,0,0,2.071,2.071h16.909V100.646Z"/></g><g class="cls-65"><path class="cls-55" d="M128.841,100.646H112.052A2.057,2.057,0,0,0,110,102.7v19.707a2.056,2.056,0,0,0,2.057,2.056h16.789v-23.82Z"/></g><g class="cls-66"><path class="cls-55" d="M128.841,100.646h-16.67a2.042,2.042,0,0,0-2.042,2.042v19.567a2.042,2.042,0,0,0,2.042,2.042h16.67V100.646Z"/></g><g class="cls-67"><path class="cls-55" d="M128.841,100.646H112.29a2.027,2.027,0,0,0-2.027,2.027V122.1a2.027,2.027,0,0,0,2.027,2.027h16.551V100.646Z"/></g><g class="cls-68"><path class="cls-55" d="M128.841,100.646H112.41a2.013,2.013,0,0,0-2.013,2.013v19.287a2.013,2.013,0,0,0,2.013,2.013h16.432V100.646Z"/></g><g class="cls-69"><path class="cls-55" d="M128.841,100.646H112.529a2,2,0,0,0-2,2v19.148a2,2,0,0,0,2,2h16.313V100.646Z"/></g><g class="cls-70"><path class="cls-55" d="M128.841,100.646H112.648a1.984,1.984,0,0,0-1.983,1.984v19.008a1.983,1.983,0,0,0,1.983,1.983h16.194V100.646Z"/></g><g class="cls-71"><path class="cls-55" d="M128.841,100.646H112.767a1.969,1.969,0,0,0-1.969,1.969v18.868a1.969,1.969,0,0,0,1.969,1.969h16.074V100.646Z"/></g><g class="cls-72"><path class="cls-55" d="M128.841,100.646H112.886a1.954,1.954,0,0,0-1.954,1.954v18.728a1.954,1.954,0,0,0,1.954,1.954h15.955V100.646Z"/></g><g class="cls-73"><path class="cls-55" d="M128.841,100.646H113.005a1.94,1.94,0,0,0-1.94,1.94v18.588a1.94,1.94,0,0,0,1.94,1.94h15.836V100.646Z"/></g><g class="cls-74"><path class="cls-55" d="M128.841,100.646H113.125a1.925,1.925,0,0,0-1.925,1.925v18.448a1.925,1.925,0,0,0,1.925,1.925h15.717v-22.3Z"/></g><g class="cls-75"><path class="cls-55" d="M128.841,100.646h-15.6a1.911,1.911,0,0,0-1.911,1.91v18.308a1.91,1.91,0,0,0,1.911,1.91h15.6V100.646Z"/></g><g class="cls-76"><path class="cls-55" d="M128.841,100.646H113.363a1.9,1.9,0,0,0-1.9,1.9V120.71a1.9,1.9,0,0,0,1.9,1.9h15.479v-21.96Z"/></g><g class="cls-77"><path class="cls-55" d="M128.841,100.646H113.482a1.881,1.881,0,0,0-1.881,1.881v18.029a1.881,1.881,0,0,0,1.881,1.881h15.359V100.646Z"/></g><g class="cls-78"><path class="cls-55" d="M128.841,100.646H113.6a1.867,1.867,0,0,0-1.867,1.867V120.4a1.867,1.867,0,0,0,1.867,1.867h15.24V100.646Z"/></g><g class="cls-79"><path class="cls-55" d="M128.841,100.646H113.72a1.852,1.852,0,0,0-1.852,1.852v17.749a1.852,1.852,0,0,0,1.852,1.852h15.121V100.646Z"/></g><g class="cls-80"><path class="cls-55" d="M128.841,100.646h-15A1.838,1.838,0,0,0,112,102.483v17.609a1.837,1.837,0,0,0,1.837,1.837h15V100.646Z"/></g><g class="cls-81"><path class="cls-55" d="M128.841,100.646H113.959a1.823,1.823,0,0,0-1.823,1.823v17.469a1.823,1.823,0,0,0,1.823,1.823h14.883V100.646Z"/></g><g class="cls-82"><path class="cls-55" d="M128.841,100.646H114.078a1.808,1.808,0,0,0-1.808,1.808v17.329a1.808,1.808,0,0,0,1.808,1.808h14.763V100.646Z"/></g><g class="cls-83"><path class="cls-55" d="M128.841,100.646H114.2a1.794,1.794,0,0,0-1.794,1.794v17.189a1.794,1.794,0,0,0,1.794,1.794h14.644V100.646Z"/></g><g class="cls-84"><path class="cls-55" d="M128.841,100.646H114.316a1.779,1.779,0,0,0-1.779,1.779v17.049a1.779,1.779,0,0,0,1.779,1.779h14.525V100.646Z"/></g><g class="cls-85"><path class="cls-55" d="M128.841,100.646H114.435a1.765,1.765,0,0,0-1.765,1.765V119.32a1.765,1.765,0,0,0,1.765,1.764h14.406V100.646Z"/></g><g class="cls-86"><path class="cls-55" d="M128.841,100.646H114.555a1.75,1.75,0,0,0-1.75,1.75v16.77a1.75,1.75,0,0,0,1.75,1.75h14.287V100.646Z"/></g><g class="cls-87"><path class="cls-55" d="M128.841,100.646H114.674a1.735,1.735,0,0,0-1.735,1.735v16.63a1.735,1.735,0,0,0,1.735,1.735h14.168v-20.1Z"/></g><g class="cls-88"><path class="cls-55" d="M128.841,100.646H114.793a1.721,1.721,0,0,0-1.721,1.721v16.49a1.721,1.721,0,0,0,1.721,1.721h14.048V100.646Z"/></g><g class="cls-89"><path class="cls-55" d="M128.841,100.646H114.912a1.706,1.706,0,0,0-1.706,1.706V118.7a1.706,1.706,0,0,0,1.706,1.706h13.929V100.646Z"/></g><g class="cls-90"><path class="cls-55" d="M128.841,100.646h-13.81a1.692,1.692,0,0,0-1.691,1.692v16.21a1.691,1.691,0,0,0,1.691,1.692h13.81V100.646Z"/></g><g class="cls-91"><path class="cls-55" d="M128.841,100.646H115.15a1.677,1.677,0,0,0-1.677,1.677v16.07a1.677,1.677,0,0,0,1.677,1.677h13.691V100.646Z"/></g><g class="cls-92"><path class="cls-55" d="M128.841,100.646H115.27a1.662,1.662,0,0,0-1.662,1.662v15.93a1.662,1.662,0,0,0,1.662,1.662h13.572V100.646Z"/></g><g class="cls-93"><path class="cls-55" d="M128.841,100.646H115.389a1.648,1.648,0,0,0-1.648,1.648v15.79a1.648,1.648,0,0,0,1.648,1.648h13.453V100.646Z"/></g><g class="cls-94"><path class="cls-55" d="M128.841,100.646H115.508a1.633,1.633,0,0,0-1.633,1.633v15.651a1.633,1.633,0,0,0,1.633,1.633h13.333V100.646Z"/></g><g class="cls-95"><path class="cls-55" d="M128.841,100.646H115.627a1.619,1.619,0,0,0-1.619,1.619v15.511a1.619,1.619,0,0,0,1.619,1.618h13.214V100.646Z"/></g><g class="cls-96"><path class="cls-55" d="M128.841,100.646h-13.1a1.6,1.6,0,0,0-1.6,1.6V117.62a1.6,1.6,0,0,0,1.6,1.6h13.1V100.646Z"/></g><path class="cls-55" d="M128.841,100.646H115.866a1.589,1.589,0,0,0-1.589,1.589v15.231a1.589,1.589,0,0,0,1.589,1.589h12.976v-18.41Z"/><rect class="cls-4" x="113.24" y="97.083" width="33.507" height="23.292" rx="2.011" ry="2.011"/><rect class="cls-6" x="115.738" y="99.32" width="28.51" height="17.779"/><polygon class="cls-10" points="120.147 105.86 115.761 112.193 115.738 117.1 127.029 117.1 120.147 105.86"/><polygon class="cls-4" points="120.841 109.16 121.235 109.812 121.93 108.808 120.147 105.86 118.125 108.779 118.75 109.812 119.228 109.121 119.992 110.385 120.841 109.16"/><polygon class="cls-10" points="125.499 114.655 128.834 109.684 133.427 117.1 127.018 117.1 125.499 114.655"/><circle class="cls-3" cx="135.83" cy="105.376" r="3.13"/><polygon class="cls-4" points="129.569 112.984 129.963 113.635 130.658 112.632 128.834 109.684 126.853 112.603 127.478 113.635 127.956 112.945 128.72 114.209 129.569 112.984"/><rect class="cls-4" x="8.434" y="127.039" width="41.923" height="36.584" rx="3.684" ry="3.684"/><path class="cls-8" d="M46.866,127.039H11.925a3.491,3.491,0,0,0-3.491,3.491V134.5H50.357V130.53A3.491,3.491,0,0,0,46.866,127.039Z"/><circle class="cls-4" cx="13.148" cy="130.771" r="0.639"/><circle class="cls-4" cx="15.926" cy="130.771" r="0.639"/><circle class="cls-4" cx="15.926" cy="130.771" r="0.639"/><circle class="cls-4" cx="18.704" cy="130.771" r="0.64"/><polygon class="cls-8" points="26.866 147.691 22.039 150.374 23.102 162.242 34.78 162.242 36.56 150.688 31.167 147.691 26.866 147.691"/><polygon class="cls-7" points="31.167 147.824 29.016 151.757 26.866 147.824 26.866 145.032 31.167 145.032 31.167 147.824"/><path class="cls-97" d="M33.02,139.235a2.327,2.327,0,0,0-.216-0.521l-0.527-1.029a1.4,1.4,0,0,0-1.209-.714,6.072,6.072,0,0,0-1.536-.54,1.985,1.985,0,0,0-.992.268,1.836,1.836,0,0,1-.392.177,3.36,3.36,0,0,1-.725.008,1.369,1.369,0,0,0-1.249,1,0.96,0.96,0,0,1-.088.272,0.943,0.943,0,0,1-.167.179c-0.737.705-.3,1.887-0.185,2.754a1.946,1.946,0,0,0,.41,1.354l-0.2-.049a3.464,3.464,0,0,0,1.814.88,10.324,10.324,0,0,0,2.04.113l2.463-.026a0.723,0.723,0,0,0,.447-0.1,0.708,0.708,0,0,0,.2-0.479c0.13-.936.044-1.87,0.123-2.82A2.328,2.328,0,0,0,33.02,139.235Z"/><path class="cls-98" d="M26.866,146.637l0.6,1.046a2.212,2.212,0,0,0,3.7.21v-2.861h-4.3v1.6Z"/><path class="cls-7" d="M26.52,140.721V144a4.208,4.208,0,0,0,.563,2.1l0.632,1.095a2.216,2.216,0,0,0,1.92,1.109h0a2.217,2.217,0,0,0,1.894-1.066l0.128-.21a4.208,4.208,0,0,0,.611-2.184v-6.038H26.6Z"/><path class="cls-7" d="M26.564,144.481l-0.658-.347a2.156,2.156,0,0,1-.373-1.707s0.24-.587.693-0.32l0.64,0.64Z"/><path class="cls-7" d="M32.109,144.481l0.658-.347a2.156,2.156,0,0,0,.373-1.707s-0.24-.587-0.694-0.32l-0.64.64Z"/><path class="cls-97" d="M26.338,141.25a10.891,10.891,0,0,1,.124,1.54c-0.006.2-.091,0.8,0.344,0.641a0.358,0.358,0,0,0,.187-0.333c0.033-.5-0.379-0.921-0.143-1.379a3.885,3.885,0,0,0,.649-0.929,2.748,2.748,0,0,0-.127-0.824,0.806,0.806,0,0,1,.154-0.609,0.545,0.545,0,0,1,.578-0.185,1.444,1.444,0,0,1,.471.405,1.289,1.289,0,0,0,1.343.269,4.79,4.79,0,0,0,.75-0.467,1.056,1.056,0,0,1,.837-0.191,1.215,1.215,0,0,1,.674,1.008,4.739,4.739,0,0,1,.146,1.4,9.656,9.656,0,0,1-.335,1.059,0.914,0.914,0,0,0-.034.264,0.988,0.988,0,0,0,.181.442,0.1,0.1,0,0,0,.045.047,0.1,0.1,0,0,0,.1-0.033,1.489,1.489,0,0,0,.373-0.88,2.351,2.351,0,0,0,.111-1.136c-0.164-.871.044-1.778-0.1-2.653a0.543,0.543,0,0,0-.09-0.252,0.56,0.56,0,0,0-.27-0.159,10.618,10.618,0,0,0-3.9-.327,2.743,2.743,0,0,0-1.341.285,1.878,1.878,0,0,0-.794,1.37A6.527,6.527,0,0,0,26.338,141.25Z"/><path class="cls-7" d="M15.013,157.408l-0.192-.548-5.788-3.708h0a1.017,1.017,0,0,1,1.256-.144l1.149,0.715,0.414-.09a1.3,1.3,0,0,1,.975.175l0.568,0.363,1.915,0.577a1.735,1.735,0,0,1,1.12,1.042l0.409,1.069Z"/><path class="cls-7" d="M43.02,157.408l0.192-.548L49,153.153h0a1.017,1.017,0,0,0-1.256-.144l-1.149.715-0.414-.09a1.3,1.3,0,0,0-.975.175l-0.567.363-1.915.577a1.735,1.735,0,0,0-1.12,1.042l-0.408,1.069Z"/><path class="cls-8" d="M26.866,147.691l-5.7,3.168a3.432,3.432,0,0,0-1.755,2.74l-0.471,6.2L17.1,156.781l-2.446.734,2.178,4.828,4.77-.1,1.326-6.6,3.934-5.839v-2.109Z"/><path class="cls-8" d="M31.167,147.691l5.7,3.168a3.432,3.432,0,0,1,1.755,2.74l0.471,6.2,1.834-3.016,2.446,0.734-2.18,4.833-4.762-.078L35.1,155.64,31.167,149.8v-2.109Z"/><polygon class="cls-4" points="26.866 147.691 25.6 148.395 27.091 153.706 29.016 151.757 26.866 147.691"/><polygon class="cls-4" points="31.167 147.691 32.432 148.395 30.942 153.706 29.016 151.757 31.167 147.691"/><path class="cls-97" d="M28.124,145.32c-0.079.158-.107,0.339-0.191,0.5a0.4,0.4,0,0,1-.428.239,0.548,0.548,0,0,1-.279-0.5A7.862,7.862,0,0,0,27.1,143.9a2.1,2.1,0,0,1-.129-0.428c-0.017-.136,0-0.276-0.023-0.41a0.31,0.31,0,0,0-.267-0.269,0.283,0.283,0,0,0-.248.233,0.876,0.876,0,0,0,.022.363,6.335,6.335,0,0,1,.132,1.785,4.282,4.282,0,0,0,.367,1.727,2.72,2.72,0,0,0,.249.565,2.1,2.1,0,0,0,1.275.859,6.25,6.25,0,0,0,1.564.139,2.522,2.522,0,0,0,1.01-.134c0.922-.394,1.214-2.129,1.313-2.983a5.148,5.148,0,0,0-.066-1.077,6.954,6.954,0,0,1,.166-1.36,0.183,0.183,0,0,0-.032-0.165,0.293,0.293,0,0,1-.164-0.108,1.017,1.017,0,0,0-.346.507,1.2,1.2,0,0,0-.018.279,3.731,3.731,0,0,1-.076,1.095,10.535,10.535,0,0,0-.3,1.258,0.53,0.53,0,0,1-.287.493,0.352,0.352,0,0,1-.374-0.237,1.3,1.3,0,0,1-.055-0.476A0.726,0.726,0,0,0,30.7,145.1a0.822,0.822,0,0,0-.6-0.213C29.43,144.832,28.517,144.533,28.124,145.32Z"/><path class="cls-7" d="M28.222,145.761H28.67a0.685,0.685,0,0,0,.452-0.17l0.272-.239,0.3,0.249a0.685,0.685,0,0,0,.44.16h0.434A1.211,1.211,0,0,1,29.278,147C28.4,146.974,28.516,146.459,28.222,145.761Z"/><polygon class="cls-4" points="14.658 157.515 17.104 156.781 17.718 157.791 15.124 158.549 14.658 157.515"/><polygon class="cls-4" points="43.421 157.515 40.975 156.781 40.361 157.791 42.954 158.549 43.421 157.515"/><circle class="cls-6" cx="14.318" cy="140.098" r="2.307"/><polygon class="cls-4" points="14.947 140.098 13.688 140.825 13.688 139.371 14.947 140.098"/><g id="_Group_" data-name="&lt;Group&gt;"><g id="_Group_2" data-name="&lt;Group&gt;"><g id="_Group_3" data-name="&lt;Group&gt;"><path id="_Rectangle_2" data-name="&lt;Rectangle&gt;" class="cls-5" d="M76.6,189.511H93.477a2.086,2.086,0,0,1,2.086,2.086V201.5a1.175,1.175,0,0,1-1.175,1.175H75.453a1.159,1.159,0,0,1-1.159-1.159v-9.7A2.307,2.307,0,0,1,76.6,189.511Z" transform="translate(169.858 392.189) rotate(180)"/></g></g><g id="_Group_4" data-name="&lt;Group&gt;"><g id="_Group_5" data-name="&lt;Group&gt;"><path id="_Path_7" data-name="&lt;Path&gt;" class="cls-5" d="M74.535,189.987l8.905-7.256a2.619,2.619,0,0,1,3.091,0l8.42,6.962Z"/></g></g><g id="_Group_6" data-name="&lt;Group&gt;"><g id="_Group_7" data-name="&lt;Group&gt;"><path id="_Path_8" data-name="&lt;Path&gt;" class="cls-4" d="M80.5,179.44l-3.116,3.026v16.612H92.136V180.69a1.25,1.25,0,0,0-1.25-1.25H80.5Z"/></g></g><g id="_Group_8" data-name="&lt;Group&gt;" class="cls-99"><g id="_Group_9" data-name="&lt;Group&gt;"><polygon id="_Path_9" data-name="&lt;Path&gt;" class="cls-3" points="80.311 182.152 77.38 185.503 77.38 182.466 80.311 182.152"/></g></g><g id="_Group_10" data-name="&lt;Group&gt;"><g id="_Group_11" data-name="&lt;Group&gt;"><path id="_Path_10" data-name="&lt;Path&gt;" class="cls-5" d="M80.5,179.44l-3.116,3.026h2.285a0.831,0.831,0,0,0,.831-0.831V179.44Z"/></g></g><g id="_Group_12" data-name="&lt;Group&gt;"><g id="_Group_13" data-name="&lt;Group&gt;"><path id="_Path_11" data-name="&lt;Path&gt;" class="cls-3" d="M74.911,202.729s8.214-5.73,8.214-6.249l-8.589-6.493a4.9,4.9,0,0,0-.241,1.7v10.462A0.585,0.585,0,0,0,74.911,202.729Z"/></g></g><g id="_Group_14" data-name="&lt;Group&gt;"><g id="_Group_15" data-name="&lt;Group&gt;"><path id="_Path_12" data-name="&lt;Path&gt;" class="cls-3" d="M95.1,202.729s-8.034-5.852-8.034-6.371l8.339-6.127a2.309,2.309,0,0,1,.311,1.455v10.462A0.585,0.585,0,0,1,95.1,202.729Z"/></g></g><g id="_Group_16" data-name="&lt;Group&gt;"><g id="_Group_17" data-name="&lt;Group&gt;"><path id="_Path_13" data-name="&lt;Path&gt;" class="cls-5" d="M74.827,202.742l8.644-7.108a2.59,2.59,0,0,1,3.056,0l8.644,7.108H74.827Z"/></g></g><g id="_Group_18" data-name="&lt;Group&gt;"><g id="_Group_19" data-name="&lt;Group&gt;"><g id="_Group_20" data-name="&lt;Group&gt;"><path id="_Compound_Path_" data-name="&lt;Compound Path&gt;" class="cls-100" d="M86.752,190.157a4.048,4.048,0,0,1-1.976.444,3.305,3.305,0,0,1-3.365-3.465,4.062,4.062,0,0,1,4.053-4.264,3.084,3.084,0,0,1,3.231,3.21c0,1.665-.933,2.643-1.976,2.643a0.822,0.822,0,0,1-.822-0.977H85.852a1.744,1.744,0,0,1-1.565.977,1.259,1.259,0,0,1-1.2-1.4,2.621,2.621,0,0,1,2.631-2.631,2.92,2.92,0,0,1,1.188.233l-0.378,2.009c-0.166.844-.033,1.233,0.333,1.244,0.567,0.011,1.2-.744,1.2-2.032a2.545,2.545,0,0,0-2.687-2.765,3.409,3.409,0,0,0-3.331,3.687,2.774,2.774,0,0,0,2.854,3,3.469,3.469,0,0,0,1.677-.389Zm-0.611-4.8a1.806,1.806,0,0,0-2.321,1.92,0.733,0.733,0,0,0,.733.845,1.772,1.772,0,0,0,1.355-1.511Z"/></g></g></g></g><path id="_Compound_Path_2" data-name="&lt;Compound Path&gt;" class="cls-8" d="M34.18,113.01h1.075a0.394,0.394,0,0,0,.393-0.394v-1.371a0.394,0.394,0,0,0-.394-0.393H34.412a0.331,0.331,0,0,1-.308-0.22q-0.045-.118-0.1-0.232a0.331,0.331,0,0,1,.062-0.374l0.594-.595a0.394,0.394,0,0,0,0-.557l-0.97-.969a0.394,0.394,0,0,0-.557,0l-0.6.6a0.325,0.325,0,0,1-.359.069c-0.086-.037-0.178-0.074-0.257-0.1a0.324,0.324,0,0,1-.206-0.3v-0.849a0.394,0.394,0,0,0-.394-0.394h-1.37a0.394,0.394,0,0,0-.394.394v0.841a0.331,0.331,0,0,1-.22.307q-0.123.047-.244,0.1a0.33,0.33,0,0,1-.374-0.06l-0.6-.593a0.394,0.394,0,0,0-.557,0l-0.966.972a0.394,0.394,0,0,0,0,.557l0.6,0.6a0.325,0.325,0,0,1,.07.359c-0.036.085-.073,0.178-0.1,0.257a0.324,0.324,0,0,1-.3.207l-0.85,0a0.394,0.394,0,0,0-.393.395l0,1.371a0.394,0.394,0,0,0,.395.393l0.841,0a0.332,0.332,0,0,1,.308.22q0.045,0.118.1,0.232a0.331,0.331,0,0,1-.061.374l-0.594.6a0.394,0.394,0,0,0,0,.557l0.971,0.967a0.394,0.394,0,0,0,.557,0l0.6-.6A0.325,0.325,0,0,1,29.1,115.3c0.085,0.036.178,0.073,0.257,0.1a0.324,0.324,0,0,1,.206.3v0.85a0.394,0.394,0,0,0,.395.393l1.37,0a0.394,0.394,0,0,0,.393-0.395v-0.841a0.331,0.331,0,0,1,.22-0.308q0.118-.044.232-0.1a0.331,0.331,0,0,1,.374.061l0.6,0.594a0.394,0.394,0,0,0,.557,0l0.968-.97a0.394,0.394,0,0,0,0-.557l-0.6-.6A0.326,0.326,0,0,1,34,113.474C34.086,113.269,34.176,113.024,34.18,113.01Zm-5.454-1.426a1.942,1.942,0,1,1,1.209,2.16A1.942,1.942,0,0,1,28.726,111.584Z"/><circle id="_Path_14" data-name="&lt;Path&gt;" class="cls-8" cx="152" cy="142.405" r="6.48"/><g id="_Group_21" data-name="&lt;Group&gt;"><polygon id="_Path_15" data-name="&lt;Path&gt;" class="cls-4" points="151.143 145.031 148.892 142.78 150.178 141.494 151.143 142.459 153.822 139.779 155.108 141.065 151.143 145.031"/></g><g id="_Group_22" data-name="&lt;Group&gt;"><polygon id="_Path_16" data-name="&lt;Path&gt;" class="cls-8" points="74.882 162.381 72.792 159.612 76.973 159.612 74.882 162.381"/><polygon id="_Path_17" data-name="&lt;Path&gt;" class="cls-8" points="70.723 162.381 68.633 159.612 72.813 159.612 70.723 162.381"/><polygon id="_Path_18" data-name="&lt;Path&gt;" class="cls-8" points="72.802 169.447 66.564 162.352 79.041 162.352 72.802 169.447"/><polygon id="_Path_19" data-name="&lt;Path&gt;" class="cls-101" points="72.802 169.447 70.723 162.352 74.904 162.352 72.802 169.447"/><polygon id="_Path_20" data-name="&lt;Path&gt;" class="cls-101" points="68.633 159.612 66.564 162.352 70.701 162.352 68.633 159.612"/><polygon id="_Path_21" data-name="&lt;Path&gt;" class="cls-101" points="72.792 159.612 70.723 162.352 74.86 162.352 72.792 159.612"/><polygon id="_Path_22" data-name="&lt;Path&gt;" class="cls-101" points="76.973 159.612 74.904 162.352 79.041 162.352 76.973 159.612"/></g></g></g></svg>