<svg xmlns="http://www.w3.org/2000/svg" xmlns:xlink="http://www.w3.org/1999/xlink" viewBox="0 0 268.246 228.947"><defs><style>.cls-1{isolation:isolate;}.cls-2{fill:#f5f5f5;}.cls-3{fill:#dfdfdf;}.cls-4,.cls-51{fill:#fff;}.cls-5{fill:#e8505b;}.cls-10,.cls-11,.cls-12,.cls-13,.cls-14,.cls-15,.cls-16,.cls-17,.cls-18,.cls-19,.cls-20,.cls-21,.cls-22,.cls-23,.cls-24,.cls-25,.cls-26,.cls-27,.cls-28,.cls-29,.cls-30,.cls-31,.cls-32,.cls-33,.cls-34,.cls-35,.cls-36,.cls-37,.cls-38,.cls-39,.cls-40,.cls-41,.cls-42,.cls-43,.cls-44,.cls-45,.cls-46,.cls-47,.cls-48,.cls-49,.cls-50,.cls-6{fill:#c5c5c5;}.cls-7{fill:#d1d1d1;}.cls-8{fill:#d6d6d6;}.cls-9{mix-blend-mode:multiply;fill:url(#radial-gradient);}.cls-10{opacity:0;}.cls-11{opacity:0.024;}.cls-12{opacity:0.049;}.cls-13{opacity:0.073;}.cls-14{opacity:0.098;}.cls-15{opacity:0.122;}.cls-16{opacity:0.146;}.cls-17{opacity:0.171;}.cls-18{opacity:0.195;}.cls-19{opacity:0.22;}.cls-20{opacity:0.244;}.cls-21{opacity:0.268;}.cls-22{opacity:0.293;}.cls-23{opacity:0.317;}.cls-24{opacity:0.341;}.cls-25{opacity:0.366;}.cls-26{opacity:0.39;}.cls-27{opacity:0.415;}.cls-28{opacity:0.439;}.cls-29{opacity:0.463;}.cls-30{opacity:0.488;}.cls-31{opacity:0.512;}.cls-32{opacity:0.537;}.cls-33{opacity:0.561;}.cls-34{opacity:0.585;}.cls-35{opacity:0.61;}.cls-36{opacity:0.634;}.cls-37{opacity:0.659;}.cls-38{opacity:0.683;}.cls-39{opacity:0.707;}.cls-40{opacity:0.732;}.cls-41{opacity:0.756;}.cls-42{opacity:0.78;}.cls-43{opacity:0.805;}.cls-44{opacity:0.829;}.cls-45{opacity:0.854;}.cls-46{opacity:0.878;}.cls-47{opacity:0.902;}.cls-48{opacity:0.927;}.cls-49{opacity:0.951;}.cls-50{opacity:0.976;}.cls-51{opacity:0.1;}.cls-52{fill:#4d5068;}.cls-53{fill:#253138;}.cls-54{fill:#231f20;opacity:0.2;}.cls-55{fill:#ffcebd;}.cls-56{fill:#dd4b5d;}.cls-57{fill:#545671;}.cls-58{fill:#3f4155;}.cls-59{fill:#f5f7f9;}.cls-60{fill:#404040;}.cls-61{fill:#525d7a;}.cls-61,.cls-63{opacity:0.15;}.cls-62,.cls-63{fill:#191c3c;}</style><radialGradient id="radial-gradient" cx="213.996" cy="175.458" r="30.401" gradientUnits="userSpaceOnUse"><stop offset="0.456" stop-color="#b2b8fa"/><stop offset="0.669" stop-color="#d3d7fc"/><stop offset="0.916" stop-color="#fff"/></radialGradient></defs><title>details-2</title><g class="cls-1"><g id="Layer_4" data-name="Layer 4"><path class="cls-2" d="M186.608,20.121c28.545,17.752,60.24,49.27,67.623,83.046,17.243,78.886-84.66,126.882-148.573,125.76-40.614-.713-82.588-22.424-98.481-59.806-10.341-24.324-8.766-52.554,0-77.49C35.093,12.2,111.668-26.483,186.608,20.121Z" transform="translate(0 0)"/></g><g id="Layer_3" data-name="Layer 3"><ellipse class="cls-3" cx="140.549" cy="209.016" rx="68" ry="6.174"/><rect class="cls-4" x="93.605" y="23.48" width="90.797" height="53.37" rx="3.463" ry="3.463"/><rect class="cls-3" x="102.496" y="29.453" width="43.812" height="3.25"/><rect class="cls-5" x="102.496" y="36.444" width="33.978" height="3.25"/><path class="cls-3" d="M98.472,69.36c2.985-4.048,6.2-9.246,9.615-12.935,1.2-1.3,2.568-2.649,4.32-2.913,2.474-.373,4.654,1.511,6.481,3.221,2.184,2.044,4.581,4.112,7.522,4.66,3.622,0.675,7.209-1.092,10.44-2.863,2.815-1.543,5.677-3.191,7.678-5.7,1.927-2.416,3.006-5.57,5.493-7.406a2.649,2.649,0,0,1,3.96.458c1.721,1.769,2.338,4.3,3.23,6.6s2.394,4.692,4.8,5.235c3.134,0.707,5.97-2.05,7.565-4.838s2.838-6.059,5.62-7.665a2.855,2.855,0,0,1,2.823-.272c0.937,0.567,1.133,1.819,1.233,2.91l1.245,13.58c0.172,1.88.3,6.388-.789,7.931H98.472Z" transform="translate(0 0)"/><path class="cls-3" d="M100.076,210.358C98.5,196.867,96.4,186.849,86.532,177.169c-4.628-4.538-10.743-7.717-14.395-13.02-4.446-6.455-4.8-15.451-10.908-20.486-6.556-5.4-17.07-3.924-23.82-9.1-4.814-3.693-6.581-9.886-10.038-14.793-5.6-7.955-16.231-12.3-26.057-10.667,9.838,2.311,16.779,12.768,14.836,22.352-1.243,6.131-5.569,11.73-5.036,17.956,1.057,12.364,19.762,17.655,21.2,29.983,0.393,3.357-.628,6.71-0.767,10.085-0.434,10.487,9.032,20.418,19.9,20.882h48.621Z" transform="translate(0 0)"/><path class="cls-6" d="M26.533,139.884a173.609,173.609,0,0,1,25.83,30.4c7.118,10.658,12.134,21.972,17.908,33.284a1.039,1.039,0,0,0,1.893-.77c-7.577-24.278-26.345-46.31-45.6-62.948-0.023-.02-0.057.012-0.034,0.033h0Z" transform="translate(0 0)"/><path class="cls-6" d="M27.371,152.406a19.452,19.452,0,0,1,8.018.651c2.721,0.835,4.575,2.55,7.068,3.7,0.278,0.128.668-.152,0.461-0.445-3.06-4.353-10.722-5.137-15.611-4.357a0.232,0.232,0,0,0,.064.456h0Z" transform="translate(0 0)"/><path class="cls-6" d="M33.408,165.973a24.137,24.137,0,0,1,11.277-.138c3.407,0.813,6.05,2.655,9.073,4.223a0.5,0.5,0,0,0,.613-0.766c-5.047-5.259-14.424-5.685-21.027-3.542a0.116,0.116,0,0,0,.064.224h0Z" transform="translate(0 0)"/><path class="cls-6" d="M40.085,183.958c10.365-1.217,17.226.79,25.052,7.5,0.466,0.4,1.289-.12.908-0.676-5.089-7.429-17.654-11.014-26.094-7.3a0.256,0.256,0,0,0,.134.476h0Z" transform="translate(0 0)"/><path class="cls-6" d="M46.713,146.314c-4.172,4.412-2.642,13.157,1.388,17.165a0.191,0.191,0,0,0,.3-0.225c-1.8-2.7-3.094-5.3-3.192-8.591-0.09-3.023,1.128-5.282,2.024-8.055a0.314,0.314,0,0,0-.523-0.294h0Z" transform="translate(0 0)"/><path class="cls-6" d="M54.5,156.221c-2.133,5.7-1.9,13.269,1.55,18.472a0.29,0.29,0,0,0,.528-0.215c-2.007-6.349-2.9-11.474-1.521-18.109a0.289,0.289,0,0,0-.558-0.148h0Z" transform="translate(0 0)"/><path class="cls-6" d="M66.538,167.117c-3.718,8-3.2,16.863.281,24.846,0.318,0.729,1.571.42,1.254-.333-3.365-8.014-3.181-15.984-.787-24.208,0.122-.417-0.554-0.722-0.748-0.3h0Z" transform="translate(0 0)"/><path class="cls-3" d="M232.719,90.873c15.19,9.406,10.464,31.4,10.259,46.6q-0.339,25.14-.677,50.28a0.785,0.785,0,0,0,1.568,0q0.4-30.046.81-60.091c0.191-14.143,2.61-29.613-11.168-38.144a0.785,0.785,0,0,0-.792,1.354h0Z" transform="translate(0 0)"/><path class="cls-3" d="M241.154,98.524a19.157,19.157,0,0,0-2.45-4.162,20.377,20.377,0,0,0-5.932-4.341l-0.316.169a18.825,18.825,0,0,0-1.241,10.175,11.3,11.3,0,0,0,5.842,8.128c2.288,1.1,4.992,1.244,7.128,2.618C244.788,106.772,243.03,102.481,241.154,98.524Z" transform="translate(0 0)"/><path class="cls-3" d="M257.065,71.846c-15.086,5.984-11.84,28.868-12.448,41.765-1.031,21.87-1.588,43.74-1.445,65.635a0.785,0.785,0,0,0,1.568,0q-0.179-27.308.942-54.6c0.345-8.22.758-16.437,1.147-24.655,0.451-9.541.012-22.412,10.652-26.633,0.927-.368.523-1.885-0.417-1.512h0Z" transform="translate(0 0)"/><path class="cls-3" d="M246.738,98.167c-0.027-.075-0.047-0.154-0.074-0.23a7.12,7.12,0,0,0-.61,1.153Z" transform="translate(0 0)"/><path class="cls-3" d="M257.924,73.178a0.774,0.774,0,0,0-1.152-.521,16.479,16.479,0,0,0-10.461,10.454,22.7,22.7,0,0,0,.352,14.826c1.875-2.961,5.684-4.441,8.351-6.9C259.75,86.682,260.476,79.085,257.924,73.178Z" transform="translate(0 0)"/><path class="cls-3" d="M231.235,179.266h26a0,0,0,0,1,0,0v20.405a5.822,5.822,0,0,1-5.822,5.822H237.057a5.822,5.822,0,0,1-5.822-5.822V179.266A0,0,0,0,1,231.235,179.266Z"/><path class="cls-3" d="M244.917,148.126c-0.236-6.06-.511-13.238,3.99-17.987,3.514-3.708,12.525-6.263,17.576-6.394a0.785,0.785,0,0,0,0-1.568c-3.852.1-7.87,1.627-11.5,2.859-2.67.906-5.2,1.909-7.186,3.995-4.835,5.065-4.7,12.591-4.449,19.1a0.785,0.785,0,0,0,1.568,0h0Z" transform="translate(0 0)"/><path class="cls-3" d="M268.175,121.545a0.49,0.49,0,0,0-.384-0.109l-5.688.048a20.063,20.063,0,0,0-4.892.444c-3.206.834-5.8,3.2-7.831,5.822l-0.59.09c2.959,0.944,5.864,2.182,8.953,2.5s6.512-.461,8.448-2.89a11.765,11.765,0,0,0,2.038-5.5A0.488,0.488,0,0,0,268.175,121.545Z" transform="translate(0 0)"/><g id="_Group_" data-name="&lt;Group&gt;"><rect id="_Rectangle_" data-name="&lt;Rectangle&gt;" class="cls-6" x="218.984" y="181.191" width="46.917" height="12.166" rx="0.496" ry="0.496"/><path id="_Path_" data-name="&lt;Path&gt;" class="cls-7" d="M264.129,191.573H220.756a1.772,1.772,0,0,1-1.772-1.772v1.785a1.772,1.772,0,0,0,1.772,1.772h43.373a1.772,1.772,0,0,0,1.772-1.772V189.8A1.772,1.772,0,0,1,264.129,191.573Z" transform="translate(0 0)"/><rect id="_Rectangle_2" data-name="&lt;Rectangle&gt;" class="cls-8" x="243.562" y="181.191" width="11.169" height="12.166"/><rect id="_Rectangle_3" data-name="&lt;Rectangle&gt;" class="cls-8" x="256.695" y="181.191" width="2.942" height="12.166" transform="translate(516.331 374.549) rotate(180)"/></g><g id="_Group_2" data-name="&lt;Group&gt;"><rect id="_Rectangle_4" data-name="&lt;Rectangle&gt;" class="cls-6" x="218.984" y="168.924" width="46.917" height="12.166" rx="0.496" ry="0.496"/><path id="_Path_2" data-name="&lt;Path&gt;" class="cls-7" d="M264.129,179.305H220.756a1.772,1.772,0,0,1-1.772-1.772v1.785a1.772,1.772,0,0,0,1.772,1.772h43.373a1.772,1.772,0,0,0,1.772-1.772v-1.785A1.772,1.772,0,0,1,264.129,179.305Z" transform="translate(0 0)"/><rect id="_Rectangle_5" data-name="&lt;Rectangle&gt;" class="cls-8" x="243.562" y="168.924" width="11.169" height="12.166"/><rect id="_Rectangle_6" data-name="&lt;Rectangle&gt;" class="cls-8" x="256.695" y="168.924" width="2.942" height="12.166" transform="translate(516.331 350.013) rotate(180)"/></g><g id="_Group_3" data-name="&lt;Group&gt;"><rect id="_Rectangle_7" data-name="&lt;Rectangle&gt;" class="cls-6" x="217.864" y="193.327" width="46.916" height="12.166" rx="0.496" ry="0.496"/><path id="_Path_3" data-name="&lt;Path&gt;" class="cls-6" d="M263.009,203.708H219.636a1.772,1.772,0,0,1-1.772-1.772v1.785a1.772,1.772,0,0,0,1.772,1.772h43.373a1.772,1.772,0,0,0,1.772-1.772v-1.785A1.772,1.772,0,0,1,263.009,203.708Z" transform="translate(0 0)"/><rect id="_Rectangle_8" data-name="&lt;Rectangle&gt;" class="cls-8" x="242.442" y="193.327" width="11.169" height="12.166"/><rect id="_Rectangle_9" data-name="&lt;Rectangle&gt;" class="cls-8" x="255.575" y="193.327" width="2.942" height="12.166" transform="translate(514.091 398.82) rotate(180)"/></g><circle class="cls-9" cx="213.996" cy="175.459" r="30.401"/><g id="_Group_4" data-name="&lt;Group&gt;"><circle id="_Path_4" data-name="&lt;Path&gt;" class="cls-6" cx="210.269" cy="178.312" r="27.669"/><circle id="_Path_5" data-name="&lt;Path&gt;" class="cls-7" cx="210.269" cy="178.312" r="24.645"/><circle id="_Path_6" data-name="&lt;Path&gt;" class="cls-6" cx="210.269" cy="178.312" r="21.752"/><g id="_Group_5" data-name="&lt;Group&gt;"><g id="_Group_6" data-name="&lt;Group&gt;"><path id="_Path_7" data-name="&lt;Path&gt;" class="cls-8" d="M213.1,189.408h-8.059a3.368,3.368,0,0,1-3.363-3.363v-1.722h4.786v0.3H213.1a2.316,2.316,0,0,0,2.313-2.313,1.507,1.507,0,0,0-1.5-1.507h-5.94a6.3,6.3,0,0,1-6.29-6.293v-0.862a7.108,7.108,0,0,1,7.1-7.1h8.059a3.368,3.368,0,0,1,3.362,3.362v1.956h-4.785v-0.533h-6.636a2.317,2.317,0,0,0-2.313,2.316v0.862a1.507,1.507,0,0,0,1.5,1.508h5.94a6.3,6.3,0,0,1,6.29,6.292A7.108,7.108,0,0,1,213.1,189.408Z" transform="translate(0 0)"/></g><g id="_Group_7" data-name="&lt;Group&gt;"><rect id="_Path_8" data-name="&lt;Path&gt;" class="cls-8" x="208.549" y="164.221" width="4.786" height="28.183"/></g></g></g><path class="cls-10" d="M157.408,96.325V96.276c-3.147.086-6.512,0.15-9.74,0.159a92.086,92.086,0,0,1-11.2-.535c-10.134-1.442-16.251-5.857-19.1-8.473V87.388c-0.15-.139-0.333-0.295-0.465-0.422-0.172.17-.405,0.374-0.609,0.563A32.975,32.975,0,0,1,97.62,95.77a133.991,133.991,0,0,1-13.866.5c-8.425,0-17.782-.291-21.67-0.426,0.176,20.641,3.425,37.709,8.069,51.7a121.856,121.856,0,0,0,19.42,36.977,97.469,97.469,0,0,0,21.052,20.1c-0.21.271,4.29,3.209,4.519,3.075l0.142-.118c0.379,0.217.723,0.409,0.985,0.55l0.024-.015c0.132-.074.365-0.218,0.527-0.312v-0.024c3.736-2.181,14.953-9.443,26.139-23.883a124.62,124.62,0,0,0,19.191-36.345c4.769-14.031,8.125-31.111,8.311-51.68C167.866,95.985,162.871,96.195,157.408,96.325Z" transform="translate(0 0)"/><path class="cls-11" d="M157.152,96.644V96.6c-3.127.086-6.471,0.161-9.679,0.158a87.913,87.913,0,0,1-11.131-.531c-10.071-1.433-16.149-5.82-18.98-8.421V87.763c-0.149-.138-0.331-0.293-0.462-0.42-0.171.169-.4,0.372-0.606,0.559a32.77,32.77,0,0,1-18.558,8.19,133.1,133.1,0,0,1-13.78.5c-8.373,0-17.672-.289-21.535-0.423,0.175,20.512,3.4,37.474,8.019,51.381a121.1,121.1,0,0,0,19.3,36.746,96.87,96.87,0,0,0,20.921,19.972c-0.209.269,4.263,3.189,4.491,3.055l0.141-.117c0.377,0.215.719,0.406,0.979,0.546l0.024-.015c0.131-.074.363-0.217,0.523-0.311V207.4c3.712-2.167,14.86-9.385,25.976-23.734a123.843,123.843,0,0,0,19.072-36.119c4.739-13.944,8.074-30.917,8.259-51.358C167.545,96.306,162.581,96.515,157.152,96.644Z" transform="translate(0 0)"/><path class="cls-12" d="M156.9,96.963V96.915c-3.107.085-6.43,0.16-9.618,0.157a87.379,87.379,0,0,1-11.061-.528c-10.008-1.424-16.048-5.784-18.861-8.368V88.138c-0.148-.137-0.329-0.291-0.459-0.417-0.17.168-.4,0.369-0.6,0.556a32.563,32.563,0,0,1-18.441,8.139,132.293,132.293,0,0,1-13.693.492c-8.32,0-17.561-.287-21.4-0.421,0.174,20.384,3.382,37.239,7.968,51.058A120.335,120.335,0,0,0,89.9,184.061a96.259,96.259,0,0,0,20.789,19.847c-0.207.268,4.236,3.169,4.463,3.036l0.14-.116c0.375,0.214.714,0.4,0.973,0.543l0.024-.015c0.13-.073.36-0.216,0.52-0.309v-0.024c3.689-2.154,14.767-9.326,25.814-23.585a123.066,123.066,0,0,0,18.952-35.892c4.709-13.857,8.024-30.723,8.207-51.036C167.223,96.627,162.291,96.835,156.9,96.963Z" transform="translate(0 0)"/><path class="cls-13" d="M156.64,97.282V97.234c-3.088.085-6.39,0.159-9.558,0.156a86.8,86.8,0,0,1-10.991-.525c-9.945-1.415-15.947-5.747-18.742-8.315V88.513c-0.147-.136-0.327-0.289-0.456-0.414-0.169.167-.4,0.367-0.6,0.552a32.359,32.359,0,0,1-18.325,8.087,131.46,131.46,0,0,1-13.607.489c-8.268,0-17.45-.285-21.266-0.418,0.173,20.255,3.361,37,7.918,50.736a119.577,119.577,0,0,0,19.057,36.286,95.66,95.66,0,0,0,20.658,19.722c-0.206.266,4.21,3.149,4.435,3.017l0.139-.115c0.372,0.213.71,0.4,0.967,0.539l0.024-.015c0.13-.073.358-0.214,0.517-0.307v-0.024c3.666-2.14,14.673-9.267,25.651-23.436a122.289,122.289,0,0,0,18.833-35.666c4.679-13.769,7.973-30.529,8.156-50.714C166.9,96.949,162,97.154,156.64,97.282Z" transform="translate(0 0)"/><path class="cls-14" d="M156.383,97.6V97.554c-3.068.084-6.349,0.158-9.5,0.155a86.269,86.269,0,0,1-10.921-.521c-9.881-1.406-15.846-5.711-18.623-8.262V88.887c-0.146-.135-0.325-0.287-0.453-0.412-0.168.166-.4,0.365-0.594,0.549A32.154,32.154,0,0,1,98.085,97.06a130.654,130.654,0,0,1-13.521.486c-8.215,0-17.339-.284-21.131-0.415,0.172,20.126,3.34,36.77,7.868,50.414A118.819,118.819,0,0,0,90.237,183.6a95.048,95.048,0,0,0,20.527,19.6c-0.2.264,4.183,3.129,4.406,3l0.138-.115c0.37,0.211.705,0.4,0.961,0.536l0.024-.015c0.129-.073.356-0.213,0.513-0.3v-0.024c3.643-2.126,14.58-9.208,25.488-23.287a121.51,121.51,0,0,0,18.713-35.439c4.65-13.682,7.922-30.336,8.1-50.392C166.58,97.27,161.71,97.474,156.383,97.6Z" transform="translate(0 0)"/><path class="cls-15" d="M156.127,97.921V97.873c-3.048.084-6.309,0.157-9.436,0.154a85.714,85.714,0,0,1-10.851-.518c-9.818-1.4-15.744-5.674-18.5-8.21V89.262c-0.145-.134-0.323-0.286-0.45-0.409-0.167.165-.392,0.362-0.59,0.545A31.948,31.948,0,0,1,98.2,97.383a129.82,129.82,0,0,1-13.434.483c-8.163,0-17.229-.282-21-0.413,0.171,20,3.318,36.535,7.817,50.092A118.058,118.058,0,0,0,90.4,183.37a94.434,94.434,0,0,0,20.4,19.471c-0.2.263,4.156,3.109,4.378,2.979l0.137-.114c0.367,0.21.7,0.4,0.954,0.533l0.023-.015c0.128-.072.354-0.211,0.51-0.3V205.9c3.619-2.113,14.487-9.149,25.325-23.139a120.739,120.739,0,0,0,18.593-35.213c4.62-13.594,7.872-30.142,8.052-50.07C166.259,97.591,161.42,97.794,156.127,97.921Z" transform="translate(0 0)"/><path class="cls-16" d="M155.871,98.24V98.193c-3.029.083-6.268,0.156-9.376,0.153a85.154,85.154,0,0,1-10.782-.515c-9.755-1.388-15.643-5.638-18.385-8.157V89.637c-0.145-.134-0.321-0.284-0.447-0.407-0.166.164-.39,0.36-0.587,0.542a31.741,31.741,0,0,1-17.976,7.933,128.929,128.929,0,0,1-13.348.48c-8.11,0-17.118-.28-20.86-0.41,0.17,19.869,3.3,36.3,7.767,49.77A117.3,117.3,0,0,0,90.57,183.14a93.835,93.835,0,0,0,20.265,19.346c-0.2.261,4.13,3.089,4.35,2.959l0.136-.113c0.365,0.209.7,0.394,0.948,0.529l0.023-.014c0.127-.072.351-0.21,0.507-0.3v-0.023c3.6-2.1,14.394-9.09,25.162-22.99a119.962,119.962,0,0,0,18.474-34.987c4.59-13.507,7.821-29.948,8-49.748C165.937,97.912,161.13,98.114,155.871,98.24Z" transform="translate(0 0)"/><path class="cls-17" d="M155.614,98.559V98.512c-3.009.083-6.227,0.155-9.315,0.152a84.633,84.633,0,0,1-10.712-.511c-9.692-1.379-15.542-5.6-18.266-8.1V90.012c-0.144-.133-0.319-0.282-0.444-0.4-0.165.163-.387,0.358-0.583,0.538a31.537,31.537,0,0,1-17.86,7.882,128.126,128.126,0,0,1-13.261.477c-8.058,0-17.007-.278-20.725-0.408,0.169,19.741,3.275,36.065,7.717,49.448a116.544,116.544,0,0,0,18.573,35.364A93.227,93.227,0,0,0,110.87,202.13c-0.2.259,4.1,3.069,4.322,2.94l0.135-.112c0.363,0.207.692,0.391,0.942,0.526l0.023-.014c0.126-.071.349-0.209,0.5-0.3v-0.023c3.573-2.086,14.3-9.031,25-22.841a119.182,119.182,0,0,0,18.354-34.76A156.983,156.983,0,0,0,168.1,98.12C165.616,98.233,160.839,98.434,155.614,98.559Z" transform="translate(0 0)"/><path class="cls-18" d="M155.358,98.878V98.831c-2.99.082-6.187,0.154-9.254,0.151a84.051,84.051,0,0,1-10.642-.508c-9.629-1.37-15.441-5.565-18.147-8.051V90.386c-0.143-.132-0.317-0.28-0.442-0.4-0.164.161-.385,0.355-0.579,0.535A31.332,31.332,0,0,1,98.55,98.351a127.291,127.291,0,0,1-13.175.473c-8.005,0-16.9-.276-20.59-0.4,0.168,19.612,3.254,35.83,7.667,49.126A115.784,115.784,0,0,0,90.9,182.679a92.621,92.621,0,0,0,20,19.1c-0.2.257,4.076,3.049,4.294,2.921l0.135-.112c0.36,0.206.687,0.389,0.936,0.522l0.023-.014c0.125-.071.347-0.207,0.5-0.3v-0.023C120.343,202.7,131,195.8,141.63,182.08a118.4,118.4,0,0,0,18.235-34.534,155.967,155.967,0,0,0,7.9-49.1C165.295,98.555,160.549,98.754,155.358,98.878Z" transform="translate(0 0)"/><path class="cls-19" d="M155.1,99.2V99.151c-2.97.082-6.146,0.153-9.194,0.15a83.5,83.5,0,0,1-10.572-.5c-9.566-1.361-15.339-5.528-18.028-8V90.761c-0.142-.131-0.315-0.278-0.439-0.4-0.163.16-.382,0.353-0.575,0.531a31.126,31.126,0,0,1-17.627,7.779,126.447,126.447,0,0,1-13.089.47c-7.953,0-16.785-.275-20.455-0.4,0.167,19.483,3.233,35.595,7.616,48.8a115.02,115.02,0,0,0,18.331,34.9,92.008,92.008,0,0,0,19.871,18.97c-0.2.256,4.049,3.029,4.266,2.9l0.134-.111c0.358,0.2.683,0.386,0.93,0.519l0.023-.014c0.125-.07.344-0.206,0.5-0.3V204.4c3.526-2.059,14.115-8.914,24.674-22.543a117.633,117.633,0,0,0,18.115-34.307,154.941,154.941,0,0,0,7.845-48.782C164.973,98.876,160.258,99.074,155.1,99.2Z" transform="translate(0 0)"/><path class="cls-20" d="M154.846,99.516V99.47c-2.95.081-6.106,0.152-9.133,0.149a82.942,82.942,0,0,1-10.5-.5c-9.5-1.352-15.238-5.492-17.909-7.946V91.136c-0.141-.13-0.313-0.276-0.436-0.4-0.162.159-.38,0.351-0.571,0.528A30.922,30.922,0,0,1,98.782,99a125.6,125.6,0,0,1-13,.467c-7.9,0-16.675-.273-20.32-0.4,0.165,19.355,3.211,35.36,7.566,48.482a114.264,114.264,0,0,0,18.21,34.673,91.4,91.4,0,0,0,19.74,18.845c-0.2.254,4.023,3.009,4.238,2.883l0.133-.11c0.356,0.2.678,0.384,0.924,0.515l0.023-.014c0.124-.07.342-0.2,0.494-0.293v-0.023c3.5-2.045,14.021-8.855,24.511-22.395a116.853,116.853,0,0,0,18-34.081,153.919,153.919,0,0,0,7.793-48.46C164.652,99.2,159.968,99.394,154.846,99.516Z" transform="translate(0 0)"/><path class="cls-21" d="M154.589,99.835V99.79c-2.931.08-6.065,0.151-9.072,0.148a82.382,82.382,0,0,1-10.433-.5c-9.439-1.343-15.137-5.455-17.79-7.893V91.511c-0.14-.129-0.311-0.275-0.433-0.393-0.161.158-.377,0.348-0.568,0.524A30.715,30.715,0,0,1,98.9,99.318a124.762,124.762,0,0,1-12.916.464c-7.848,0-16.564-.271-20.185-0.4,0.164,19.226,3.19,35.125,7.516,48.159A113.508,113.508,0,0,0,91.4,181.988a90.8,90.8,0,0,0,19.609,18.72c-0.2.252,4,2.989,4.21,2.864l0.132-.109c0.353,0.2.674,0.381,0.918,0.512l0.022-.014c0.123-.069.34-0.2,0.491-0.291v-0.023c3.48-2.031,13.928-8.8,24.348-22.246a116.079,116.079,0,0,0,17.876-33.854,152.9,152.9,0,0,0,7.741-48.138C164.33,99.518,159.678,99.714,154.589,99.835Z" transform="translate(0 0)"/><path class="cls-22" d="M154.333,100.154v-0.045c-2.911.08-6.025,0.15-9.012,0.147a81.889,81.889,0,0,1-10.363-.495c-9.376-1.334-15.036-5.419-17.671-7.84V91.886c-0.139-.128-0.309-0.273-0.43-0.391-0.159.157-.375,0.346-0.564,0.521a30.509,30.509,0,0,1-17.278,7.625,123.959,123.959,0,0,1-12.83.461c-7.8,0-16.453-.269-20.05-0.394,0.163,19.1,3.169,34.89,7.465,47.837a112.743,112.743,0,0,0,17.968,34.212,90.188,90.188,0,0,0,19.478,18.595c-0.194.251,3.969,2.969,4.181,2.845l0.131-.109c0.351,0.2.669,0.378,0.912,0.509l0.022-.014c0.122-.069.338-0.2,0.487-0.289v-0.022c3.456-2.018,13.835-8.737,24.185-22.1a115.3,115.3,0,0,0,17.756-33.628,151.871,151.871,0,0,0,7.69-47.816C164.009,99.84,159.388,100.034,154.333,100.154Z" transform="translate(0 0)"/><path class="cls-23" d="M154.077,100.473v-0.045c-2.892.079-5.984,0.149-8.951,0.146a81.307,81.307,0,0,1-10.293-.491C125.518,98.758,119.9,94.7,117.279,92.3V92.26c-0.138-.127-0.306-0.271-0.427-0.388-0.158.156-.372,0.344-0.56,0.517a30.305,30.305,0,0,1-17.161,7.574,123.126,123.126,0,0,1-12.743.458c-7.743,0-16.342-.267-19.915-0.392,0.162,18.969,3.147,34.655,7.415,47.515a111.986,111.986,0,0,0,17.847,33.982A89.579,89.579,0,0,0,111.081,200c-0.193.249,3.942,2.949,4.153,2.825l0.13-.108c0.349,0.2.665,0.376,0.905,0.505l0.022-.014c0.121-.068.335-0.2,0.484-0.287V202.9c3.433-2,13.742-8.679,24.022-21.948a114.525,114.525,0,0,0,17.637-33.4,150.85,150.85,0,0,0,7.638-47.494C163.687,100.161,159.1,100.354,154.077,100.473Z" transform="translate(0 0)"/><path class="cls-24" d="M153.82,100.793v-0.045c-2.872.079-5.944,0.148-8.89,0.145a80.752,80.752,0,0,1-10.223-.488c-9.25-1.316-14.833-5.346-17.433-7.734V92.635c-0.137-.127-0.3-0.269-0.424-0.386-0.157.155-.37,0.341-0.556,0.514a30.1,30.1,0,0,1-17.045,7.523,122.279,122.279,0,0,1-12.657.455c-7.69,0-16.231-.266-19.78-0.389,0.161,18.841,3.126,34.42,7.365,47.193A111.229,111.229,0,0,0,91.9,181.3a88.976,88.976,0,0,0,19.216,18.344c-0.192.247,3.916,2.929,4.125,2.806l0.129-.107c0.346,0.2.66,0.373,0.9,0.5l0.022-.014c0.121-.068.333-0.2,0.481-0.285V202.52c3.41-1.99,13.649-8.62,23.859-21.8a113.748,113.748,0,0,0,17.517-33.175,149.829,149.829,0,0,0,7.586-47.172C163.366,100.482,158.807,100.674,153.82,100.793Z" transform="translate(0 0)"/><path class="cls-25" d="M153.564,101.112v-0.044c-2.853.078-5.9,0.147-8.83,0.144a80.19,80.19,0,0,1-10.154-.485c-9.187-1.307-14.732-5.309-17.314-7.682V93.01c-0.136-.126-0.3-0.267-0.421-0.383-0.156.154-.367,0.339-0.552,0.51a29.893,29.893,0,0,1-16.929,7.471,121.43,121.43,0,0,1-12.57.452c-7.638,0-16.121-.264-19.645-0.386,0.16,18.712,3.1,34.185,7.315,46.871a110.47,110.47,0,0,0,17.605,33.521,88.367,88.367,0,0,0,19.084,18.219c-0.19.246,3.889,2.909,4.1,2.787l0.128-.107c0.344,0.2.656,0.371,0.893,0.5l0.022-.013c0.12-.067.331-0.2,0.477-0.283v-0.022c3.387-1.977,13.555-8.561,23.7-21.651a112.973,112.973,0,0,0,17.4-32.949A148.807,148.807,0,0,0,165.4,100.7C163.045,100.8,158.517,100.994,153.564,101.112Z" transform="translate(0 0)"/><path class="cls-26" d="M153.308,101.431v-0.044c-2.833.078-5.862,0.146-8.769,0.143a79.636,79.636,0,0,1-10.084-.481c-9.124-1.3-14.631-5.273-17.2-7.629V93.385c-0.135-.125-0.3-0.265-0.418-0.38-0.155.153-.365,0.337-0.549,0.507a29.687,29.687,0,0,1-16.812,7.42A120.6,120.6,0,0,1,87,101.38c-7.585,0-16.01-.262-19.51-0.384,0.159,18.583,3.083,33.95,7.264,46.549a109.708,109.708,0,0,0,17.484,33.291,87.759,87.759,0,0,0,18.953,18.094c-0.189.244,3.862,2.889,4.069,2.768l0.127-.106c0.342,0.2.651,0.368,0.887,0.495l0.022-.013c0.119-.067.329-0.2,0.474-0.281V201.77c3.363-1.963,13.462-8.5,23.534-21.5a112.2,112.2,0,0,0,17.278-32.722,147.782,147.782,0,0,0,7.482-46.529C162.723,101.125,158.226,101.313,153.308,101.431Z" transform="translate(0 0)"/><path class="cls-27" d="M153.051,101.75v-0.044c-2.813.077-5.822,0.145-8.708,0.142a79.082,79.082,0,0,1-10.014-.478c-9.061-1.289-14.529-5.236-17.076-7.576V93.76c-0.134-.124-0.3-0.264-0.415-0.378-0.154.152-.362,0.334-0.545,0.5a29.483,29.483,0,0,1-16.7,7.369,119.791,119.791,0,0,1-12.4.446c-7.533,0-15.9-.26-19.375-0.381,0.158,18.455,3.062,33.715,7.214,46.227A108.949,108.949,0,0,0,92.4,180.605a87.153,87.153,0,0,0,18.822,17.969c-0.188.242,3.835,2.869,4.04,2.749l0.127-.105c0.339,0.194.647,0.366,0.881,0.492l0.021-.013c0.118-.066.326-0.2,0.471-0.279v-0.022c3.34-1.95,13.369-8.443,23.371-21.353a111.421,111.421,0,0,0,17.159-32.5,146.764,146.764,0,0,0,7.431-46.207C162.4,101.446,157.936,101.633,153.051,101.75Z" transform="translate(0 0)"/><path class="cls-28" d="M152.8,102.069v-0.044c-2.794.077-5.781,0.144-8.647,0.141a78.531,78.531,0,0,1-9.944-.475c-9-1.28-14.428-5.2-16.957-7.523V94.134c-0.133-.123-0.3-0.262-0.413-0.375-0.153.151-.36,0.332-0.541,0.5a29.278,29.278,0,0,1-16.58,7.317,118.957,118.957,0,0,1-12.311.442c-7.48,0-15.788-.258-19.24-0.378,0.157,18.326,3.041,33.481,7.164,45.9a108.194,108.194,0,0,0,17.242,32.83,86.55,86.55,0,0,0,18.691,17.843c-0.186.24,3.809,2.849,4.012,2.73l0.126-.1c0.337,0.192.642,0.363,0.875,0.488l0.021-.013c0.117-.066.324-0.194,0.467-0.277V201.02c3.317-1.936,13.276-8.384,23.208-21.2a110.644,110.644,0,0,0,17.039-32.269,145.74,145.74,0,0,0,7.379-45.885C162.08,101.767,157.646,101.953,152.8,102.069Z" transform="translate(0 0)"/><path class="cls-29" d="M152.539,102.388v-0.043c-2.774.076-5.741,0.143-8.587,0.14a78.025,78.025,0,0,1-9.874-.471c-8.934-1.271-14.327-5.163-16.838-7.471V94.509c-0.132-.122-0.294-0.26-0.41-0.372-0.152.15-.357,0.33-0.537,0.5A29.072,29.072,0,0,1,99.828,101.9a118.119,118.119,0,0,1-12.225.439c-7.428,0-15.677-.256-19.105-0.375a147.808,147.808,0,0,0,7.114,45.582,107.427,107.427,0,0,0,17.121,32.6,85.934,85.934,0,0,0,18.56,17.718c-0.185.239,3.782,2.829,3.984,2.711l0.125-.1c0.334,0.191.638,0.361,0.869,0.485l0.021-.013c0.116-.066.322-0.192,0.464-0.276v-0.021c3.293-1.923,13.183-8.325,23.045-21.056a109.871,109.871,0,0,0,16.919-32.043,144.713,144.713,0,0,0,7.327-45.563C161.759,102.088,157.355,102.273,152.539,102.388Z" transform="translate(0 0)"/><path class="cls-30" d="M152.283,102.707v-0.043c-2.754.075-5.7,0.142-8.526,0.139a77.442,77.442,0,0,1-9.8-.468c-8.871-1.262-14.226-5.127-16.719-7.418V94.884c-0.131-.121-0.292-0.258-0.407-0.37-0.151.149-.355,0.327-0.533,0.493a28.867,28.867,0,0,1-16.347,7.214,117.262,117.262,0,0,1-12.138.436c-7.375,0-15.567-.255-18.97-0.373a146.765,146.765,0,0,0,7.063,45.26,106.674,106.674,0,0,0,17,32.369,85.331,85.331,0,0,0,18.429,17.593c-0.184.237,3.755,2.809,3.956,2.691l0.124-.1c0.332,0.19.633,0.358,0.862,0.481l0.021-.013c0.116-.065.319-0.191,0.461-0.274v-0.021c3.27-1.909,13.09-8.267,22.882-20.907a109.1,109.1,0,0,0,16.8-31.816,143.7,143.7,0,0,0,7.276-45.241C161.437,102.41,157.065,102.593,152.283,102.707Z" transform="translate(0 0)"/><path class="cls-31" d="M152.026,103.026v-0.043c-2.735.075-5.66,0.141-8.466,0.138a76.887,76.887,0,0,1-9.735-.465c-8.808-1.253-14.125-5.09-16.6-7.365V95.259c-0.131-.12-0.29-0.256-0.4-0.367-0.15.148-.352,0.325-0.53,0.489a28.661,28.661,0,0,1-16.231,7.163,116.428,116.428,0,0,1-12.052.433c-7.323,0-15.456-.253-18.835-0.37a145.721,145.721,0,0,0,7.013,44.938,105.916,105.916,0,0,0,16.879,32.139,84.727,84.727,0,0,0,18.3,17.468c-0.183.236,3.729,2.789,3.928,2.672l0.123-.1c0.33,0.188.629,0.356,0.856,0.478l0.021-.013c0.115-.065.317-0.19,0.458-0.272v-0.021c3.247-1.9,13-8.208,22.719-20.758a108.312,108.312,0,0,0,16.68-31.59,142.671,142.671,0,0,0,7.224-44.919C161.116,102.731,156.775,102.913,152.026,103.026Z" transform="translate(0 0)"/><path class="cls-32" d="M151.77,103.346V103.3c-2.715.074-5.619,0.14-8.4,0.137a76.333,76.333,0,0,1-9.665-.461c-8.745-1.244-14.023-5.054-16.481-7.312V95.634c-0.13-.12-0.288-0.254-0.4-0.365-0.149.147-.349,0.323-0.526,0.486a28.456,28.456,0,0,1-16.114,7.112,115.626,115.626,0,0,1-11.966.43c-7.27,0-15.345-.251-18.7-0.368a144.677,144.677,0,0,0,6.963,44.616,105.155,105.155,0,0,0,16.758,31.908A84.124,84.124,0,0,0,111.4,196.8c-0.181.234,3.7,2.769,3.9,2.653l0.122-.1c0.327,0.187.624,0.353,0.85,0.474l0.021-.013c0.114-.064.315-0.188,0.454-0.27v-0.021c3.224-1.882,12.9-8.149,22.556-20.609a107.534,107.534,0,0,0,16.561-31.363,141.648,141.648,0,0,0,7.172-44.6C160.794,103.052,156.484,103.233,151.77,103.346Z" transform="translate(0 0)"/><path class="cls-33" d="M151.514,103.665v-0.042c-2.7.074-5.578,0.139-8.344,0.136a75.785,75.785,0,0,1-9.6-.458c-8.682-1.236-13.922-5.017-16.362-7.259V96.008c-0.129-.119-0.286-0.253-0.4-0.362-0.148.146-.347,0.32-0.522,0.482a28.25,28.25,0,0,1-16,7.061,114.79,114.79,0,0,1-11.879.427c-7.218,0-15.234-.249-18.565-0.365a143.634,143.634,0,0,0,6.913,44.294A104.394,104.394,0,0,0,93.4,179.223a83.5,83.5,0,0,0,18.035,17.217c-0.18.232,3.675,2.749,3.872,2.634l0.121-.1c0.325,0.186.62,0.35,0.844,0.471l0.021-.013c0.113-.064.313-0.187,0.451-0.268v-0.021c3.2-1.868,12.81-8.09,22.394-20.46a106.764,106.764,0,0,0,16.441-31.137,140.628,140.628,0,0,0,7.12-44.275C160.473,103.373,156.194,103.553,151.514,103.665Z" transform="translate(0 0)"/><path class="cls-34" d="M151.257,103.984v-0.042c-2.676.073-5.538,0.138-8.283,0.135a75.251,75.251,0,0,1-9.525-.455c-8.619-1.227-13.821-4.981-16.243-7.207V96.383c-0.128-.118-0.284-0.251-0.4-0.359-0.147.145-.344,0.318-0.518,0.479a28.045,28.045,0,0,1-15.882,7.009,113.9,113.9,0,0,1-11.793.424c-7.165,0-15.124-.247-18.43-0.362a142.586,142.586,0,0,0,6.862,43.972,103.633,103.633,0,0,0,16.516,31.448,82.9,82.9,0,0,0,17.9,17.092c-0.178.23,3.648,2.729,3.843,2.615l0.12-.1c0.323,0.184.615,0.348,0.838,0.467l0.02-.013c0.112-.063.31-0.186,0.448-0.266v-0.021c3.177-1.855,12.717-8.031,22.231-20.312a105.984,105.984,0,0,0,16.322-30.911,139.6,139.6,0,0,0,7.068-43.953C160.152,103.695,155.9,103.873,151.257,103.984Z" transform="translate(0 0)"/><path class="cls-35" d="M151,104.3v-0.041c-2.656.073-5.5,0.137-8.223,0.134a74.669,74.669,0,0,1-9.456-.451C124.766,102.727,119.6,99,117.2,96.791V96.758c-0.127-.117-0.282-0.249-0.392-0.357-0.146.143-.342,0.316-0.514,0.475a27.838,27.838,0,0,1-15.765,6.958,113.1,113.1,0,0,1-11.707.421c-7.113,0-15.013-.246-18.3-0.36a141.546,141.546,0,0,0,6.812,43.65,102.882,102.882,0,0,0,16.4,31.217A82.3,82.3,0,0,0,111.5,195.729c-0.177.229,3.622,2.709,3.815,2.6l0.119-.1c0.32,0.183.611,0.345,0.832,0.464l0.02-.013c0.111-.063.308-0.184,0.445-0.264v-0.02c3.154-1.841,12.624-7.973,22.068-20.163a105.2,105.2,0,0,0,16.2-30.684,138.575,138.575,0,0,0,7.016-43.631C159.83,104.016,155.613,104.193,151,104.3Z" transform="translate(0 0)"/><path class="cls-36" d="M150.745,104.622v-0.041c-2.637.072-5.457,0.136-8.162,0.133a74.115,74.115,0,0,1-9.386-.448c-8.492-1.209-13.618-4.908-16.005-7.1V97.133c-0.126-.116-0.28-0.247-0.39-0.354-0.145.142-.339,0.313-0.511,0.472a27.633,27.633,0,0,1-15.649,6.906,112.261,112.261,0,0,1-11.62.418c-7.06,0-14.9-.244-18.16-0.357a140.5,140.5,0,0,0,6.762,43.328A102.115,102.115,0,0,0,93.9,178.532a81.685,81.685,0,0,0,17.642,16.842c-0.176.227,3.6,2.689,3.787,2.576l0.119-.1c0.318,0.182.606,0.343,0.826,0.461l0.02-.012c0.111-.062.306-0.183,0.441-0.262v-0.02c3.131-1.828,12.531-7.914,21.905-20.014a104.435,104.435,0,0,0,16.082-30.458,137.558,137.558,0,0,0,6.965-43.309C159.509,104.337,155.323,104.513,150.745,104.622Z" transform="translate(0 0)"/><path class="cls-37" d="M150.489,104.941V104.9c-2.617.072-5.416,0.135-8.1,0.132a73.589,73.589,0,0,1-9.316-.445c-8.429-1.2-13.517-4.871-15.886-7.048V97.508c-0.125-.115-0.277-0.245-0.387-0.351-0.143.141-.337,0.311-0.507,0.468a27.428,27.428,0,0,1-15.532,6.855,111.459,111.459,0,0,1-11.534.414c-7.008,0-14.791-.242-18.025-0.354a139.45,139.45,0,0,0,6.711,43.005A101.358,101.358,0,0,0,94.064,178.3a81.079,81.079,0,0,0,17.51,16.717c-0.175.225,3.568,2.669,3.759,2.557l0.118-.1c0.315,0.18.6,0.34,0.82,0.457l0.02-.012c0.11-.062.3-0.182,0.438-0.26v-0.02c3.107-1.814,12.437-7.855,21.742-19.865a103.655,103.655,0,0,0,15.963-30.231,136.536,136.536,0,0,0,6.913-42.987C159.187,104.658,155.033,104.833,150.489,104.941Z" transform="translate(0 0)"/><path class="cls-38" d="M150.232,105.26v-0.04c-2.6.071-5.376,0.134-8.041,0.131a73.03,73.03,0,0,1-9.246-.441c-8.366-1.19-13.416-4.835-15.767-7V97.882c-0.124-.115-0.275-0.243-0.384-0.349-0.142.14-.334,0.309-0.5,0.465a27.222,27.222,0,0,1-15.416,6.8,110.62,110.62,0,0,1-11.447.411c-6.955,0-14.68-.24-17.89-0.352A138.411,138.411,0,0,0,78.2,147.545,100.6,100.6,0,0,0,94.23,178.071a80.469,80.469,0,0,0,17.379,16.591c-0.173.224,3.542,2.649,3.731,2.538l0.117-.1c0.313,0.179.6,0.338,0.813,0.454l0.02-.012c0.109-.061.3-0.18,0.435-0.258v-0.02c3.084-1.8,12.344-7.8,21.579-19.716a102.878,102.878,0,0,0,15.843-30,135.507,135.507,0,0,0,6.861-42.665C158.866,104.979,154.742,105.153,150.232,105.26Z" transform="translate(0 0)"/><path class="cls-39" d="M149.976,105.579v-0.04c-2.578.071-5.335,0.133-7.98,0.13a72.509,72.509,0,0,1-9.177-.438,28.823,28.823,0,0,1-15.648-6.943V98.257c-0.123-.114-0.273-0.241-0.381-0.346-0.141.139-.332,0.306-0.5,0.461a27.017,27.017,0,0,1-15.3,6.752,109.733,109.733,0,0,1-11.361.408c-6.9,0-14.569-.238-17.755-0.349a137.364,137.364,0,0,0,6.611,42.361,99.841,99.841,0,0,0,15.911,30.3,79.867,79.867,0,0,0,17.248,16.466c-0.172.222,3.515,2.629,3.7,2.519l0.116-.1c0.311,0.177.593,0.335,0.807,0.45l0.02-.012c0.108-.061.3-0.179,0.431-0.256v-0.02c3.061-1.787,12.251-7.737,21.416-19.567a102.1,102.1,0,0,0,15.724-29.778,134.494,134.494,0,0,0,6.809-42.343C158.544,105.3,154.452,105.473,149.976,105.579Z" transform="translate(0 0)"/><path class="cls-40" d="M149.72,105.9v-0.04c-2.558.07-5.294,0.132-7.919,0.129a71.926,71.926,0,0,1-9.107-.435,28.6,28.6,0,0,1-15.529-6.89V98.632c-0.122-.113-0.271-0.24-0.378-0.343-0.14.138-.329,0.3-0.5,0.458a26.813,26.813,0,0,1-15.184,6.7,108.926,108.926,0,0,1-11.274.405c-6.85,0-14.459-.237-17.62-0.346a136.323,136.323,0,0,0,6.561,42.039,99.08,99.08,0,0,0,15.79,30.065,79.255,79.255,0,0,0,17.117,16.341c-0.171.22,3.488,2.609,3.674,2.5l0.115-.1c0.309,0.176.588,0.333,0.8,0.447l0.02-.012c0.107-.06.3-0.177,0.428-0.254v-0.02c3.038-1.773,12.158-7.678,21.254-19.419a101.325,101.325,0,0,0,15.6-29.552,133.464,133.464,0,0,0,6.758-42.021C158.223,105.622,154.162,105.792,149.72,105.9Z" transform="translate(0 0)"/><path class="cls-41" d="M149.464,106.218v-0.04c-2.539.07-5.254,0.131-7.859,0.128a71.371,71.371,0,0,1-9.037-.431,28.385,28.385,0,0,1-15.41-6.837V99.007c-0.121-.112-0.269-0.238-0.375-0.341-0.139.137-.327,0.3-0.492,0.454a26.607,26.607,0,0,1-15.067,6.65,108.093,108.093,0,0,1-11.188.4c-6.8,0-14.348-.235-17.485-0.344a135.28,135.28,0,0,0,6.51,41.717A98.321,98.321,0,0,0,94.729,177.38,78.649,78.649,0,0,0,111.715,193.6c-0.169.219,3.461,2.589,3.646,2.481l0.114-.095c0.306,0.175.584,0.33,0.795,0.443l0.02-.012c0.107-.06.294-0.176,0.425-0.252v-0.02c3.014-1.76,12.065-7.619,21.091-19.27a100.551,100.551,0,0,0,15.485-29.326,132.443,132.443,0,0,0,6.706-41.7C157.9,105.943,153.872,106.112,149.464,106.218Z" transform="translate(0 0)"/><path class="cls-42" d="M149.207,106.537V106.5c-2.519.069-5.213,0.13-7.8,0.128a70.811,70.811,0,0,1-8.967-.428,28.165,28.165,0,0,1-15.291-6.784V99.382c-0.12-.111-0.267-0.236-0.372-0.338-0.138.136-.324,0.3-0.488,0.451a26.4,26.4,0,0,1-14.951,6.6,107.29,107.29,0,0,1-11.1.4c-6.746,0-14.237-.233-17.35-0.341a134.228,134.228,0,0,0,6.46,41.395A97.563,97.563,0,0,0,94.9,177.15a78.041,78.041,0,0,0,16.855,16.09c-0.168.217,3.435,2.57,3.618,2.462l0.113-.094c0.3,0.173.579,0.328,0.789,0.44l0.019-.012c0.106-.059.292-0.175,0.422-0.25v-0.019c2.991-1.746,11.972-7.561,20.928-19.121A99.771,99.771,0,0,0,153,147.546a131.424,131.424,0,0,0,6.654-41.377C157.58,106.264,153.581,106.432,149.207,106.537Z" transform="translate(0 0)"/><path class="cls-43" d="M148.951,106.856v-0.039c-2.5.069-5.173,0.129-7.737,0.127a70.256,70.256,0,0,1-8.9-.425,27.945,27.945,0,0,1-15.172-6.731V99.756c-0.119-.11-0.265-0.234-0.369-0.336-0.137.135-.322,0.3-0.484,0.447a26.194,26.194,0,0,1-14.835,6.547,106.4,106.4,0,0,1-11.015.4c-6.693,0-14.126-.231-17.215-0.338a133.188,133.188,0,0,0,6.41,41.073,96.8,96.8,0,0,0,15.427,29.374,77.437,77.437,0,0,0,16.724,15.965c-0.167.215,3.408,2.549,3.59,2.442l0.112-.093c0.3,0.172.575,0.325,0.783,0.437l0.019-.012c0.1-.059.29-0.173,0.418-0.248v-0.019c2.968-1.732,11.878-7.5,20.765-18.972a99,99,0,0,0,15.245-28.873,130.4,130.4,0,0,0,6.6-41.055C157.259,106.586,153.291,106.752,148.951,106.856Z" transform="translate(0 0)"/><path class="cls-44" d="M148.695,107.175v-0.039c-2.48.068-5.132,0.128-7.677,0.126a69.763,69.763,0,0,1-8.828-.421,27.728,27.728,0,0,1-15.053-6.679v-0.031c-0.118-.109-0.263-0.232-0.366-0.333-0.136.134-.319,0.295-0.48,0.444a25.99,25.99,0,0,1-14.718,6.5,105.564,105.564,0,0,1-10.929.393c-6.64,0-14.016-.229-17.08-0.336a132.14,132.14,0,0,0,6.36,40.751,96.045,96.045,0,0,0,15.306,29.144,76.828,76.828,0,0,0,16.592,15.84c-0.165.214,3.381,2.529,3.562,2.423l0.112-.093c0.3,0.171.57,0.322,0.777,0.433l0.019-.012c0.1-.059.288-0.172,0.415-0.246v-0.019c2.944-1.719,11.785-7.443,20.6-18.824a98.22,98.22,0,0,0,15.126-28.646,129.378,129.378,0,0,0,6.55-40.733C156.937,106.907,153,107.072,148.695,107.175Z" transform="translate(0 0)"/><path class="cls-45" d="M148.438,107.494v-0.038c-2.46.067-5.092,0.127-7.616,0.124a69.182,69.182,0,0,1-8.758-.418,27.508,27.508,0,0,1-14.934-6.626v-0.03c-0.117-.108-0.261-0.23-0.363-0.33-0.135.133-.317,0.292-0.476,0.44a25.784,25.784,0,0,1-14.6,6.444,104.761,104.761,0,0,1-10.843.39c-6.588,0-13.9-.228-16.945-0.333a131.1,131.1,0,0,0,6.309,40.428,95.285,95.285,0,0,0,15.185,28.914,76.22,76.22,0,0,0,16.461,15.715c-0.164.212,3.354,2.509,3.534,2.4l0.111-.092c0.3,0.17.566,0.32,0.77,0.43l0.019-.012c0.1-.058.285-0.171,0.412-0.244v-0.019c2.921-1.705,11.692-7.384,20.439-18.675a97.442,97.442,0,0,0,15.006-28.42,128.351,128.351,0,0,0,6.5-40.411C156.616,107.228,152.71,107.392,148.438,107.494Z" transform="translate(0 0)"/><path class="cls-46" d="M148.182,107.813v-0.038c-2.441.067-5.051,0.126-7.555,0.123a68.627,68.627,0,0,1-8.688-.415,27.289,27.289,0,0,1-14.815-6.573v-0.03c-0.116-.108-0.259-0.229-0.36-0.328-0.134.132-.314,0.29-0.473,0.437a25.579,25.579,0,0,1-14.485,6.393,103.925,103.925,0,0,1-10.756.386c-6.536,0-13.794-.226-16.81-0.33A130.057,130.057,0,0,0,80.5,147.545a94.529,94.529,0,0,0,15.064,28.683,75.621,75.621,0,0,0,16.33,15.59c-0.163.21,3.328,2.489,3.506,2.385l0.11-.091c0.294,0.168.561,0.317,0.764,0.426l0.019-.011c0.1-.058.283-0.169,0.409-0.242v-0.019c2.9-1.692,11.6-7.325,20.277-18.526a96.672,96.672,0,0,0,14.887-28.193,127.331,127.331,0,0,0,6.447-40.089C156.294,107.549,152.42,107.712,148.182,107.813Z" transform="translate(0 0)"/><path class="cls-47" d="M147.926,108.132v-0.038c-2.421.066-5.01,0.125-7.494,0.122a68.067,68.067,0,0,1-8.618-.411,27.07,27.07,0,0,1-14.7-6.52v-0.03c-0.116-.107-0.256-0.227-0.358-0.325-0.133.131-.312,0.288-0.469,0.433a25.374,25.374,0,0,1-14.369,6.342,103.129,103.129,0,0,1-10.67.383c-6.483,0-13.683-.224-16.675-0.328a129.01,129.01,0,0,0,6.209,39.784A93.765,93.765,0,0,0,95.727,176a75,75,0,0,0,16.2,15.464c-0.162.209,3.3,2.47,3.477,2.366l0.109-.09c0.292,0.167.557,0.315,0.758,0.423l0.019-.011c0.1-.057.281-0.168,0.405-0.24V193.89c2.874-1.678,11.506-7.267,20.114-18.377a95.9,95.9,0,0,0,14.767-27.967,126.309,126.309,0,0,0,6.4-39.767C155.973,107.871,152.13,108.032,147.926,108.132Z" transform="translate(0 0)"/><path class="cls-48" d="M147.67,108.451v-0.037c-2.4.066-4.97,0.123-7.434,0.121a67.512,67.512,0,0,1-8.549-.408,26.852,26.852,0,0,1-14.578-6.467v-0.03c-0.115-.106-0.254-0.225-0.355-0.322-0.132.13-.309,0.285-0.465,0.43a25.168,25.168,0,0,1-14.253,6.29,102.232,102.232,0,0,1-10.583.38c-6.43,0-13.572-.222-16.54-0.325a127.965,127.965,0,0,0,6.159,39.462,93,93,0,0,0,14.822,28.222,74.4,74.4,0,0,0,16.068,15.339c-0.16.207,3.274,2.45,3.449,2.347l0.108-.09c0.29,0.165.552,0.312,0.752,0.42l0.018-.011c0.1-.057.279-0.166,0.4-0.238v-0.019c2.851-1.664,11.413-7.208,19.951-18.228a95.115,95.115,0,0,0,14.648-27.74,125.284,125.284,0,0,0,6.343-39.445C155.651,108.192,151.839,108.352,147.67,108.451Z" transform="translate(0 0)"/><path class="cls-49" d="M147.413,108.77v-0.037c-2.382.065-4.929,0.122-7.373,0.12a66.957,66.957,0,0,1-8.479-.4,26.632,26.632,0,0,1-14.459-6.415v-0.029c-0.114-.105-0.252-0.223-0.352-0.32-0.13.129-.307,0.283-0.461,0.426a24.962,24.962,0,0,1-14.136,6.239,101.4,101.4,0,0,1-10.5.377c-6.378,0-13.462-.22-16.4-0.322a126.918,126.918,0,0,0,6.108,39.14,92.251,92.251,0,0,0,14.7,27.992A73.793,73.793,0,0,0,112,190.751c-0.159.205,3.248,2.429,3.421,2.327l0.107-.089c0.287,0.164.548,0.31,0.746,0.416l0.018-.011c0.1-.056.276-0.165,0.4-0.237V193.14c2.828-1.651,11.32-7.149,19.788-18.08A94.337,94.337,0,0,0,151,147.546a124.266,124.266,0,0,0,6.292-39.123C155.33,108.513,151.549,108.672,147.413,108.77Z" transform="translate(0 0)"/><path class="cls-50" d="M147.157,109.09v-0.037c-2.362.065-4.889,0.121-7.313,0.119a66.409,66.409,0,0,1-8.409-.4,26.413,26.413,0,0,1-14.34-6.362V102.38c-0.113-.1-0.25-0.221-0.349-0.317-0.129.128-.3,0.281-0.458,0.423a24.757,24.757,0,0,1-14.02,6.188,100.594,100.594,0,0,1-10.411.374c-6.326,0-13.351-.218-16.27-0.32a125.873,125.873,0,0,0,6.058,38.818,91.49,91.49,0,0,0,14.58,27.762A73.191,73.191,0,0,0,112.031,190.4c-0.158.2,3.221,2.409,3.393,2.308l0.106-.088c0.285,0.163.543,0.307,0.74,0.413l0.018-.011c0.1-.056.274-0.164,0.4-0.235v-0.018c2.8-1.637,11.226-7.09,19.625-17.931a93.563,93.563,0,0,0,14.409-27.288,123.237,123.237,0,0,0,6.24-38.8C155.008,108.834,151.259,108.992,147.157,109.09Z" transform="translate(0 0)"/><path class="cls-6" d="M146.9,109.409v-0.036c-2.343.064-4.848,0.112-7.252,0.119a68.575,68.575,0,0,1-8.339-.4,26.194,26.194,0,0,1-14.221-6.309v-0.029c-0.112-.1-0.248-0.219-0.346-0.314-0.128.127-.3,0.278-0.454,0.419a24.553,24.553,0,0,1-13.9,6.136,99.76,99.76,0,0,1-10.324.371c-6.273,0-13.24-.217-16.135-0.317a124.83,124.83,0,0,0,6.008,38.5,90.731,90.731,0,0,0,14.459,27.531,72.574,72.574,0,0,0,15.674,14.963c-0.156.2,3.194,2.39,3.365,2.289l0.105-.087c0.282,0.161.539,0.3,0.734,0.409l0.018-.011c0.1-.055.272-0.163,0.392-0.233v-0.018c2.781-1.624,11.133-7.031,19.462-17.782a92.791,92.791,0,0,0,14.289-27.061,122.223,122.223,0,0,0,6.188-38.479C154.687,109.155,150.968,109.312,146.9,109.409Z" transform="translate(0 0)"/><path class="cls-4" d="M139.851,102.782a88.931,88.931,0,0,1-11.373-.513c-9.387-1.371-15.053-5.569-17.692-8.057V94.176c-0.139-.132-0.309-0.28-0.43-0.4-0.16.162-.375,0.356-0.565,0.535a30.209,30.209,0,0,1-17.3,7.836,120.884,120.884,0,0,1-12.844.474c-7.8,0-16.472-.277-20.073-0.405,0.164,19.626,3.172,35.855,7.474,49.16a116.9,116.9,0,0,0,17.989,35.159c10.853,14.213,21.835,20.848,24.73,22.443l0.022-.014c0.122-.071.338-0.207,0.488-0.3v-0.023c3.46-2.074,13.851-8.979,24.213-22.708a119.54,119.54,0,0,0,17.777-34.558,159.84,159.84,0,0,0,7.7-49.139C156.307,102.409,147.508,102.782,139.851,102.782Z" transform="translate(0 0)"/><path class="cls-5" d="M109.674,202.35a83.229,83.229,0,0,1-20.165-19.229A111.256,111.256,0,0,1,72.4,149.644a155.173,155.173,0,0,1-7.064-41.623c4.121,0.112,9.391.222,14.312,0.222a123.6,123.6,0,0,0,13.525-.516,36.773,36.773,0,0,0,17.195-6.619,39.555,39.555,0,0,0,17.295,6.725,92.188,92.188,0,0,0,12.185.572c4.847,0,10.164-.148,14.345-0.3a151.986,151.986,0,0,1-7.266,41.5A113.794,113.794,0,0,1,130,182.545,88.623,88.623,0,0,1,109.674,202.35Z" transform="translate(0 0)"/><path id="_Path_9" data-name="&lt;Path&gt;" class="cls-51" d="M137.453,102.773a163.451,163.451,0,0,1-3.51,43.968,125.3,125.3,0,0,1-14.976,37.881c-3.436,5.631-9.194,13.762-14.66,20.969,1.835,1.244,3.274,2.1,4.063,2.537l0.022-.014c0.162-.094.436-0.267,0.647-0.394a98.459,98.459,0,0,0,20.321-24.126,125.3,125.3,0,0,0,14.977-37.882,163.243,163.243,0,0,0,3.539-43.086c-3.11.088-6.457,0.153-9.625,0.153C137.966,102.78,137.73,102.774,137.453,102.773Z" transform="translate(0 0)"/><g id="_Group_8" data-name="&lt;Group&gt;"><polygon id="_Path_10" data-name="&lt;Path&gt;" class="cls-4" points="106.012 161.774 90.102 145.864 97.086 138.88 105.928 147.722 127.163 125.977 134.23 132.877 106.012 161.774"/></g><path class="cls-52" d="M79.026,100.931h0a3.34,3.34,0,0,1-2.5,1.758L60.1,104.948l-1.978-.74a3.8,3.8,0,0,1-2.465-3.554h0a3.8,3.8,0,0,1,.77-2.292l1.517-2Z" transform="translate(0 0)"/><path class="cls-53" d="M79.043,100.391h0a3.188,3.188,0,0,1-2.389,1.678l-15.673,2.157-1.888-.706a3.623,3.623,0,0,1-2.353-3.393h0a3.622,3.622,0,0,1,.735-2.188l1.447-1.91Z" transform="translate(0 0)"/><path class="cls-52" d="M56.153,85.63l1.783-1.483a3.577,3.577,0,0,1,2.477-.822l26.649,1.422V80.986L108.155,90.2V90.94a10.683,10.683,0,0,1-10.683,10.683l-7.607.582-10.557-.548L56.117,96.108a4.172,4.172,0,0,1-2.24-3.145l-0.149-1.107A6.9,6.9,0,0,1,56.153,85.63Z" transform="translate(0 0)"/><path class="cls-54" d="M73.988,99l10.558,0.549,7.607-.582A10.683,10.683,0,0,0,102.835,88.28V87.873l5.32,2.323V90.94a10.683,10.683,0,0,1-10.683,10.683l-7.607.582-10.557-.548L56.117,96.108a3.887,3.887,0,0,1-1.806-1.82Z" transform="translate(0 0)"/><path class="cls-55" d="M93.891,40.406l6.257-5.844L93.319,27.25s-8.272,5.121-6.257,5.844C90.946,34.487,93.891,40.406,93.891,40.406Z" transform="translate(0 0)"/><path class="cls-55" d="M76.527,19.816a25.4,25.4,0,0,1,.74,8.656c-0.051.412,1.852-.472,2.06-0.1a13.068,13.068,0,0,0,2.664,3.5c1.513,1.319,3.747,2.232,5.54,1l2.919-2.013a8.809,8.809,0,0,0,3.454-4.78l1.561-5.341-9.7-5.844-7.482-1.441A4.529,4.529,0,0,0,76.506,15.8,6.054,6.054,0,0,0,76.527,19.816Z" transform="translate(0 0)"/><path class="cls-5" d="M92.693,39.024L86.666,54.111a4.5,4.5,0,0,0,.626,4.262l0.828,1.1,1.192,8.9L84.867,85.179c5.4-1,14.975,11.509,24.785,8.184l-1-23,1.829-22.7-7.149-14.3h-4.3Z" transform="translate(0 0)"/><polygon class="cls-56" points="94.106 42.183 93.605 58.727 103.999 58.727 105.412 44.095 103.251 41.019 94.106 42.183"/><path class="cls-57" d="M56.5,84.228h0a0.476,0.476,0,0,1-.649-0.179L44.109,63.285a0.476,0.476,0,0,1,.179-0.649h0a0.476,0.476,0,0,1,.649.179l11.74,20.764A0.476,0.476,0,0,1,56.5,84.228Z" transform="translate(0 0)"/><path class="cls-57" d="M80.658,84.579L55.136,84.7a1.1,1.1,0,0,1-1.1-1.089h0a1.1,1.1,0,0,1,1.089-1.1l25.522-.126a1.1,1.1,0,0,1,1.1,1.089h0A1.1,1.1,0,0,1,80.658,84.579Z" transform="translate(0 0)"/><path class="cls-58" d="M81.673,83.119a1.127,1.127,0,0,1-.982.516l-25.522.126a1.084,1.084,0,0,1-1.029-.6,1.079,1.079,0,0,0-.1.458,1.1,1.1,0,0,0,1.1,1.089l25.522-.126a1.1,1.1,0,0,0,1.089-1.1A1.083,1.083,0,0,0,81.673,83.119Z" transform="translate(0 0)"/><rect class="cls-59" x="72.558" y="83.009" width="2.014" height="0.772" transform="translate(-0.402 0.356) rotate(-0.277)"/><rect class="cls-59" x="74.945" y="82.998" width="2.014" height="0.772" transform="translate(-0.42 0.384) rotate(-0.289)"/><rect class="cls-59" x="57.998" y="83.081" width="2.014" height="0.772" transform="translate(-0.414 0.294) rotate(-0.285)"/><path class="cls-60" d="M75.376,14.238A13.348,13.348,0,0,1,77.448,9.98a5.594,5.594,0,0,1,2.5-2.1c2.662-1.025,5.4-.686,8.17-0.248A10.5,10.5,0,0,1,92.907,9.47l4.638,3.369c1.272,0.924,2.746,1.571,3.727,2.843a10.933,10.933,0,0,1,1.415,2.834c0.543,1.417.972,2.958,1.65,4.315a24.271,24.271,0,0,0,2.05,2.6,15.563,15.563,0,0,1,3.119,7.964c0.047,1.069-.075,2.14-0.026,3.209,0.092,2.044.957,3.689,1.555,5.583,0.554,1.753.647,3.632,1.389,5.33,0.57,1.305,1.5,2.432,2.054,3.742a7,7,0,0,1,.1,5.224c-0.551,1.625.142,3.5,1.043,4.917a6.2,6.2,0,0,1-4.741-.238,13.449,13.449,0,0,1-3.917-2.857,9.472,9.472,0,0,1-2.427-3.352,19.936,19.936,0,0,0-.961-3.008c-0.892-1.588-2.945-2.4-3.465-4.148-0.618-2.071,1.246-4.486.142-6.344a8.943,8.943,0,0,0-1.79-1.7,16.824,16.824,0,0,1-2.454-3.824c-0.822-1.4-.551-3.294-0.621-4.852a3.014,3.014,0,0,0-.48-1.755,3.351,3.351,0,0,0-2.027-.95c-1.569-.341-3.279-0.842-4.138-2.2-0.7-1.1-.662-2.521-1.238-3.689-1.168-2.366-3.862-3.112-6.241-3.3a7.012,7.012,0,0,1-3.44-1.005,6.373,6.373,0,0,1-2.316-1.8A3.106,3.106,0,0,1,75.376,14.238Z" transform="translate(0 0)"/><path class="cls-55" d="M94.272,58.727V71.446L76.226,78.6,69.166,76.1,63.6,77.265l-1.58,2.328v2.65h1l1.247-2.068,2.418-.333,3.069,2.4,10.5,0.161,4.682-.54,14.58-2.4c1.113-.27,3.2-1.663,3.409-3.406V58.727H94.272Z" transform="translate(0 0)"/><path class="cls-61" d="M68.418,80.913l10.5,0.161h4.549l14-3.391a5.4,5.4,0,0,0,4.127-5.246L100.809,58.81l2.109-.084V76.062c-0.208,1.744-2.3,3.137-3.409,3.406l-14.58,2.4-4.682.54-10.5-.161-3.069-2.4Z" transform="translate(0 0)"/><rect class="cls-55" x="158.161" y="160.061" width="8.536" height="6.87" transform="translate(325.925 1.067) rotate(90)"/><path class="cls-4" d="M161.6,158.4h-5.83a2.29,2.29,0,0,0-2.29,2.29v23.526l0.319,0.557A3.232,3.232,0,0,0,156.6,186.4h0a1.007,1.007,0,0,0,1-.932l0.347-4.689,4.06-8.38v-3.383l-1.561-2.394-0.208-6.037,1.353-1.353V158.4Z" transform="translate(0 0)"/><path class="cls-62" d="M155.044,184.769l-0.319-.557V160.685a2.29,2.29,0,0,1,2.29-2.29h-1.249a2.29,2.29,0,0,0-2.29,2.29v23.526l0.319,0.557A3.232,3.232,0,0,0,156.6,186.4a0.985,0.985,0,0,0,.432-0.109A3.228,3.228,0,0,1,155.044,184.769Z" transform="translate(0 0)"/><path class="cls-53" d="M184.589,116.7l18.438,28.345a8.575,8.575,0,0,1-4.279,12.757l-35.09,11.449-1.229-11.06,21.414-8.712a2.009,2.009,0,0,0,.618-3.42l-3.471-2.064Z" transform="translate(0 0)"/><rect class="cls-55" x="166.697" y="195.037" width="8.536" height="6.87"/><polygon class="cls-54" points="185.915 118.734 184.321 118.734 180.99 143.99 184.404 146.021 186.77 120.049 185.915 118.734"/><path class="cls-54" d="M183.843,149.475l-15.024,6.112,0.394,8.117-0.161,3.782,13.246-4.322,0.448-3.6,1.245-10.171C183.94,149.421,183.9,149.455,183.843,149.475Z" transform="translate(0 0)"/><path class="cls-53" d="M162.775,122.691l2.717,9.705a12.241,12.241,0,0,1,.439,2.706l1.39,28.6-1.457,34.352h10.2l4.788-38.488,5-40.834H162.325v0.674A12.175,12.175,0,0,0,162.775,122.691Z" transform="translate(0 0)"/><path class="cls-4" d="M165.864,199.305v5.83a2.29,2.29,0,0,0,2.29,2.29H191.68l0.557-.319a3.232,3.232,0,0,0,1.629-2.806h0a1.007,1.007,0,0,0-.932-1l-4.689-.347-8.38-4.06h-3.383l-2.394,1.561-6.038.208-1.353-1.353h-0.833Z" transform="translate(0 0)"/><path class="cls-62" d="M192.238,205.857l-0.557.319H168.154a2.29,2.29,0,0,1-2.29-2.29v1.249a2.29,2.29,0,0,0,2.29,2.29H191.68l0.557-.319a3.232,3.232,0,0,0,1.629-2.806,0.985,0.985,0,0,0-.109-0.432A3.229,3.229,0,0,1,192.238,205.857Z" transform="translate(0 0)"/><path class="cls-62" d="M202.371,99.451h0a0.6,0.6,0,0,0,.844,0l14.122-14.122a0.6,0.6,0,0,0,0-.844h0a0.6,0.6,0,0,0-.844,0L202.371,98.608A0.6,0.6,0,0,0,202.371,99.451Z" transform="translate(0 0)"/><path class="cls-55" d="M161.022,63.414l8.092,3.551a9.448,9.448,0,0,1,6.832-5.977c2.742-.686-11.237-5.977-11.237-5.977Z" transform="translate(0 0)"/><path class="cls-55" d="M164.3,55.962c-0.232.551,4.517,3.747,5.079,4.17,1.223,0.919,2.269,2.135,3.688,2.762a6.554,6.554,0,0,0,5.663-.11,8.424,8.424,0,0,0,3.628-4.338s1.832,0.958,2.053-.147c0.118-.588-0.531-5.324-0.347-5.9,0.323-1.006.573-.907,0.953-1.893,0.424-1.1.8-2.861,0.236-3.985-0.385-.768-1.227-0.761-1.993-0.993-1.656-.5-3.306-1.022-4.959-1.533L170.6,41.618Z" transform="translate(0 0)"/><path class="cls-4" d="M161.934,60.707a7.946,7.946,0,0,1-1.767,2.474c-1.06.884-6.54,6.363-6.186,10.6,0,0-.884,2.474,3.181,12.726,0,0,3.861,14.11,4.772,24.391,0.239,2.693-2.835,12.726-2.835,12.726,4.337,6.366,20.871-6.611,30.761-1.751,0,0-3.488-19.57-3.712-23.17,0,0-7.954-26.688-13.044-30.816Z" transform="translate(0 0)"/><path class="cls-60" d="M190.508,44.614a22.744,22.744,0,0,1-3.249-2.052,15.592,15.592,0,0,1-1.028-1.74c-0.43-.564-1.164-0.5-1.677-0.932a6.905,6.905,0,0,1-.712-0.842,11,11,0,0,0-1.567-1.233,3.97,3.97,0,0,0-2.122-1.082c-0.942-.127-1.9-0.017-2.846-0.139-1.5-.2-2.921-1.015-4.4-0.52a3.459,3.459,0,0,0-1.272.621,4.245,4.245,0,0,1-.775,1.026c-1.2.7-2.588-.855-3.64,0.519-0.6.788-.381,2.047-0.827,2.936-0.154.307-.388,0.567-0.544,0.872-0.556,1.085-.011,2.425-0.292,3.611-0.23.973-1.038,1.768-1.145,2.774a18.992,18.992,0,0,0,.276,3.066,4.776,4.776,0,0,1-.205,1.265,26.544,26.544,0,0,0-.37,3.954,1.732,1.732,0,0,1,.567-1.143,16.643,16.643,0,0,0,2.344-1.413,11.009,11.009,0,0,0,1.867-2.607c0.816-1.412,2.96-5.417,5.129-4.522,1.964,0.811-.293,4.245-0.11,5.568a1.177,1.177,0,0,0,.335.756c1.05,0.9,2.3-2.11,2.625-2.67a10.144,10.144,0,0,1,2.871-2.483,10.565,10.565,0,0,1,2.105-1.458,2.546,2.546,0,0,1,2,.512,14.688,14.688,0,0,0,2.242.907,5.706,5.706,0,0,0,1.838.317A4.366,4.366,0,0,0,191.8,44.87C191.749,45.134,191.2,44.961,190.508,44.614Z" transform="translate(0 0)"/><path class="cls-63" d="M171.044,101.12l-5.922-10.513,7.637-3.212,3.707,6.55,8.373,0.571c0.816,2.541,1.308,4.191,1.308,4.191,0.053,0.855.292,2.617,0.623,4.8l-8.548,1.177A7.123,7.123,0,0,1,171.044,101.12Z" transform="translate(0 0)"/><path class="cls-55" d="M173.011,86.919l3.415,6.662,23.33,1.591,0.614-1.286a3.189,3.189,0,0,1,2.722-1.811l7.168-.35a0.854,0.854,0,0,1,.9.853h0a0.854,0.854,0,0,1-.779.851l-2.226.2,0.088,0.884,0.884,0.177,0.031,0.56a2.51,2.51,0,0,1-.627,1.8l-0.311.351a1.788,1.788,0,0,0-.438.983l0,0.029a1.862,1.862,0,0,1-.953,1.421l-1.973,1.084a1.421,1.421,0,0,1-.684.176h-2.905l-2.121-.619-20.385,1.694a7.491,7.491,0,0,1-6.424-2.729l-7.206-8.832Z" transform="translate(0 0)"/><path class="cls-4" d="M164.055,91.107l10.206-4.772-5.216-14.441a6.828,6.828,0,0,0-9.027-3.431h0a6.829,6.829,0,0,0-3.431,9.027Z" transform="translate(0 0)"/></g></g></svg>