<svg id="Layer_4" data-name="Layer 4" xmlns="http://www.w3.org/2000/svg" viewBox="0 0 256.167 228.947"><defs><style>.cls-1{fill:#f5f5f5;}.cls-2{fill:#c6c6c6;}.cls-3{fill:#e0e0e0;}.cls-4{fill:#e0e3fd;}.cls-5{fill:#c1c6fb;}.cls-11,.cls-6{fill:#fff;}.cls-7{fill:#e8505b;}.cls-8{fill:#ffcebd;}.cls-9{fill:#253138;}.cls-10{fill:#ffa4af;}.cls-11{opacity:0.1;}</style></defs><title>details-4</title><path class="cls-1" d="M186.608,20.121c28.545,17.752,60.24,49.27,67.623,83.046,17.243,78.886-84.66,126.882-148.573,125.76-40.614-.713-82.588-22.424-98.481-59.806-10.341-24.324-8.766-52.554,0-77.49C35.093,12.2,111.668-26.483,186.608,20.121Z" transform="translate(0 0)"/><path class="cls-2" d="M132.485,46.1c-21.806,13.5-15.021,45.076-14.727,66.9q0.486,36.09.972,72.18a1.126,1.126,0,0,1-2.251,0q-0.581-43.132-1.162-86.264c-0.274-20.3-3.747-42.51,16.032-54.758a1.127,1.127,0,0,1,1.136,1.944h0Z" transform="translate(0 0)"/><path class="cls-2" d="M120.376,57.085a27.49,27.49,0,0,1,3.517-5.975c2.269-2.715,5.429-4.5,8.516-6.232l0.454,0.243a27.024,27.024,0,0,1,1.781,14.606c-0.929,4.881-3.908,9.514-8.386,11.668-3.285,1.58-7.167,1.786-10.232,3.758C115.16,68.926,117.682,62.766,120.376,57.085Z" transform="translate(0 0)"/><path class="cls-2" d="M97.535,18.788c21.656,8.59,17,41.442,17.869,59.956,1.48,31.4,2.28,62.79,2.075,94.223a1.126,1.126,0,0,1-2.251,0q0.257-39.2-1.353-78.381c-0.5-11.8-1.088-23.6-1.646-35.393-0.647-13.7-.017-32.174-15.292-38.233-1.331-.528-0.751-2.706.6-2.171h0Z" transform="translate(0 0)"/><path class="cls-2" d="M112.36,56.573c0.039-.108.067-0.221,0.105-0.33a10.182,10.182,0,0,1,.876,1.656Z" transform="translate(0 0)"/><path class="cls-2" d="M96.3,20.7a1.111,1.111,0,0,1,1.653-.748c7.045,2.091,12.6,8.064,15.017,15.006,2.374,6.833,1.887,14.454-.506,21.284-2.692-4.251-8.16-6.375-11.988-9.9C93.681,40.086,92.638,29.18,96.3,20.7Z" transform="translate(0 0)"/><path class="cls-2" d="M103.114,172.994h25.68a5.822,5.822,0,0,1,5.822,5.822v31.829a0,0,0,0,1,0,0H97.292a0,0,0,0,1,0,0V178.816A5.822,5.822,0,0,1,103.114,172.994Z" transform="translate(231.908 383.639) rotate(180)"/><path class="cls-2" d="M114.974,128.291c0.338-8.7.734-19-5.728-25.822-5.044-5.323-17.98-8.991-25.231-9.179a1.126,1.126,0,0,1,0-2.251c5.529,0.143,11.3,2.336,16.507,4.1,3.832,1.3,7.458,2.74,10.317,5.735,6.941,7.272,6.75,18.075,6.387,27.414-0.056,1.444-2.308,1.452-2.252,0h0Z" transform="translate(0 0)"/><path class="cls-2" d="M81.587,90.133a0.7,0.7,0,0,1,.551-0.156l8.166,0.07a28.789,28.789,0,0,1,7.022.637c4.6,1.2,8.329,4.6,11.241,8.357l0.848,0.13c-4.247,1.355-8.418,3.133-12.852,3.594s-9.349-.663-12.127-4.149c-1.769-2.221-2.459-5.1-2.926-7.9A0.7,0.7,0,0,1,81.587,90.133Z" transform="translate(0 0)"/><path class="cls-3" d="M216.7,140.469a16.1,16.1,0,0,0-1.266-6.261,34.136,34.136,0,0,0-6.593,29.926l1.993,1.851c3.288-3.1,5.067-7.529,5.762-11.993A61.615,61.615,0,0,0,216.7,140.469Z" transform="translate(0 0)"/><path class="cls-3" d="M234.87,152.08a1.05,1.05,0,0,0-.583-0.272,15.195,15.195,0,0,0-18.511,14.838l1.343,1.622c2.833,0.773,5.794-.671,8.145-2.431a28.988,28.988,0,0,0,9.6-12.665A1.086,1.086,0,0,0,234.87,152.08Z" transform="translate(0 0)"/><path class="cls-4" d="M190.889,151.836c-3.012-2.448-6.517-4.84-10.391-4.6a1.232,1.232,0,0,0-1.072.484c-0.423.8,0.932,1.407,1.2,2.276a3.264,3.264,0,0,1-.2,1.553,5.063,5.063,0,0,0,.469,2.823A22.181,22.181,0,0,0,203.937,167.7l1.179-1.851A104.642,104.642,0,0,0,190.889,151.836Z" transform="translate(0 0)"/><path class="cls-3" d="M201.993,166.415c6.758,6.417,7.626,15.939,6.46,24.724-0.254,1.913,2.756,1.894,3.007,0,1.269-9.569-.037-19.915-7.341-26.85-1.4-1.332-3.533.79-2.126,2.126h0Z" transform="translate(0 0)"/><path class="cls-3" d="M208.593,163.366c1.429,8.447-.393,16.98.51,25.467,0.2,1.9,3.212,1.925,3.007,0-0.932-8.765.861-17.531-.617-26.266-0.322-1.9-3.221-1.1-2.9.8h0Z" transform="translate(0 0)"/><path class="cls-3" d="M217.406,162.768c-2.48,3.722-4.986,7.784-6.146,12.148-1.258,4.735-.9,10.061-1.116,14.926-0.086,1.935,2.921,1.931,3.007,0,0.2-4.584-.127-9.672,1.009-14.126,1.037-4.068,3.53-7.96,5.842-11.43,1.076-1.615-1.527-3.122-2.6-1.518h0Z" transform="translate(0 0)"/><path class="cls-2" d="M220.794,208.78H204.009a1.52,1.52,0,0,1-1.469-1.131l-5.715-21.571a1.52,1.52,0,0,1,1.469-1.909h28.215a1.52,1.52,0,0,1,1.469,1.909l-5.715,21.571A1.52,1.52,0,0,1,220.794,208.78Z" transform="translate(0 0)"/><path class="cls-2" d="M214.67,137.457c-2.236,8.426-2.254,17.211-4.29,25.676a0.218,0.218,0,0,0,.419.116c2.035-8.465,2.054-17.252,4.29-25.676a0.218,0.218,0,0,0-.419-0.116h0Z" transform="translate(0 0)"/><path class="cls-2" d="M217.434,165.664a28.739,28.739,0,0,1,14.9-11.789c0.262-.092.149-0.512-0.115-0.419a29.222,29.222,0,0,0-15.158,11.989,0.218,0.218,0,0,0,.376.219h0Z" transform="translate(0 0)"/><path class="cls-5" d="M181.5,149.923a17.422,17.422,0,0,0,6.708,7.855c4.287,3,9.8,4.483,13.73,7.852,0.248,0.212.61-.146,0.36-0.36-2.734-2.345-6.215-3.311-9.311-5.077-4.444-2.536-9.03-5.463-11-10.405-0.12-.3-0.613-0.17-0.491.136h0Z" transform="translate(0 0)"/><rect class="cls-6" x="115.436" y="65.101" width="114.247" height="67.154" rx="3.463" ry="3.463" transform="translate(345.119 197.357) rotate(-180)"/><rect class="cls-1" x="172.56" y="72.616" width="45.937" height="4.09" transform="translate(391.056 149.322) rotate(-180)"/><rect class="cls-7" x="195.528" y="81.413" width="22.968" height="4.09" transform="translate(414.024 166.916) rotate(-180)"/><path class="cls-7" d="M223.56,122.831c-3.756-5.093-7.8-11.634-12.1-16.276-1.515-1.636-3.231-3.333-5.436-3.665-3.113-.469-5.856,1.9-8.155,4.053-2.748,2.572-5.764,5.174-9.465,5.863-4.558.849-9.071-1.374-13.137-3.6-3.542-1.941-7.143-4.015-9.661-7.172-2.425-3.04-3.783-7.008-6.911-9.318a3.334,3.334,0,0,0-4.983.577c-2.166,2.226-2.942,5.405-4.064,8.3s-3.012,5.9-6.041,6.587c-3.943.89-7.512-2.579-9.52-6.088s-3.571-7.624-7.072-9.645a3.592,3.592,0,0,0-3.552-.342c-1.179.714-1.425,2.289-1.551,3.662l-1.566,17.087c-0.217,2.366-.377,8.038.993,9.979H223.56Z" transform="translate(0 0)"/><path class="cls-8" d="M100.246,202.5l5.741,2.552,9.176,2.349a2.6,2.6,0,0,1,2.026,2.532h0l-26.782-.115,0.657-4.7,3.826-2.623h5.356Z" transform="translate(0 0)"/><path class="cls-9" d="M102.89,207.119l3.1-2.068,8.989,1.52c1.185,0.266,2.214,2.147,2.214,3.361h0l-26.782-.115,0.657-4.7,2.186,1.913L97.069,207C98.831,207.335,101.311,207.98,102.89,207.119Z" transform="translate(0 0)"/><polygon class="cls-8" points="92.17 205.122 100.246 203.079 100.246 191.944 92.17 191.944 92.17 205.122"/><path class="cls-9" d="M35.17,171.791s51.161-18.5,57.121-16.206c0,0,7.63-.008,9.251,12.141l-0.295,26.223H91.219l-2.644-20.02a2.131,2.131,0,0,0-3.065-1.206L54.59,189.951Z" transform="translate(0 0)"/><path class="cls-9" d="M62.533,176.482L93.464,195.54a6.216,6.216,0,0,1,2.955,5.292v1.83a7.27,7.27,0,0,1-7.269,7.269l-42.031-2.077V195.611S34.237,190.6,34.876,179.87Z" transform="translate(0 0)"/><polygon class="cls-8" points="44.861 194.522 23.726 209.931 23.726 209.931 47.119 207.854 47.119 195.611 44.861 194.522"/><path class="cls-9" d="M44.861,194.522l2.259,1.089v5.247h0a4.712,4.712,0,0,0-4.424.176l-10.4,7.929a4.734,4.734,0,0,1-2.869.969h-5.7Z" transform="translate(0 0)"/><path class="cls-8" d="M65.7,105.756s-5,9.565-1.148,15.249l-13.61-1.261,5.44-17.308Z" transform="translate(0 0)"/><path class="cls-9" d="M54.961,101.035a11.548,11.548,0,0,1,1.163-3.126c1.484-3.051,3.075-6.23,5.834-8.2a38.067,38.067,0,0,0,3.719-2.477l0.8,0.489,1.477,0.256a4.458,4.458,0,0,1,3.329,2.648,3.832,3.832,0,0,1-.846,4.1,10.782,10.782,0,0,1-2.294,1.394,9.991,9.991,0,0,0-3.967,4.066A14.9,14.9,0,0,1,63.2,102c-1.237,1.725-3.517,2.269-5.6,2.69a2.36,2.36,0,0,1-1.188.034,1.676,1.676,0,0,1-.73-0.528A3.9,3.9,0,0,1,54.961,101.035Z" transform="translate(0 0)"/><path class="cls-8" d="M55.416,97.3a57.048,57.048,0,0,1,3.65-5.851,3.879,3.879,0,0,1,3.362-1.94,30.823,30.823,0,0,1,4.932-.162L67.614,89.7a21.856,21.856,0,0,1,1.044,3.624c0.266,1.309,2.211,4.414,2.346,5.751,0.02,0.2-1.732.4-1.714,0.594,0.066,0.707.123,1.414,0.181,2.12a4.228,4.228,0,0,1-.063,2.181,4.631,4.631,0,0,1-2.154,3.182,5.908,5.908,0,0,1-4.359.076,19.7,19.7,0,0,1-5.678-2.64c-1.461-.989-2.9-2.4-2.915-4.164A6.418,6.418,0,0,1,55.416,97.3Z" transform="translate(0 0)"/><path class="cls-6" d="M45.066,124.1c2.838,8.76-13.032,55.88-13.032,55.88,6.777,8.964,23.129-3.607,33.668-1.312,0,0-.111-19.786,3.88-28.64l5.371-8.751A5.731,5.731,0,0,0,74.7,134.9l-10.143-13.9-14.526-5.513a3.059,3.059,0,0,0-3.431.9h0A8.129,8.129,0,0,0,45.066,124.1Z" transform="translate(0 0)"/><path class="cls-9" d="M42.408,122.886c-0.254-6.51,2.082-12.869,2.252-19.382,0.132-5.056-.9-10.667,2.1-14.739,2.475-3.361,7-4.517,11.17-4.595a15.3,15.3,0,0,1,6.01.895,9.87,9.87,0,0,1,3.152,2.116c0.488,0.483,1.025.927,0.789,1.575a3.321,3.321,0,0,1-1.754,1.3c-0.753.289-1.575,0.347-2.35,0.57-1.843.53-1.967,1.886-2.214,3.561a49.661,49.661,0,0,0-.511,5.924,14.815,14.815,0,0,1-.168,2.325,4.913,4.913,0,0,1-.339,1.115,9.465,9.465,0,0,1-2.926,3.121,6.069,6.069,0,0,0-2.3,2.927c-0.308,1.39.23,2.893-.146,4.344-0.608,2.339-2.7,3.925-4.23,5.8a18.292,18.292,0,0,0-3.687,9.974c-0.324,3.583-3.272,8.024-3.855,10.765C40.878,134.858,42.649,129.048,42.408,122.886Z" transform="translate(0 0)"/><path class="cls-8" d="M111.363,133.207l-23.8,18.422a3.6,3.6,0,0,1-3.526.5L54.57,140.523a5.261,5.261,0,0,1-2.618-7.542h0a5.261,5.261,0,0,1,6.637-2.181l27.523,11.917,22.136-13.282,1.989-2.794,4.519-3.047,0.66-.169v2.095l-0.356.106L114.6,126.9l4.926-.863,6.653-1.219a1.43,1.43,0,0,1,0,1.371l-5.535,1.727,0.051,0.609,6.5-1.676a1.458,1.458,0,0,1,0,1.422l-6.525,1.981L120.827,131l5.914-1.416a1,1,0,0,1,0,.965l-5.662,1.8a0.518,0.518,0,0,0,.025.483l5.1-.891a0.773,0.773,0,0,1-.026,1.3l-9.521,1.348a5.71,5.71,0,0,1-3.081-.419Z" transform="translate(0 0)"/><path class="cls-6" d="M50.42,131.92a5.647,5.647,0,0,1,7.123-2.341l15.117,5.209c1.419,3.1-5.663,7.744-5.083,12.671L53.23,140.014A5.646,5.646,0,0,1,50.42,131.92Z" transform="translate(0 0)"/><rect class="cls-6" x="107.91" y="148.957" width="96.209" height="32.182" rx="2.011" ry="2.011"/><rect class="cls-1" x="113.565" y="155.639" width="31.747" height="19.798"/><polygon class="cls-2" points="118.474 162.922 113.59 169.974 113.565 175.437 126.138 175.437 118.474 162.922"/><polygon class="cls-6" points="119.247 166.596 119.686 167.322 120.46 166.204 118.474 162.922 116.223 166.172 116.918 167.322 117.45 166.553 118.302 167.96 119.247 166.596"/><polygon class="cls-2" points="124.433 172.715 128.148 167.18 133.262 175.437 126.125 175.437 124.433 172.715"/><circle class="cls-6" cx="135.937" cy="162.382" r="3.486"/><polygon class="cls-6" points="128.966 170.854 129.405 171.579 130.179 170.462 128.148 167.18 125.942 170.43 126.637 171.579 127.17 170.811 128.021 172.218 128.966 170.854"/><rect class="cls-1" x="147.127" y="155.981" width="52.264" height="1.858"/><rect class="cls-1" x="147.127" y="160.523" width="52.264" height="1.858"/><rect class="cls-1" x="147.127" y="165.066" width="52.264" height="1.858"/><rect class="cls-10" x="147.127" y="169.608" width="33.637" height="1.859"/><rect class="cls-6" x="30.965" y="43.079" width="63.377" height="34.156"/><rect class="cls-2" x="29.423" y="75.3" width="66.459" height="2.878"/><polygon class="cls-7" points="41.651 69.233 41.362 68.851 49.617 62.594 55.937 66.364 67.863 54.313 73.161 60.794 84.11 52.806 84.39 53.195 73.075 61.446 67.829 55.029 56.014 66.968 49.649 63.171 41.651 69.233"/><rect class="cls-3" x="41.022" y="47.426" width="0.479" height="24.599"/><rect class="cls-3" x="36.959" y="69.028" width="54.016" height="0.479"/><circle class="cls-7" cx="84.553" cy="52.764" r="1.101"/><circle class="cls-7" cx="67.811" cy="54.738" r="1.101"/><circle class="cls-7" cx="49.606" cy="63.008" r="1.101"/><circle class="cls-7" cx="55.96" cy="66.453" r="1.101"/><circle class="cls-7" cx="73.021" cy="60.932" r="1.101"/><circle class="cls-2" cx="139.308" cy="23.48" r="17.812"/><circle class="cls-6" cx="139.308" cy="23.48" r="15.734"/><rect class="cls-2" x="138.714" y="8.683" width="1.392" height="15.4" rx="0.519" ry="0.519"/><rect class="cls-2" x="142.075" y="16.293" width="1.392" height="9.556" rx="0.519" ry="0.519" transform="translate(79.104 -108.444) rotate(55.427)"/><g id="_Group_" data-name="&lt;Group&gt;"><path id="_Path_" data-name="&lt;Path&gt;" class="cls-7" d="M188.815,65.752l2.912-4.233a10.184,10.184,0,1,0-5.9.408l2.639,3.825A0.211,0.211,0,0,0,188.815,65.752Z" transform="translate(0 0)"/><circle id="_Path_2" data-name="&lt;Path&gt;" class="cls-11" cx="188.137" cy="52.076" r="7.227" transform="translate(18.281 148.286) rotate(-45)"/></g><path id="_Compound_Path_" data-name="&lt;Compound Path&gt;" class="cls-6" d="M191.239,53.018h0.941a0.345,0.345,0,0,0,.344-0.345v-1.2a0.345,0.345,0,0,0-.345-0.344h-0.736a0.29,0.29,0,0,1-.27-0.193q-0.039-.1-0.085-0.2a0.29,0.29,0,0,1,.054-0.327l0.52-.521a0.345,0.345,0,0,0,0-.488l-0.849-.848a0.345,0.345,0,0,0-.487,0l-0.524.525a0.285,0.285,0,0,1-.314.06c-0.075-.032-0.156-0.064-0.225-0.092a0.283,0.283,0,0,1-.18-0.265V48.035a0.345,0.345,0,0,0-.345-0.345h-1.2a0.345,0.345,0,0,0-.345.345v0.736a0.289,0.289,0,0,1-.193.269q-0.108.041-.213,0.089a0.289,0.289,0,0,1-.327-0.053l-0.522-.519a0.345,0.345,0,0,0-.487,0l-0.846.851a0.345,0.345,0,0,0,0,.488l0.526,0.523a0.285,0.285,0,0,1,.061.314c-0.032.075-.064,0.156-0.091,0.225a0.283,0.283,0,0,1-.264.181l-0.744,0a0.345,0.345,0,0,0-.344.345l0,1.2a0.345,0.345,0,0,0,.346.344l0.736,0a0.29,0.29,0,0,1,.27.192q0.039,0.1.085,0.2a0.29,0.29,0,0,1-.053.327l-0.52.522a0.345,0.345,0,0,0,0,.488l0.85,0.846a0.345,0.345,0,0,0,.487,0l0.524-.526a0.285,0.285,0,0,1,.314-0.061c0.075,0.032.156,0.064,0.225,0.091a0.284,0.284,0,0,1,.181.265v0.744a0.345,0.345,0,0,0,.345.344l1.2,0a0.345,0.345,0,0,0,.344-0.345V55.38a0.29,0.29,0,0,1,.192-0.27q0.1-.039.2-0.085a0.29,0.29,0,0,1,.327.053l0.521,0.52a0.345,0.345,0,0,0,.487,0l0.847-.849a0.345,0.345,0,0,0,0-.488l-0.525-.524a0.285,0.285,0,0,1-.06-0.314C191.157,53.244,191.235,53.031,191.239,53.018Zm-4.773-1.248a1.7,1.7,0,1,1,1.058,1.891A1.7,1.7,0,0,1,186.466,51.77Z" transform="translate(0 0)"/><path id="_Path_3" data-name="&lt;Path&gt;" class="cls-6" d="M250.193,129.687v16.331A1.987,1.987,0,0,1,248.206,148h-3.583v3.553a0.431,0.431,0,0,1-.761.276L238.7,148H223.974a1.987,1.987,0,0,1-1.987-1.987V129.687a1.987,1.987,0,0,1,1.987-1.987h24.231A1.987,1.987,0,0,1,250.193,129.687Z" transform="translate(0 0)"/><rect id="_Rectangle_" data-name="&lt;Rectangle&gt;" class="cls-2" x="226.879" y="131.63" width="18.681" height="12.06" rx="0.572" ry="0.572"/><path id="_Path_4" data-name="&lt;Path&gt;" class="cls-6" d="M237.924,137.19l-3.2-1.85a0.319,0.319,0,0,0-.478.276v3.7a0.319,0.319,0,0,0,.478.276l3.2-1.85A0.319,0.319,0,0,0,237.924,137.19Z" transform="translate(0 0)"/></svg>