<svg id="Layer_2" data-name="Layer 2" xmlns="http://www.w3.org/2000/svg" viewBox="0 0 716.61 376.909"><defs><style>.cls-1{fill:#a5a5a5;}.cls-2,.cls-7,.cls-9{fill:#fff;}.cls-2{stroke:#e0e0e0;stroke-miterlimit:10;}.cls-3{fill:#e0e0e0;}.cls-4{fill:#fafafa;}.cls-5{fill:#e0e3fd;}.cls-6{fill:#c6c6c6;}.cls-8{fill:#384347;}.cls-31,.cls-9{opacity:0.1;}.cls-10{fill:#525d7a;}.cls-10,.cls-16{opacity:0.3;}.cls-11{fill:#f4f4f4;}.cls-12{fill:#ffcebd;}.cls-13{fill:#263238;}.cls-14{fill:#e8505b;}.cls-15,.cls-16{fill:#191c3c;}.cls-17{opacity:0.14;}.cls-18{opacity:0.27;}.cls-19{fill:#bfbfbf;}.cls-20{fill:#ff5722;}.cls-21{fill:#999;}.cls-22{fill:#cecece;}.cls-23{fill:#626477;}.cls-24{fill:#848484;}.cls-25{fill:#6d6d6d;}.cls-26{fill:#717386;}.cls-27{opacity:0.29;}.cls-28{fill:#3a3c4e;}.cls-29{opacity:0.2;}.cls-30{fill:#75778a;}.cls-31{fill:#231f20;}.cls-32{fill:#d8d8d8;}.cls-33{fill:#393d43;}.cls-34{fill:#686868;}</style></defs><title>header</title><rect class="cls-1" x="478.392" y="369.161" width="187.108" height="2.169" rx="1.085" ry="1.085"/><rect class="cls-2" x="647.206" y="113.926" width="47.514" height="52.224" rx="4.583" ry="4.583"/><rect class="cls-3" x="650.132" y="157.552" width="43.244" height="3.233"/><rect class="cls-3" x="651.885" y="144.608" width="5.724" height="10.856"/><rect class="cls-3" x="660.33" y="135.527" width="5.725" height="19.937"/><rect class="cls-3" x="668.775" y="122.996" width="5.725" height="32.467"/><rect class="cls-3" x="677.22" y="131.069" width="5.724" height="24.395"/><rect class="cls-3" x="685.665" y="122.996" width="5.724" height="32.467"/><rect class="cls-4" x="362.857" y="221.042" width="125.525" height="147.125" rx="3.34" ry="3.34"/><rect class="cls-3" x="372.846" y="232.465" width="105.546" height="34.089" rx="1.813" ry="1.813"/><rect class="cls-3" x="372.846" y="277.371" width="105.546" height="34.09" rx="1.813" ry="1.813"/><rect class="cls-3" x="372.846" y="322.278" width="105.546" height="34.089" rx="1.813" ry="1.813"/><circle class="cls-5" cx="425.619" cy="249.51" r="3.606"/><circle class="cls-6" cx="425.619" cy="294.605" r="3.606"/><circle class="cls-6" cx="425.619" cy="339.7" r="3.606"/><rect class="cls-4" x="15.285" y="66.004" width="133.259" height="95.944"/><rect class="cls-3" x="15.285" y="66.004" width="133.259" height="10.307"/><rect class="cls-7" x="21.953" y="68.808" width="5.583" height="4.699"/><rect class="cls-3" x="24.861" y="82.08" width="25.754" height="25.704" transform="translate(75.475 189.865) rotate(180)"/><rect class="cls-3" x="60.029" y="82.08" width="25.754" height="25.704" transform="translate(145.812 189.865) rotate(180)"/><rect class="cls-3" x="95.198" y="82.08" width="43.527" height="25.704" transform="translate(233.922 189.865) rotate(180)"/><rect class="cls-3" x="24.676" y="114.883" width="51.878" height="4.638"/><rect class="cls-3" x="24.131" y="127.335" width="114.593" height="2.319"/><rect class="cls-3" x="24.131" y="135.811" width="114.593" height="2.319"/><rect class="cls-3" x="24.618" y="144.288" width="114.593" height="2.319"/><rect class="cls-3" x="25.104" y="152.764" width="57.322" height="2.319"/><g id="_Group_" data-name="&lt;Group&gt;"><rect id="_Rectangle_" data-name="&lt;Rectangle&gt;" class="cls-8" x="604.179" y="349.095" width="69.9" height="17.678"/><path id="_Path_" data-name="&lt;Path&gt;" class="cls-8" d="M674.079,349.1h-69.9A74.489,74.489,0,0,0,619.2,304.233V276.9h39.85v27.33A74.486,74.486,0,0,0,674.079,349.1h0Z"/><path class="cls-9" d="M626.732,276.9v27.33A74.49,74.49,0,0,1,611.707,349.1v17.678h10.037V349.1c9.751-12.924,10.006-28.673,10.006-44.862V276.9h-5.019Z"/><rect id="_Path_2" data-name="&lt;Path&gt;" class="cls-10" x="619.204" y="276.903" width="39.85" height="7.46"/><path id="_Path_3" data-name="&lt;Path&gt;" class="cls-8" d="M656.582,242.085v9.2H645.144v-9.2a1.592,1.592,0,0,0-1.592-1.592H633.34a1.592,1.592,0,0,0-1.592,1.592v9.2H620.311v-9.2a1.592,1.592,0,0,0-1.593-1.592h-8.442a1.592,1.592,0,0,0-1.592,1.592v34.689a3.937,3.937,0,0,0,3.937,3.937H664.27a3.937,3.937,0,0,0,3.937-3.937V242.085a1.592,1.592,0,0,0-1.592-1.592h-8.441A1.592,1.592,0,0,0,656.582,242.085Z"/><path id="_Path_4" data-name="&lt;Path&gt;" class="cls-8" d="M679.119,369.371H599.139a3.8,3.8,0,0,1-3.795-3.795h0a3.8,3.8,0,0,1,3.795-3.795h79.981a3.8,3.8,0,0,1,3.795,3.795h0A3.8,3.8,0,0,1,679.119,369.371Z"/></g><rect class="cls-4" x="31.812" y="230.743" width="116.206" height="136.202" rx="3.34" ry="3.34"/><rect class="cls-3" x="41.06" y="241.318" width="97.71" height="31.559" rx="1.813" ry="1.813"/><rect class="cls-3" x="41.06" y="282.89" width="97.71" height="31.559" rx="1.813" ry="1.813"/><rect class="cls-3" x="41.06" y="324.462" width="97.71" height="31.559" rx="1.813" ry="1.813"/><circle class="cls-6" cx="89.915" cy="257.097" r="3.338"/><circle class="cls-5" cx="89.915" cy="298.844" r="3.338"/><circle class="cls-6" cx="89.915" cy="340.591" r="3.338"/><g id="_Group_2" data-name="&lt;Group&gt;"><g id="_Group_3" data-name="&lt;Group&gt;"><g id="_Group_4" data-name="&lt;Group&gt;"><path id="_Path_5" data-name="&lt;Path&gt;" class="cls-3" d="M64.506,211.335H46.29v5.539a15.7,15.7,0,0,0,4.146,10.63h0v2.764H60.36V227.5h0a15.7,15.7,0,0,0,4.146-10.63v-5.539Z"/></g></g><g id="_Group_5" data-name="&lt;Group&gt;"><g id="_Group_6" data-name="&lt;Group&gt;"><path id="_Path_6" data-name="&lt;Path&gt;" class="cls-11" d="M60.759,211.335v5.539a15.7,15.7,0,0,1-4.146,10.63h0v2.764h2.141V227.5h0a15.7,15.7,0,0,0,4.146-10.63v-5.539H60.759Z"/></g></g><g id="_Group_7" data-name="&lt;Group&gt;"><g id="_Group_8" data-name="&lt;Group&gt;"><g id="_Group_9" data-name="&lt;Group&gt;"><path id="_Path_7" data-name="&lt;Path&gt;" class="cls-3" d="M48.262,222.861h-3a4.941,4.941,0,1,1,0-9.883h1.926v2.094H45.266a2.848,2.848,0,1,0,0,5.7h3v2.094Z"/></g></g></g><path id="_Path_8" data-name="&lt;Path&gt;" class="cls-3" d="M49.061,211.381v4.731a1.37,1.37,0,0,0,1.37,1.371h0a1.37,1.37,0,0,0,1.37-1.371v-0.176a1.166,1.166,0,0,1,1.166-1.166h0a1.166,1.166,0,0,1,1.166,1.166v7.732a1.341,1.341,0,0,0,1.341,1.341h0a1.341,1.341,0,0,0,1.341-1.341v-3.21a1.315,1.315,0,0,1,1.315-1.315h0a1.366,1.366,0,0,0,1.366-1.366v-6.4H49.061Z"/></g><g id="_Group_10" data-name="&lt;Group&gt;"><g id="_Group_11" data-name="&lt;Group&gt;"><rect id="_Rectangle_2" data-name="&lt;Rectangle&gt;" class="cls-4" x="105.639" y="5.373" width="31.654" height="38.807"/><rect id="_Rectangle_3" data-name="&lt;Rectangle&gt;" class="cls-3" x="112.005" y="13.178" width="18.921" height="23.197"/><rect id="_Rectangle_4" data-name="&lt;Rectangle&gt;" class="cls-6" x="115.397" y="17.336" width="12.138" height="14.881"/></g><g id="_Group_12" data-name="&lt;Group&gt;"><rect id="_Rectangle_5" data-name="&lt;Rectangle&gt;" class="cls-4" x="182.263" y="5.373" width="31.654" height="38.807"/><rect id="_Rectangle_6" data-name="&lt;Rectangle&gt;" class="cls-3" x="188.629" y="13.178" width="18.921" height="23.197"/><rect id="_Rectangle_7" data-name="&lt;Rectangle&gt;" class="cls-6" x="192.021" y="17.336" width="12.138" height="14.881"/></g><g id="_Group_13" data-name="&lt;Group&gt;"><rect id="_Rectangle_8" data-name="&lt;Rectangle&gt;" class="cls-4" x="143.951" y="5.373" width="31.654" height="38.807"/><rect id="_Rectangle_9" data-name="&lt;Rectangle&gt;" class="cls-6" x="150.317" y="13.178" width="18.921" height="23.197"/><rect id="_Rectangle_10" data-name="&lt;Rectangle&gt;" class="cls-4" x="153.709" y="17.336" width="12.138" height="14.881"/></g></g><g id="_Group_14" data-name="&lt;Group&gt;"><rect id="_Rectangle_11" data-name="&lt;Rectangle&gt;" class="cls-6" x="534.51" y="91.366" width="148.349" height="7.589"/><rect id="_Rectangle_12" data-name="&lt;Rectangle&gt;" class="cls-3" x="534.51" y="91.366" width="148.349" height="3.2"/><rect id="_Rectangle_13" data-name="&lt;Rectangle&gt;" class="cls-3" x="552.513" y="98.289" width="8.317" height="5.327"/><rect id="_Rectangle_14" data-name="&lt;Rectangle&gt;" class="cls-6" x="655.365" y="98.289" width="8.317" height="5.327"/></g><g id="_Group_15" data-name="&lt;Group&gt;"><g id="_Group_16" data-name="&lt;Group&gt;"><rect id="_Rectangle_15" data-name="&lt;Rectangle&gt;" class="cls-3" x="653.145" y="40.622" width="15.792" height="50.745"/><rect id="_Rectangle_16" data-name="&lt;Rectangle&gt;" class="cls-6" x="653.145" y="47.613" width="15.792" height="2.525"/><rect id="_Rectangle_17" data-name="&lt;Rectangle&gt;" class="cls-6" x="653.145" y="77.327" width="15.792" height="2.525"/><rect id="_Rectangle_18" data-name="&lt;Rectangle&gt;" class="cls-6" x="653.145" y="81.211" width="15.792" height="2.525"/><rect id="_Rectangle_19" data-name="&lt;Rectangle&gt;" class="cls-6" x="653.145" y="51.903" width="15.792" height="2.525"/></g><g id="_Group_17" data-name="&lt;Group&gt;"><rect id="_Rectangle_20" data-name="&lt;Rectangle&gt;" class="cls-4" x="629.894" y="38.367" width="10.345" height="52.999"/><rect id="_Rectangle_21" data-name="&lt;Rectangle&gt;" class="cls-3" x="629.894" y="45.67" width="10.345" height="2.637"/><rect id="_Rectangle_22" data-name="&lt;Rectangle&gt;" class="cls-3" x="629.894" y="76.704" width="10.345" height="2.637"/><rect id="_Rectangle_23" data-name="&lt;Rectangle&gt;" class="cls-3" x="629.894" y="80.76" width="10.345" height="2.637"/><rect id="_Rectangle_24" data-name="&lt;Rectangle&gt;" class="cls-3" x="629.894" y="50.15" width="10.345" height="2.637"/></g><g id="_Group_18" data-name="&lt;Group&gt;"><rect id="_Rectangle_25" data-name="&lt;Rectangle&gt;" class="cls-4" x="646.822" y="38.367" width="6.748" height="52.999"/><rect id="_Rectangle_26" data-name="&lt;Rectangle&gt;" class="cls-3" x="646.822" y="45.67" width="6.748" height="2.637"/><rect id="_Rectangle_27" data-name="&lt;Rectangle&gt;" class="cls-3" x="646.822" y="76.704" width="6.748" height="2.637"/><rect id="_Rectangle_28" data-name="&lt;Rectangle&gt;" class="cls-3" x="646.822" y="80.76" width="6.748" height="2.637"/><rect id="_Rectangle_29" data-name="&lt;Rectangle&gt;" class="cls-3" x="646.822" y="50.15" width="6.748" height="2.637"/></g><g id="_Group_19" data-name="&lt;Group&gt;"><rect id="_Rectangle_30" data-name="&lt;Rectangle&gt;" class="cls-3" x="639.833" y="48.306" width="6.824" height="43.06"/><rect id="_Rectangle_31" data-name="&lt;Rectangle&gt;" class="cls-6" x="639.833" y="54.239" width="6.824" height="2.142"/><rect id="_Rectangle_32" data-name="&lt;Rectangle&gt;" class="cls-6" x="639.833" y="79.453" width="6.824" height="2.143"/><rect id="_Rectangle_33" data-name="&lt;Rectangle&gt;" class="cls-6" x="639.833" y="82.749" width="6.824" height="2.142"/><rect id="_Rectangle_34" data-name="&lt;Rectangle&gt;" class="cls-6" x="639.833" y="57.879" width="6.824" height="2.142"/></g></g><g id="_Group_20" data-name="&lt;Group&gt;"><g id="_Group_21" data-name="&lt;Group&gt;"><g id="_Group_22" data-name="&lt;Group&gt;"><rect id="_Rectangle_35" data-name="&lt;Rectangle&gt;" class="cls-6" x="556.869" y="88.038" width="2.331" height="3.433"/></g></g><g id="_Group_23" data-name="&lt;Group&gt;"><g id="_Group_24" data-name="&lt;Group&gt;"><rect id="_Rectangle_36" data-name="&lt;Rectangle&gt;" class="cls-6" x="602.602" y="88.038" width="2.331" height="3.433"/></g></g><g id="_Group_25" data-name="&lt;Group&gt;"><g id="_Group_26" data-name="&lt;Group&gt;"><rect id="_Rectangle_37" data-name="&lt;Rectangle&gt;" class="cls-4" x="552.816" y="63.538" width="55.736" height="25.36"/></g></g><g id="_Group_27" data-name="&lt;Group&gt;"><g id="_Group_28" data-name="&lt;Group&gt;"><rect id="_Rectangle_38" data-name="&lt;Rectangle&gt;" class="cls-3" x="555.881" y="66.654" width="21.04" height="19.3"/></g></g><g id="_Group_29" data-name="&lt;Group&gt;"><g id="_Group_30" data-name="&lt;Group&gt;"><rect id="_Rectangle_39" data-name="&lt;Rectangle&gt;" class="cls-4" x="562.751" y="72.956" width="7.3" height="6.696"/></g></g><g id="_Group_31" data-name="&lt;Group&gt;"><g id="_Group_32" data-name="&lt;Group&gt;"><rect id="_Rectangle_40" data-name="&lt;Rectangle&gt;" class="cls-6" x="565.974" y="67.636" width="0.427" height="2.012"/></g></g><g id="_Group_33" data-name="&lt;Group&gt;"><g id="_Group_34" data-name="&lt;Group&gt;"><rect id="_Rectangle_41" data-name="&lt;Rectangle&gt;" class="cls-6" x="569.838" y="68.558" width="0.427" height="2.012" transform="translate(111.18 -275.739) rotate(30.004)"/></g></g><g id="_Group_35" data-name="&lt;Group&gt;"><g id="_Group_36" data-name="&lt;Group&gt;"><rect id="_Rectangle_42" data-name="&lt;Rectangle&gt;" class="cls-6" x="572.721" y="71.291" width="0.427" height="2.012" transform="translate(349.677 -460.279) rotate(60.064)"/></g></g><g id="_Group_37" data-name="&lt;Group&gt;"><g id="_Group_38" data-name="&lt;Group&gt;"><rect id="_Rectangle_43" data-name="&lt;Rectangle&gt;" class="cls-6" x="573.849" y="75.099" width="0.427" height="2.012" transform="translate(651.401 -497.793) rotate(90.123)"/></g></g><g id="_Group_39" data-name="&lt;Group&gt;"><g id="_Group_40" data-name="&lt;Group&gt;"><rect id="_Rectangle_44" data-name="&lt;Rectangle&gt;" class="cls-6" x="572.92" y="78.961" width="0.427" height="2.012" transform="translate(930.101 -375.5) rotate(120.144)"/></g></g><g id="_Group_41" data-name="&lt;Group&gt;"><g id="_Group_42" data-name="&lt;Group&gt;"><rect id="_Rectangle_45" data-name="&lt;Rectangle&gt;" class="cls-6" x="570.182" y="81.839" width="0.427" height="2.013" transform="translate(1106.543 -128.72) rotate(150.202)"/></g></g><g id="_Group_43" data-name="&lt;Group&gt;"><g id="_Group_44" data-name="&lt;Group&gt;"><rect id="_Rectangle_46" data-name="&lt;Rectangle&gt;" class="cls-6" x="566.371" y="82.96" width="0.427" height="2.012" transform="translate(1132.804 170.363) rotate(-179.754)"/></g></g><g id="_Group_45" data-name="&lt;Group&gt;"><g id="_Group_46" data-name="&lt;Group&gt;"><rect id="_Rectangle_47" data-name="&lt;Rectangle&gt;" class="cls-6" x="562.511" y="82.023" width="0.427" height="2.012" transform="translate(1006.89 438.374) rotate(-149.732)"/></g></g><g id="_Group_47" data-name="&lt;Group&gt;"><g id="_Group_48" data-name="&lt;Group&gt;"><rect id="_Rectangle_48" data-name="&lt;Rectangle&gt;" class="cls-6" x="559.639" y="79.279" width="0.427" height="2.012" transform="translate(767.63 606.316) rotate(-119.714)"/></g></g><g id="_Group_49" data-name="&lt;Group&gt;"><g id="_Group_50" data-name="&lt;Group&gt;"><rect id="_Rectangle_49" data-name="&lt;Rectangle&gt;" class="cls-6" x="558.525" y="75.466" width="0.427" height="2.013" transform="translate(478.64 634.703) rotate(-89.628)"/></g></g><g id="_Group_51" data-name="&lt;Group&gt;"><g id="_Group_52" data-name="&lt;Group&gt;"><rect id="_Rectangle_50" data-name="&lt;Rectangle&gt;" class="cls-6" x="559.47" y="71.608" width="0.427" height="2.013" transform="matrix(0.506, -0.863, 0.863, 0.506, 213.919, 518.669)"/></g></g><g id="_Group_53" data-name="&lt;Group&gt;"><g id="_Group_54" data-name="&lt;Group&gt;"><rect id="_Rectangle_51" data-name="&lt;Rectangle&gt;" class="cls-6" x="562.219" y="68.741" width="0.427" height="2.012" transform="translate(38.92 286.841) rotate(-29.592)"/></g></g><g id="_Group_55" data-name="&lt;Group&gt;"><g id="_Group_56" data-name="&lt;Group&gt;"><rect id="_Rectangle_52" data-name="&lt;Rectangle&gt;" class="cls-6" x="566.401" y="75.746" width="5.311" height="0.935"/></g></g><g id="_Group_57" data-name="&lt;Group&gt;"><g id="_Group_58" data-name="&lt;Group&gt;"><rect id="_Rectangle_53" data-name="&lt;Rectangle&gt;" class="cls-6" x="563.931" y="73.749" width="5.311" height="0.468" transform="translate(492.603 640.57) rotate(-90)"/></g></g><g id="_Group_59" data-name="&lt;Group&gt;"><g id="_Group_60" data-name="&lt;Group&gt;"><rect id="_Rectangle_54" data-name="&lt;Rectangle&gt;" class="cls-3" x="580.199" y="67.079" width="25.163" height="0.996"/></g></g><g id="_Group_61" data-name="&lt;Group&gt;"><g id="_Group_62" data-name="&lt;Group&gt;"><rect id="_Rectangle_55" data-name="&lt;Rectangle&gt;" class="cls-3" x="580.199" y="69.565" width="25.163" height="0.996"/></g></g><g id="_Group_63" data-name="&lt;Group&gt;"><g id="_Group_64" data-name="&lt;Group&gt;"><rect id="_Rectangle_56" data-name="&lt;Rectangle&gt;" class="cls-3" x="580.199" y="72.051" width="25.163" height="0.996"/></g></g><g id="_Group_65" data-name="&lt;Group&gt;"><g id="_Group_66" data-name="&lt;Group&gt;"><rect id="_Rectangle_57" data-name="&lt;Rectangle&gt;" class="cls-3" x="580.199" y="74.537" width="25.163" height="0.996"/></g></g><g id="_Group_67" data-name="&lt;Group&gt;"><g id="_Group_68" data-name="&lt;Group&gt;"><rect id="_Rectangle_58" data-name="&lt;Rectangle&gt;" class="cls-3" x="580.199" y="77.022" width="25.163" height="0.996"/></g></g><g id="_Group_69" data-name="&lt;Group&gt;"><g id="_Group_70" data-name="&lt;Group&gt;"><rect id="_Rectangle_59" data-name="&lt;Rectangle&gt;" class="cls-3" x="580.199" y="79.508" width="25.163" height="0.996"/></g></g><g id="_Group_71" data-name="&lt;Group&gt;"><g id="_Group_72" data-name="&lt;Group&gt;"><rect id="_Rectangle_60" data-name="&lt;Rectangle&gt;" class="cls-3" x="580.199" y="81.994" width="25.163" height="0.996"/></g></g><g id="_Group_73" data-name="&lt;Group&gt;"><g id="_Group_74" data-name="&lt;Group&gt;"><rect id="_Rectangle_61" data-name="&lt;Rectangle&gt;" class="cls-3" x="580.199" y="84.48" width="25.163" height="0.996"/></g></g></g><rect class="cls-4" x="257.267" y="43.636" width="240.116" height="129.408"/><rect class="cls-6" x="251.427" y="165.71" width="251.795" height="10.903"/><polygon class="cls-3" points="297.755 142.726 296.659 141.279 327.934 117.57 351.88 131.855 397.064 86.197 417.139 110.752 458.621 80.488 459.681 81.962 416.812 113.224 396.936 88.911 352.171 134.143 328.055 119.759 297.755 142.726"/><rect class="cls-3" x="295.372" y="60.106" width="1.816" height="93.197"/><rect class="cls-3" x="279.977" y="141.949" width="204.652" height="1.816"/><circle class="cls-6" cx="460.3" cy="80.327" r="4.173"/><circle class="cls-6" cx="396.867" cy="87.807" r="4.172"/><circle class="cls-6" cx="327.893" cy="119.142" r="4.172"/><circle class="cls-6" cx="351.967" cy="132.194" r="4.173"/><circle class="cls-6" cx="416.608" cy="111.276" r="4.172"/><polygon class="cls-12" points="558.379 110.943 592.343 102.425 585.49 87.205 585.653 73.498 574.751 50.214 564.884 69.306 561.313 91.049 558.379 110.943"/><path class="cls-12" d="M521.468,121.725h-0.886L496.071,89.084,493.387,81.9a4.756,4.756,0,0,0-4.455-3.091h-4.083l-1.772,1.034-18.6-1.034h0a3.675,3.675,0,0,0,3.541,3.672l9.452,0.343,0.277,6.914a6.413,6.413,0,0,0,4,5.686l6.357,2.58,2.51,2.262,23.757,39.044a2.851,2.851,0,0,0,3.371,1.211l8.9-3.092L522.8,121.779Z"/><rect class="cls-12" x="521.175" y="344.405" width="15.275" height="11.933" transform="translate(1057.625 700.744) rotate(180)"/><path class="cls-13" d="M542.38,183.492l-21.205,93.874v70.406H536.45s12.649-48.847,6.205-69.134l25.3-58.553Z"/><polygon class="cls-14" points="540.428 347.773 540.428 365.593 490.467 365.593 490.467 359.388 504.787 356.524 515.447 344.272 517.675 344.272 521.175 350.001 536.45 350.478 538.677 347.773 540.428 347.773"/><rect class="cls-15" x="513.815" y="346.146" width="1.907" height="4.185" transform="translate(-92.527 480.331) rotate(-46.349)"/><rect class="cls-15" x="511.3" y="349.32" width="1.911" height="3.112" transform="translate(-105.758 410.697) rotate(-39.938)"/><polygon class="cls-15" points="510.066 354.67 511.382 353.287 509.379 351.377 508.063 352.761 510.066 354.67"/><rect class="cls-12" x="571.892" y="347.773" width="11.337" height="11.933" transform="translate(1155.12 707.479) rotate(180)"/><polygon class="cls-16" points="540.686 190.995 547.941 191.449 567.954 220.086 557.339 244.655 551.486 216.963 538.833 199.198 540.686 190.995"/><path class="cls-13" d="M589.911,193.833l-0.954,80.908c8.592,17.661-5.728,73.032-5.728,73.032H570.818l-1.671-65.315L555.3,216.963,536.45,190.491Z"/><polygon class="cls-14" points="554.429 365.324 574.219 365.324 585.615 360.024 584.82 350.478 583.229 352.865 580.365 353.024 576.864 347.773 567.317 347.773 554.429 365.324"/><polygon class="cls-13" points="585.615 360.024 585.615 363.684 575.114 369.571 554.429 369.571 554.429 365.324 574.219 365.324 585.615 360.024"/><rect class="cls-15" x="565.447" y="351.114" width="6.444" height="1.909"/><rect class="cls-15" x="564.075" y="354.456" width="6.444" height="1.909"/><rect class="cls-15" x="561.927" y="357.797" width="6.444" height="1.909"/><rect class="cls-13" x="490.467" y="365.324" width="49.961" height="4.247" transform="translate(1030.894 734.896) rotate(180)"/><path class="cls-14" d="M561.313,91.049l-22.336,12.926a6.807,6.807,0,0,0-1.147.836l-16.654,15.035,3.341,21.433,42.114-25.034Z"/><polygon class="cls-14" points="601.108 114.242 592.343 196.178 532.154 196.178 548.145 100.514 561.313 91.049 568.697 103.911 585.49 87.205 601.108 114.242"/><path class="cls-8" d="M578.2,62.4c0.909,1.567.842,3.826,0.959,5.466,0.212,2.965.127,6.135,0.983,9a24.111,24.111,0,0,0,1.8,4.1,1.389,1.389,0,0,0,.452.586,1.082,1.082,0,0,0,.563.13,3.484,3.484,0,0,0,3.013-2.51,15.529,15.529,0,0,0,.522-4.138c0.162-2.285,1.474-4.557,1.794-6.88,0.112-.814.1-1.64,0.177-2.458a46.977,46.977,0,0,1,1.34-5.742c0.858-3.8-.7-7.023-2.541-10.289-0.923-1.642-1.78-3.409-2.862-4.955-1.374-1.964-3.363-1.923-5.243-3.132-1.453-.935-2.425-2.719-4.125-3.024-2.106-.379-4.24,1.767-6.215.944-2.052-.855-3.938-1.981-6.191-0.717a6.986,6.986,0,0,1-2.326,1.191,7.771,7.771,0,0,1-1.788-.171,8.673,8.673,0,0,0-3.451.591c-1.062.335-2.261,0.8-2.624,1.851a17.321,17.321,0,0,1-.364,1.952,2.569,2.569,0,0,1-2.113,1.162,6.379,6.379,0,0,0-2.448.5c-1.172.668-1.505,4.128-.96,5.231a3.7,3.7,0,0,0,3.591,1.662c1.4-.069,2.746-0.546,4.14-0.637a3.8,3.8,0,0,1,3.651,1.557,4.906,4.906,0,0,1,.417,1.217l1.7,6.857c0.529,2.137,1.125,4.4,2.716,5.919a6.5,6.5,0,0,0,6.344,1.366,7.835,7.835,0,0,0,4.759-4.561,8.811,8.811,0,0,1,1.16-2.508,1.816,1.816,0,0,1,2.447-.463A3.56,3.56,0,0,1,578.2,62.4Z"/><path class="cls-12" d="M550.471,53.02V64L551.9,65.43s-3.1,4.3-2.864,8.831H551.9v5.43a8.413,8.413,0,0,0,8.413,8.413h1.074a11.755,11.755,0,0,0,11.755-11.754V71.635s4.535-2.148,4.535-6.205c0,0,.716-6.205-3.1-5.967,0,0-5.012-.239-5.251,3.819l-5.469.477V60.687a4.108,4.108,0,0,0-3.84-4.1h0l-0.237-6.432S553.335,48.962,550.471,53.02Z"/><path class="cls-8" d="M552.382,82.268c0.837-.467,1.192.794,1.271,1.369a1.5,1.5,0,0,0,.818,1.392,1.475,1.475,0,0,0,.719-0.06,4.11,4.11,0,0,0,1.863-.862c0.939-.682,1.73-1.37,1.684-2.576a2.894,2.894,0,0,0-1.576-2.885,6.535,6.535,0,0,0-3.17-.3c-0.814.066-1.982,0.478-2.565-.34a1.736,1.736,0,0,1,0-1.509,2.457,2.457,0,0,1,.36-0.8c0.523-.668,2.963-0.454,3.8-0.5a16.662,16.662,0,0,1,2.946-.1,3.659,3.659,0,0,1,2.435,1.227c0.5,0.626.778,1.518,1.527,1.8a1.967,1.967,0,0,0,.981.057,2.636,2.636,0,0,0,1.9-1.073c0.578-.928.2-2.124-0.092-3.176-0.662-2.347-.377-4.8-1.016-7.089-0.349-1.253-1-4.32.045-5.392h5.569c-0.582,2.582-1.237,7.185-.221,9.631,1.777,4.275,5.322,10.371,1.16,14.382a13.212,13.212,0,0,1-3.989,2.345,10.349,10.349,0,0,1-2.818.927c-1.133.143-2.282-.091-3.422-0.04-1.435.065-2.868,0.581-4.278,0.309a7.828,7.828,0,0,1-2.574-1.2,1.483,1.483,0,0,1-.455-0.377A4.1,4.1,0,0,1,553,86.621a3.19,3.19,0,0,0-.328-0.534,4.3,4.3,0,0,1-.706-2.6A1.353,1.353,0,0,1,552.382,82.268Z"/><g class="cls-17"><path class="cls-15" d="M540.945,301.24a5.339,5.339,0,0,0,1.307-2.884c0-.576-1.852-3.687-1.651-3.931a1.84,1.84,0,0,1,1.345-.661,3.118,3.118,0,0,0-1.481-1.5c-0.575-.434-1.016-1.346-0.473-1.82,0.738-.55,1.619-0.342,2.405-0.475-0.163-1.941-.685-3.91-1.044-5.83a11.9,11.9,0,0,0-1.881-4.934c-0.954-1.269-2.661-1.451-3.313-2.923a0.712,0.712,0,0,1-.08-0.409,0.814,0.814,0,0,1,.846-0.464,34.734,34.734,0,0,0,4.295-.256c0.8-.145,2.782-1.3,3.14-0.609,0.308,0.591-1.413,3.42-1.7,4.094,2.068,6.51,2.014,13.7,1.7,20.449-0.188,4.077-.564,8.144-1.05,12.2-0.431,3.59-.51,7.968-1.713,11.331a10.27,10.27,0,0,0-.833-4.784,21.532,21.532,0,0,0-2.825-4.245,2.792,2.792,0,0,1-.479-0.754,2.473,2.473,0,0,1-.116-0.8,11.6,11.6,0,0,1,.122-1.984c1.632,0.9,3.231,1.592,4.9,2.32-0.261-2.251-.5-5.1-2.028-6.9a2.535,2.535,0,0,1-.879-1.561,1.935,1.935,0,0,1,.219-0.73A12.857,12.857,0,0,1,540.945,301.24Zm16.023-55.726c0.545-1.26-2.542-.135-2.721-0.008a6.4,6.4,0,0,0-2.152,3.011,52.365,52.365,0,0,0-1.245,5.7,15.382,15.382,0,0,1-4.068,7.186,1.521,1.521,0,0,1,1.181,1.962,6.091,6.091,0,0,1-1.442,2.188c-0.992,1.213-1.422,3.447-2.483,4.444a5.411,5.411,0,0,1-1.909.722c0.24,0.353,2.791,2.683,2.7,2.889Z"/></g><g class="cls-18"><path class="cls-19" d="M593.948,181.174l-0.325,3.036a1,1,0,0,1-.2-1.032A18.033,18.033,0,0,0,593.948,181.174Z"/><path class="cls-19" d="M594.212,145.886c1.823-.462-1.751-1.94-3.075-3.457-0.187-.5,3.951-0.589,4.367-0.85-0.249-1.817.007-3.457-.242-5.274-0.957-.5-4.471-0.887-3.561-1.193,4.53-1.523.811-21.231-.513-24.168-0.622-1.378,4.62,7.166,5.246,8.554,1.606,3.56,2.088,7.175,2.953,10.823l-0.54,5.047c-0.22.044-.443,0.078-0.661,0.125a6.16,6.16,0,0,1,.59.544l-1.264,11.819c-0.357.043-.081,1.1-0.439,1.144a1.371,1.371,0,0,1,.261.517l-2.965,27.712c-2.027,11.7-2.312-7.53-2.027-10.851,0.578-6.747,4.1-14.644-.641-15.752C590.623,150.372,593.217,146.007,594.212,145.886Z"/></g><polygon class="cls-12" points="616.881 141.279 618.074 154.927 605.902 212.21 607.334 219.609 605.902 229.394 602.378 232.497 597.548 233.929 592.343 235.838 590.15 235.838 585.49 233.929 588.479 230.11 589.673 224.03 587.763 227.246 584.142 228.201 588.718 216.963 596.215 209.193 601.108 159.579 599.219 141.279 616.881 141.279"/><polygon class="cls-16" points="617.214 145.097 599.613 145.097 599.219 141.279 616.881 141.279 617.214 145.097"/><path class="cls-14" d="M585.49,87.205l27.272,15.562a10.121,10.121,0,0,1,5.094,8.319l1.411,30.193H597.548l-1.333-20.717Z"/><path class="cls-20" d="M656.409,177.775c25.74,15.938,17.731,53.207,17.384,78.965q-0.574,42.6-1.148,85.2a1.33,1.33,0,0,0,2.658,0q0.686-50.912,1.372-101.825C677,216.15,681.1,189.936,657.75,175.48c-1.458-.9-2.794,1.4-1.341,2.295h0Z"/><path class="cls-14" d="M670.7,190.738a32.455,32.455,0,0,0-4.152-7.053c-2.678-3.205-6.408-5.316-10.052-7.356l-0.536.286c-2.105,5.474-3.2,11.479-2.1,17.241s4.613,11.23,9.9,13.773c3.877,1.865,8.46,2.108,12.077,4.436C676.859,204.715,673.882,197.444,670.7,190.738Z"/><path class="cls-14" d="M697.663,145.533C672.1,155.673,677.6,194.45,676.571,216.3c-1.747,37.059-2.692,74.117-2.449,111.219a1.33,1.33,0,0,0,2.658,0q-0.3-46.274,1.6-92.52c0.585-13.929,1.285-27.852,1.943-41.778,0.764-16.167.02-37.978,18.05-45.13,1.571-.623.886-3.195-0.706-2.563h0Z"/><path class="cls-20" d="M680.164,190.134c-0.046-.128-0.079-0.261-0.125-0.389a12.031,12.031,0,0,0-1.034,1.954Z"/><path class="cls-14" d="M699.119,147.791a1.312,1.312,0,0,0-1.952-.883c-8.316,2.468-14.879,9.519-17.726,17.713-2.8,8.065-2.227,17.061.6,25.123,3.177-5.017,9.631-7.525,14.151-11.686C702.212,170.673,703.444,157.8,699.119,147.791Z"/><path class="cls-13" d="M653.894,327.556H697.95a0,0,0,0,1,0,0v38.62A5.822,5.822,0,0,1,692.128,372H659.716a5.822,5.822,0,0,1-5.822-5.822v-38.62A0,0,0,0,1,653.894,327.556Z"/><path class="cls-20" d="M677.079,274.789c-0.4-10.269-.866-22.431,6.761-30.48,5.955-6.283,21.223-10.613,29.782-10.835,1.707-.044,1.714-2.7,0-2.658-6.527.169-13.336,2.757-19.484,4.844-4.523,1.536-8.8,3.235-12.178,6.769-8.193,8.583-7.968,21.336-7.539,32.359,0.066,1.7,2.724,1.713,2.658,0h0Z"/><path class="cls-14" d="M716.488,229.747a0.831,0.831,0,0,0-.651-0.184l-9.639.082a33.987,33.987,0,0,0-8.289.752c-5.433,1.412-9.831,5.427-13.269,9.865l-1,.153c5.013,1.6,9.936,3.7,15.171,4.243s11.035-.782,14.315-4.9c2.088-2.621,2.9-6.018,3.454-9.323A0.828,0.828,0,0,0,716.488,229.747Z"/><rect class="cls-12" x="350.219" y="337.072" width="11.649" height="19.532" transform="translate(-140.867 358.798) rotate(-45.628)"/><rect class="cls-12" x="284.102" y="338.747" width="11.65" height="19.532" transform="translate(115.016 -69.727) rotate(17.062)"/><polygon class="cls-8" points="223.12 293.18 212.434 369.472 216.195 369.571 236.128 290.785 223.344 290.785 223.12 293.18"/><polygon class="cls-8" points="302.143 293.18 312.83 369.472 309.068 369.571 289.136 290.785 301.919 290.785 302.143 293.18"/><path class="cls-21" d="M219.024,281.928h87.1a4.763,4.763,0,0,1,4.763,4.763v6.49a0,0,0,0,1,0,0H214.261a0,0,0,0,1,0,0v-6.49A4.763,4.763,0,0,1,219.024,281.928Z"/><polygon class="cls-13" points="218.265 263.873 290.626 297.177 352.694 353.06 364.301 341.517 310.89 281.928 257.11 243.688 218.265 263.873"/><path class="cls-13" d="M213.925,247.557v13.625a21.362,21.362,0,0,0,21.362,21.362h67.45c-12.111,14.634-19.05,61.821-19.05,61.821l15.191,4.149L325.7,279.866a19.359,19.359,0,0,0-18.089-26.254H259.33l0.346-6.055H213.925Z"/><path class="cls-3" d="M242.824,182.173l12.589,2.374a24.963,24.963,0,0,1,17.771,13.508l10.3,20.932-10.313,23.191L272.124,252.6s-49.977,22.149-62.247,12.111l-0.57-53.3,18.864-27.588Z"/><path class="cls-12" d="M225.332,166.739s3.991,17.934,3.15,28.362h14.634s-1.511-17.8,1.514-20.73Z"/><path class="cls-12" d="M251.035,151.94c-0.185-3.275-1.544-6.355-2.882-9.351l-0.546.265a13.321,13.321,0,0,0-12.553-2.892,17.816,17.816,0,0,0-10.291,8.179,21.4,21.4,0,0,0-1.6,18.436,20.906,20.906,0,0,0,13.682,12.411c2.458,0.678,5.324.81,7.325-.77a10.059,10.059,0,0,0,1.981-2.361,19.736,19.736,0,0,0,3.46-7.082,45.167,45.167,0,0,0,.251-6.27C250.044,158.959,251.235,155.483,251.035,151.94Z"/><path class="cls-8" d="M244.763,138.281a41.246,41.246,0,0,0-5.414-3.952,20.053,20.053,0,0,0-4.932-1.693c-4.295-.987-7.19-0.708-10.471,2.484a13.758,13.758,0,0,0-4.221,9.217,8.777,8.777,0,0,1-.228,2.344,8.473,8.473,0,0,1-1.462,2.347,15.69,15.69,0,0,0-1.819,14.463c0.765,2.1,1.995,4.487,3.982,5.628,1.6,0.917,5.742,1.613,6.526,3.54a19.828,19.828,0,0,1-1.368-9.278,4.986,4.986,0,0,1,.67-2.337,2.039,2.039,0,0,1,2.1-.952,4.47,4.47,0,0,1,1.456.955,4.938,4.938,0,0,0,2.931,1,2.049,2.049,0,0,0,1.185-.286,2.183,2.183,0,0,0,.771-1.437c0.524-2.682-.377-5.739-1.245-8.262-0.732-2.127-.871-4.91,1.961-4.731,2.545,0.161,5.149,1.721,7.867,1.87a22.722,22.722,0,0,0,15.508-4.872A32.283,32.283,0,0,1,244.763,138.281Z"/><polygon class="cls-22" points="238.574 195.101 242.824 181.163 245.336 181.637 247.994 204.016 238.574 195.101"/><path class="cls-12" d="M227.969,182.173l-13.387,2.533a19.877,19.877,0,0,0-14.627,11.827L185,232.1a7.644,7.644,0,0,0,7.046,10.606l53.478-2.672,2.467-7.572-5.887,2-33.473-2.837a3.529,3.529,0,0,1-2.56-5.586L228.482,195.1S232.5,184.046,227.969,182.173Z"/><path class="cls-3" d="M227.969,182.173l-13.387,2.533a19.877,19.877,0,0,0-14.627,11.826l-10.328,21.95c8.074-.841,16.448,7.557,22.2,3.028L228.482,195.1S232.5,184.046,227.969,182.173Z"/><polygon class="cls-22" points="227.851 181.303 238.574 195.101 231.005 205.025 224.138 182.173 227.851 181.303"/><path class="cls-3" d="M279.381,352.686l-3.725,9.436v7.449h45.689V367.51a3.992,3.992,0,0,0-3.068-3.884l-7.362-1.753-15.395-9.187h-2.731l-1.242,2.731H283.6l-0.745-2.731h-3.476Z"/><path class="cls-23" d="M275.656,365.6v3.973h45.689V367.51a3.979,3.979,0,0,0-.489-1.911h-45.2Z"/><path class="cls-3" d="M355.115,356.392l5.338,8.626,5.972,4.453,28.358-36.625-1.652-1.232a3.991,3.991,0,0,0-4.947.137l-5.806,4.853-17.613,6.849-1.633,2.19,1.447,2.628-4.75,6.37-2.635-1.036Z"/><path class="cls-23" d="M363.239,367.1l3.185,2.375,28.358-36.625-1.652-1.232a3.977,3.977,0,0,0-1.825-.751Z"/><polygon class="cls-8" points="183.126 247.16 160.366 375.967 164.315 375.967 196.611 246.24 183.126 247.16"/><polygon class="cls-8" points="540.714 247.16 563.475 375.967 559.526 375.967 527.23 246.24 540.714 247.16"/><rect class="cls-24" x="135.916" y="254.428" width="452.224" height="6.115"/><polygon class="cls-21" points="135.916 254.428 160.993 241.117 597.196 241.117 588.244 254.428 135.916 254.428"/><polygon class="cls-25" points="588.139 260.543 597.196 247.772 597.196 241.117 588.244 254.428 588.139 260.543"/><rect class="cls-8" x="208.121" y="242.612" width="32.716" height="4.291"/><path class="cls-8" d="M296.738,246.9H229.4l15.873-41.089a2.561,2.561,0,0,1,2.389-1.638h61.851a2.561,2.561,0,0,1,2.389,3.484Z"/><circle class="cls-26" cx="271.32" cy="225.539" r="4.198"/><g id="_Group_75" data-name="&lt;Group&gt;"><g id="_Group_76" data-name="&lt;Group&gt;"><g id="_Group_77" data-name="&lt;Group&gt;"><g id="_Group_78" data-name="&lt;Group&gt;"><path id="_Path_9" data-name="&lt;Path&gt;" class="cls-8" d="M322.712,239.012h-2.947a4.86,4.86,0,1,1,0-9.72h1.894v2.06h-1.894a2.8,2.8,0,1,0,0,5.6h2.947v2.059Z"/></g></g></g><g id="_Group_79" data-name="&lt;Group&gt;"><g id="_Group_80" data-name="&lt;Group&gt;"><path id="_Path_10" data-name="&lt;Path&gt;" class="cls-8" d="M338.689,227.674H320.772v5.448a15.442,15.442,0,0,0,4.078,10.455h0V246.3h9.762v-2.719h0a15.443,15.443,0,0,0,4.077-10.455v-5.448Z"/></g></g><g id="_Group_81" data-name="&lt;Group&gt;" class="cls-27"><g id="_Group_82" data-name="&lt;Group&gt;"><path id="_Path_11" data-name="&lt;Path&gt;" class="cls-7" d="M335,227.674v5.448a15.442,15.442,0,0,1-4.078,10.455h0V246.3h2.106v-2.719h0a15.443,15.443,0,0,0,4.078-10.455v-5.448H335Z"/></g></g></g><g id="_Group_83" data-name="&lt;Group&gt;"><g id="_Group_84" data-name="&lt;Group&gt;"><g id="_Group_85" data-name="&lt;Group&gt;"><polygon id="_Path_12" data-name="&lt;Path&gt;" class="cls-13" points="474.187 250.264 478.328 250.264 474.187 232.567 458.893 250.264 474.187 250.264"/></g></g><g id="_Group_86" data-name="&lt;Group&gt;"><g id="_Group_87" data-name="&lt;Group&gt;"><polygon id="_Path_13" data-name="&lt;Path&gt;" class="cls-28" points="469.524 250.264 445.72 250.264 455.886 217.334 479.689 217.334 469.524 250.264"/></g></g><g id="_Group_88" data-name="&lt;Group&gt;"><g id="_Group_89" data-name="&lt;Group&gt;"><polygon id="_Path_14" data-name="&lt;Path&gt;" class="cls-8" points="466.983 250.264 443.179 250.264 453.344 217.334 477.148 217.334 466.983 250.264"/></g></g><g id="_Group_90" data-name="&lt;Group&gt;"><g id="_Group_91" data-name="&lt;Group&gt;"><polygon id="_Path_15" data-name="&lt;Path&gt;" class="cls-14" points="465.195 245.948 447.632 245.948 455.132 221.65 472.695 221.65 465.195 245.948"/></g></g><g id="_Group_92" data-name="&lt;Group&gt;" class="cls-29"><g id="_Group_93" data-name="&lt;Group&gt;"><polygon id="_Path_16" data-name="&lt;Path&gt;" class="cls-7" points="448.902 245.312 456.206 221.65 455.132 221.65 447.632 245.948 465.195 245.948 465.391 245.312 448.902 245.312"/></g></g></g><path class="cls-8" d="M523.216,246.493l-0.014.008a0.792,0.792,0,0,1-1.079-.3l-25.055-44.62a0.793,0.793,0,0,1,.3-1.079l0.013-.007a0.791,0.791,0,0,1,1.078.3l25.056,44.621A0.792,0.792,0,0,1,523.216,246.493Z"/><path class="cls-8" d="M518.557,246.13h65.718a0.889,0.889,0,0,1,.889.889v3.554a0.89,0.89,0,0,1-.89.89H518.556a0.889,0.889,0,0,1-.889-0.889V247.02A0.89,0.89,0,0,1,518.557,246.13Z"/><path class="cls-13" d="M585.164,248.594a2.44,2.44,0,0,0-.6-1.569,2.481,2.481,0,0,1-2.478,2.471l-62.534.034a2.442,2.442,0,0,1-1.881-.911l0,0.012V249a2.482,2.482,0,0,0,2.483,2.481l62.534-.033a2.482,2.482,0,0,0,2.48-2.483v-0.37Z"/><rect class="cls-30" x="562.783" y="247.548" width="4.906" height="1.881"/><rect class="cls-30" x="568.596" y="247.545" width="4.906" height="1.881"/><rect class="cls-30" x="527.32" y="247.567" width="4.906" height="1.881"/><rect class="cls-12" x="59.973" y="341.913" width="15.258" height="15.759" transform="translate(-15.639 696.196) rotate(-155.55)"/><polygon class="cls-14" points="125.227 260.995 110.817 296.397 76.628 351.163 59.971 343.641 94.294 279.091 97.555 200.402 125.227 260.995"/><polygon class="cls-13" points="76.492 350.684 77.655 351.198 83.094 364.41 86.113 369.035 95.574 371.631 95.557 375.508 84.399 375.723 50.041 361.241 49.324 356.6 54.061 345.874 57.061 345.346 59.398 346.378 62.429 354.203 73.212 358.811 76.492 350.684"/><polygon class="cls-14" points="49.336 356.573 54.061 345.874 57.061 345.346 59.398 346.378 62.429 354.203 73.212 358.811 76.492 350.684 77.655 351.198 83.094 364.41 86.113 369.035 95.574 371.631 95.57 372.615 87.365 372.615 49.336 356.573"/><rect class="cls-12" x="112.236" y="351.785" width="14.228" height="14.696" transform="translate(238.701 718.267) rotate(180)"/><polygon class="cls-13" points="128.441 356.996 129.626 356.996 139.243 366.218 154.526 372.014 154.526 375.967 109.853 375.967 107.493 372.278 107.493 361.343 109.853 359.762 112.236 359.762 117.769 365.296 128.704 365.164 128.441 356.996"/><polygon class="cls-14" points="112.236 359.762 117.769 365.296 128.704 365.164 128.441 356.996 129.626 356.996 139.244 366.218 154.263 371.915 107.493 371.915 107.493 361.343 109.853 359.762 112.236 359.762"/><path class="cls-8" d="M200.173,145.913c-1.971-3.565-4.32-6.935-5.945-10.671-3.638-8.364-3.375-17.835-3.048-26.951l-1.226-3.435c-3.806-1.242-7.938-.618-11.89.018a9.128,9.128,0,0,0-8.071,5.456,37.955,37.955,0,0,0-3.53,6.412c-2.28,5.806-.108,11.423-0.786,17.292-0.715,6.191-2.934,12.56-4.353,18.634a51.9,51.9,0,0,0-1.5,8.557,26.4,26.4,0,0,0,5.256,17.228c1.628,2.178,3.858,3.919,5.778,5.871a3.163,3.163,0,0,0,5.241-1.312c1.728-5.254,4.939-10.517,8.745-11.481-0.562-3.731,2.014-6.54,3.792-9.541,2.295-3.874,2.458-7.7,2.6-12.027,3.941,0.041,9.623,5.016,12.5,7.5C203.772,153.386,202.145,149.478,200.173,145.913Z"/><path class="cls-31" d="M96.183,233.5c0.159,0.45.323,0.891,0.477,1.352l11.866,47.394v17.82l2.291-3.669,14.41-35.4L97.555,200.4Z"/><path class="cls-14" d="M93.087,187.216L88.323,199.28c0,14.047,7.029,22.246,11.472,35.572l11.867,47.394v75.808h16.727l6.334-76.823-1.048-76.818Z"/><path class="cls-12" d="M167.648,135.406l20.646,29.071a11.549,11.549,0,0,0,1.108,1.249L204.9,178.75l7.277-2.6a5.946,5.946,0,0,1,4.6.253l9.633,6.821-2.938.684-3.951,1.4,0.595,1.246,3.612-.207a3.023,3.023,0,0,1,3.1,2.25l0.155,0.59-7.6.99c-3.048,1.48-6.527-.652-9.447-1.047l-5.493-.4-1.381-.465L184.3,176.144a20.987,20.987,0,0,1-5.282-4.243L163.17,156.344Z"/><path class="cls-32" d="M158.832,124.65l-6.149,27.419,20.2,18.5c6.1-1.295,6.933-20.315,6.933-20.315Z"/><path class="cls-12" d="M182.514,121.694s-11.092,5.417-12.64,10.06l-4.9-17.541,15.478-10.577Z"/><path class="cls-3" d="M156.324,110.211l-0.086.051A134.217,134.217,0,0,0,114.2,149.039L87.455,187.216c-3.483,26.632,26.45,38.609,48.759,30.957l8.986-30.062a18.277,18.277,0,0,1,7.875-10.3l4.977-3.088a22.87,22.87,0,0,0,8.868-9.881,49.221,49.221,0,0,0,3.747-28.238l-0.791-4.854-4.9-25.28Z"/><path class="cls-31" d="M150.037,135.13c-5.319.242-7.84,4.24-7.84,9.564l-1.667,42.818a6.885,6.885,0,0,0,.13,1.33l1.715,8.715,2.823-9.446a18.278,18.278,0,0,1,7.875-10.3l0.989-.614,6.271-30.618A9.959,9.959,0,0,0,150.037,135.13Z"/><path class="cls-12" d="M142.272,140.19v44.516a7.214,7.214,0,0,0,.136,1.395l14.917,41.378a9.055,9.055,0,0,1-.589,5.378l-4.281,9.785-0.955,2.719a1.982,1.982,0,0,0,2.028,2.633l11.547-.921a2.824,2.824,0,0,0,2.55-2.29l2.113-11.169L154.35,184.23l8.7-42.461a10.448,10.448,0,0,0-10.8-12.016h0A10.448,10.448,0,0,0,142.272,140.19Z"/><path class="cls-32" d="M152.245,128.708c-5.58.254-10.048,2.571-10.048,8.157l-2.676,31.843s17.955,8.441,21.245,1.925l4.206-31.239C165.969,132.879,158.83,128.409,152.245,128.708Z"/><polygon class="cls-12" points="168.203 229.854 175.168 246.226 170.458 246.254 165.638 237.163 168.203 229.854"/><path class="cls-12" d="M178.863,98.933c4.461-3.6,15.839-5.678,20.039-.321,2.4,3.059,1.6,7.435-.205,11.6a12.492,12.492,0,0,0-.766,7.245c0.11,0.479-3.435.21-3.691,0.6-0.833,1.276-.8,1.128-1.46,2.03-1.427,1.956-3.1,3.926-5.4,4.671-3.026.977-6.428-.5-8.544-2.872s-3.186-5.484-4.031-8.549a19.917,19.917,0,0,1-.762-3.848A12.748,12.748,0,0,1,178.863,98.933Z"/><path class="cls-8" d="M184.422,105.5c-2.858,1.915-3.485,5.9-5.875,8.376-2.428,2.515-6.237,3.051-9.733,3.052-3.223,0-6.627-.4-9.21-2.325a11.139,11.139,0,0,1-4.114-7.686,20.016,20.016,0,0,1,1.249-8.8,33.674,33.674,0,0,1,7.136-11.833,14.783,14.783,0,0,1,5.612-4.07c2.715-.975,5.7-0.658,8.567-0.328,4.99,0.574,10.085,1.178,14.62,3.339a20.837,20.837,0,0,1,6.308,4.311l2.721,3.228c0.407,0.483.816,0.968,1.173,1.489a7.274,7.274,0,0,1,1.352,3.822,4.927,4.927,0,0,1-1.431,3.722,6.384,6.384,0,0,1-2.771,1.4,39.621,39.621,0,0,1-7.448,1.063C189.8,104.426,186.891,103.842,184.422,105.5Z"/><rect class="cls-2" x="204.616" y="62.51" width="44.022" height="48.386" rx="3.152" ry="3.152"/><path class="cls-3" d="M227.626,65.734a11.358,11.358,0,1,0,11.358,11.358H227.626V65.734Z"/><rect class="cls-3" x="212.086" y="90.946" width="31.079" height="2.996"/><rect class="cls-3" x="212.086" y="96.938" width="31.079" height="2.996"/><rect class="cls-3" x="212.086" y="102.929" width="19.838" height="2.996"/><path class="cls-8" d="M362.735,253.573c-2.6,0-2.847-1-.552-2.215l13.509-7.171a22.561,22.561,0,0,1,8.9-2.215h35.383c2.6,0,2.844.992,0.546,2.2l-13.629,7.191a22.684,22.684,0,0,1-8.9,2.2H362.735Z"/><path class="cls-14" d="M368.673,252.37c-2.06,0-2.256-.79-0.437-1.756l11.265-6.048a17.878,17.878,0,0,1,7.053-1.756H414.6c2.06,0,2.254.786,0.433,1.748l-11.36,6.064a17.974,17.974,0,0,1-7.057,1.748H368.673Z"/><path class="cls-28" d="M371.14,248.067a0.3,0.3,0,0,1-.138-0.556l3.532-1.873a0.3,0.3,0,0,1,.277.522l-3.532,1.873A0.3,0.3,0,0,1,371.14,248.067Z"/><g id="_Group_94" data-name="&lt;Group&gt;"><path id="_Path_17" data-name="&lt;Path&gt;" class="cls-14" d="M6.649,247.412a12.6,12.6,0,0,1,1.335.281l1.522,0.532,1.92,0.934,2.162,1.4c0.745,0.547,1.448,1.217,2.259,1.894a30.591,30.591,0,0,1,4.4,5.167,48.726,48.726,0,0,1,3.9,6.7,81.859,81.859,0,0,1,3.037,7.854,81.559,81.559,0,0,1,2.262,8.589c0.555,2.949,1.306,5.945,1.572,8.965,0.322,3.015.847,6.037,0.995,9.014,0.166,2.979.328,5.912,0.486,8.75s0.033,5.578.065,8.182c-0.015,2.6-.029,5.065-0.041,7.337L31.7,338.129l-7.8-.564,2.019-14.841c0.195-2.231.4-4.648,0.627-7.2,0.177-2.557.531-5.26,0.594-8.051s0.147-5.683.224-8.617c0.095-2.939-.182-5.9-0.255-8.887-0.017-2.991-.516-5.935-0.823-8.86a78.242,78.242,0,0,0-1.526-8.514,78.314,78.314,0,0,0-2.34-7.82,45.861,45.861,0,0,0-3.268-6.712,28.481,28.481,0,0,0-3.874-5.252c-0.734-.694-1.372-1.389-2.055-1.96l-2-1.479-1.81-1.012-1.46-.6A12.367,12.367,0,0,0,6.649,247.412Z"/><path id="_Path_18" data-name="&lt;Path&gt;" class="cls-14" d="M24.592,329.332s-0.775-3.623-2.2-9.1c-1.415-5.456-3.465-12.715-5.965-19.879-1.252-3.582-2.635-7.131-4.063-10.426-0.776-1.623-1.457-3.225-2.231-4.7-0.82-1.45-1.48-2.882-2.3-4.107a37.79,37.79,0,0,0-2.287-3.337c-0.807-.926-1.442-1.794-2.1-2.419L1.21,273.513,3.705,275.2c0.745,0.58,1.491,1.392,2.44,2.275a41.514,41.514,0,0,1,2.763,3.195c1,1.185,1.847,2.559,2.877,3.971,0.981,1.429,1.876,2.98,2.88,4.567,1.878,3.209,3.746,6.681,5.483,10.19a295.525,295.525,0,0,1,12.083,28.594Z"/><path id="_Path_19" data-name="&lt;Path&gt;" class="cls-14" d="M27.282,331.677s0.338-2.67,1.156-6.469a91.859,91.859,0,0,1,4.055-13.878,51.591,51.591,0,0,1,3.441-7.144,28,28,0,0,1,2.111-3.117,17.293,17.293,0,0,1,2.321-2.591,11.218,11.218,0,0,1,2.392-1.9,8.539,8.539,0,0,1,2.146-1.144l2.056-.689-1.828.967a7.08,7.08,0,0,0-1.738,1.372,8.93,8.93,0,0,0-1.76,2.072,13.963,13.963,0,0,0-1.536,2.69,23.216,23.216,0,0,0-1.232,3.158,44.823,44.823,0,0,0-1.555,7.109,83.853,83.853,0,0,0-.59,13.558c0.118,3.736.4,6.105,0.4,6.105Z"/><path id="_Path_20" data-name="&lt;Path&gt;" class="cls-8" d="M5.736,326.36L11.843,363.6a6.806,6.806,0,0,0,6.716,5.7H39.115a6.806,6.806,0,0,0,6.717-5.7l6.107-37.237H5.736Z"/><polygon id="_Path_21" data-name="&lt;Path&gt;" class="cls-33" points="5.736 326.36 51.939 326.36 47.065 356.08 7.031 334.257 5.736 326.36"/><rect id="_Rectangle_62" data-name="&lt;Rectangle&gt;" class="cls-8" y="316.443" width="57.675" height="10.636" rx="0.307" ry="0.307"/></g><rect class="cls-4" x="513.755" width="36.89" height="14.769"/><rect class="cls-4" x="493.54" y="17.29" width="36.89" height="14.769"/><rect class="cls-4" x="473.033" width="36.89" height="14.769"/><rect class="cls-4" x="374.409" y="180.089" width="30.091" height="12.047"/><rect class="cls-4" x="357.919" y="194.192" width="30.091" height="12.047"/><rect class="cls-4" x="341.192" y="180.089" width="30.091" height="12.047"/><rect class="cls-34" x="75.375" y="375.111" width="94" height="1.798" rx="0.834" ry="0.834"/><rect class="cls-1" x="208.375" y="369.571" width="162.5" height="1.669" rx="0.834" ry="0.834"/><rect class="cls-1" x="6.858" y="369.507" width="42.478" height="1.798" rx="0.834" ry="0.834"/></svg>